{"glyphs":{"0":{"ha":753,"x_min":71,"x_max":735,"o":"m 71 298 q 168 765 71 546 q 486 985 266 985 q 675 893 615 985 q 735 666 735 802 q 637 199 735 418 q 319 -20 540 -20 q 131 71 191 -20 q 71 298 71 163 m 197 278 q 227 144 197 210 q 328 77 256 77 q 534 263 460 77 q 609 686 609 449 q 579 821 609 754 q 478 887 549 887 q 271 701 346 887 q 197 278 197 515 z "},"1":{"ha":561,"x_min":197,"x_max":569,"o":"m 205 779 q 229 810 197 799 q 339 872 276 826 q 437 952 402 918 q 480 977 462 977 l 538 977 q 562 946 569 977 l 351 31 q 313 0 344 0 l 255 0 q 231 31 224 0 l 399 759 q 410 800 401 768 l 408 800 q 335 746 385 772 q 255 711 286 720 q 224 724 232 704 l 205 779 z "},"2":{"ha":753,"x_min":-18,"x_max":762,"o":"m 20 0 q -11 31 -18 0 l -3 63 q 31 112 3 89 l 358 380 q 566 579 504 499 q 629 747 629 659 q 594 841 629 800 q 477 883 559 883 q 340 834 393 883 q 258 717 287 785 q 216 691 243 680 l 165 711 q 159 769 142 720 q 275 918 187 850 q 479 985 362 985 q 692 921 623 985 q 762 749 762 857 q 671 523 762 616 q 454 329 581 429 l 180 113 l 180 110 q 235 111 208 111 l 595 111 q 625 81 631 111 l 613 31 q 569 0 606 0 l 20 0 z "},"3":{"ha":753,"x_min":2,"x_max":744,"o":"m 26 100 q 20 152 2 134 l 59 191 q 113 174 79 213 q 200 106 151 130 q 302 81 250 81 q 471 144 401 81 q 541 299 541 206 q 506 429 541 387 q 394 472 471 472 l 321 472 q 295 494 290 472 l 307 545 q 342 568 312 568 l 391 568 q 548 631 480 568 q 616 767 616 694 q 578 852 616 822 q 467 883 539 883 q 349 852 401 883 q 271 793 297 822 q 221 787 242 763 l 184 829 q 205 884 165 850 q 325 954 252 924 q 476 985 397 985 q 677 924 610 985 q 744 758 744 863 q 666 604 744 673 q 523 528 588 535 l 522 525 q 632 446 590 507 q 673 290 673 385 q 580 83 673 187 q 292 -20 486 -20 q 124 18 189 -20 q 26 100 58 57 z "},"4":{"ha":753,"x_min":18,"x_max":709,"o":"m 48 240 q 24 271 18 240 l 38 330 q 65 377 43 352 l 570 952 q 614 977 591 977 l 675 977 q 700 946 707 977 l 563 351 l 679 351 q 702 321 709 351 l 690 271 q 654 240 684 240 l 537 240 l 488 31 q 451 0 481 0 l 393 0 q 369 31 362 0 l 418 240 l 48 240 m 173 351 l 444 351 l 530 728 q 541 768 534 748 l 539 768 l 173 351 z "},"5":{"ha":753,"x_min":10,"x_max":773,"o":"m 33 115 q 31 166 10 151 l 77 199 q 128 178 101 218 q 188 118 144 154 q 318 81 232 81 q 481 155 419 81 q 543 340 543 228 q 506 463 543 427 q 392 499 468 499 q 327 490 360 499 q 241 446 294 481 q 182 424 208 424 l 150 424 q 127 454 120 424 l 237 934 q 275 964 244 964 l 743 964 q 766 934 773 964 l 755 884 q 717 853 748 853 l 338 853 l 276 585 q 265 545 273 569 l 268 545 q 346 587 298 574 q 429 601 393 601 q 623 523 570 601 q 676 326 676 446 q 573 78 676 177 q 312 -20 470 -20 q 125 26 191 -20 q 33 115 59 73 z "},"6":{"ha":753,"x_min":79,"x_max":777,"o":"m 79 304 q 200 785 79 586 q 536 985 321 985 q 662 962 605 985 q 751 901 718 939 q 760 857 777 871 l 718 823 q 669 831 693 802 q 612 869 651 854 q 521 883 572 883 q 331 776 415 883 q 209 504 246 669 l 210 504 q 314 583 249 557 q 439 610 378 610 q 623 543 553 610 q 692 346 692 476 q 599 93 692 205 q 348 -20 507 -20 q 149 66 220 -20 q 79 304 79 153 m 207 260 q 245 129 207 177 q 353 81 283 81 q 498 169 437 81 q 559 355 559 256 q 519 467 559 427 q 411 506 479 506 q 264 424 321 506 q 207 260 207 342 z "},"7":{"ha":746,"x_min":157,"x_max":827,"o":"m 205 853 q 182 884 175 853 l 194 934 q 231 964 201 964 l 797 964 q 821 934 827 964 l 810 887 q 774 838 804 866 q 477 493 603 684 q 302 90 351 302 l 287 26 q 250 -4 280 -4 l 188 -4 q 164 26 157 -4 l 174 66 q 365 504 235 325 q 672 853 495 684 l 673 854 q 631 853 652 853 l 205 853 z "},"8":{"ha":753,"x_min":39,"x_max":758,"o":"m 39 237 q 118 426 39 346 q 273 524 197 507 l 273 526 q 197 602 222 558 q 173 711 173 645 q 264 904 173 823 q 493 985 356 985 q 695 922 632 985 q 758 765 758 859 q 683 593 758 658 q 545 519 608 529 l 545 518 q 640 439 608 494 q 671 312 671 385 q 571 77 671 175 q 321 -20 470 -20 q 114 45 189 -20 q 39 237 39 110 m 171 241 q 208 123 171 165 q 328 81 244 81 q 478 146 417 81 q 538 302 538 212 q 510 415 538 366 q 408 464 482 464 q 239 397 307 464 q 171 241 171 330 m 300 724 q 334 605 300 637 q 416 574 368 574 q 565 625 500 574 q 630 751 630 675 q 596 847 630 811 q 486 883 562 883 q 354 830 408 883 q 300 724 300 777 z "},"9":{"ha":753,"x_min":36,"x_max":734,"o":"m 121 618 q 214 872 121 759 q 465 985 307 985 q 664 898 593 985 q 734 660 734 812 q 613 179 734 378 q 277 -20 492 -20 q 152 3 208 -20 q 62 63 95 26 q 53 108 36 94 l 95 142 q 144 133 120 163 q 201 96 162 110 q 292 81 241 81 q 483 188 398 81 q 604 460 567 295 l 603 460 q 499 381 564 408 q 374 355 435 355 q 191 421 260 355 q 121 618 121 488 m 254 609 q 294 498 254 537 q 402 458 334 458 q 549 540 492 458 q 606 704 606 622 q 568 835 606 787 q 460 883 530 883 q 315 795 376 883 q 254 609 254 708 z "},"\u0000":{"ha":841,"x_min":133,"x_max":770,"o":"m 163 0 q 133 31 133 0 l 133 942 q 158 972 133 972 l 740 972 q 770 942 770 972 l 770 31 q 740 0 770 0 l 163 0 m 214 81 l 689 81 l 689 891 l 214 891 l 214 81 z "}," ":{"ha":463,"x_min":0,"x_max":0,"o":""},"!":{"ha":407,"x_min":54,"x_max":416,"o":"m 269 935 q 311 972 276 972 l 382 972 q 407 935 416 972 l 245 295 q 208 264 237 264 l 159 264 q 135 295 128 264 l 269 935 m 84 0 q 60 31 54 0 l 80 113 q 117 144 87 144 l 193 144 q 217 113 224 144 l 197 31 q 160 0 191 0 l 84 0 z "},"\"":{"ha":562,"x_min":165,"x_max":609,"o":"m 242 959 q 275 996 250 996 l 346 996 q 361 959 372 996 l 262 589 q 231 559 254 559 l 188 559 q 172 589 165 559 l 242 959 m 479 959 q 513 996 487 996 l 583 996 q 599 959 609 996 l 500 589 q 469 559 491 559 l 425 559 q 409 589 403 559 l 479 959 z "},"#":{"ha":943,"x_min":81,"x_max":921,"o":"m 112 254 q 85 278 81 254 l 92 312 q 126 336 96 336 l 272 336 l 323 629 l 178 629 q 152 652 148 629 l 157 686 q 193 710 161 710 l 338 710 l 378 934 q 407 964 383 964 l 449 964 q 467 934 473 964 l 428 710 l 656 710 l 695 934 q 724 964 701 964 l 766 964 q 785 934 790 964 l 745 710 l 891 710 q 917 686 921 710 l 911 652 q 876 629 907 629 l 730 629 l 679 336 l 825 336 q 851 312 855 336 l 845 278 q 810 254 841 254 l 665 254 l 625 31 q 596 0 620 0 l 554 0 q 536 31 530 0 l 575 254 l 347 254 l 308 31 q 279 0 302 0 l 237 0 q 218 31 213 0 l 258 254 l 112 254 m 361 336 l 589 336 l 641 629 l 413 629 l 361 336 z "},"$":{"ha":753,"x_min":2,"x_max":755,"o":"m 37 67 q 23 125 2 101 l 53 160 q 111 151 75 185 q 199 96 159 106 q 281 83 239 85 l 366 450 q 307 484 338 465 q 243 536 270 507 q 198 608 217 566 q 178 725 178 650 q 245 893 178 834 q 370 967 312 952 q 489 984 429 981 l 508 1065 q 538 1096 515 1096 l 572 1096 q 589 1065 596 1096 l 570 981 q 653 956 608 975 q 725 911 699 937 q 736 857 755 880 l 704 817 q 661 819 686 795 q 597 858 633 845 q 545 874 562 870 l 466 532 q 551 481 509 511 q 609 430 586 456 q 648 363 631 404 q 664 261 664 322 q 598 96 664 165 q 468 5 532 26 q 338 -20 404 -16 l 317 -112 q 287 -142 311 -142 l 253 -142 q 236 -112 229 -142 l 258 -19 q 131 6 184 -14 q 37 67 77 27 m 304 735 q 314 659 304 696 q 362 591 323 622 q 393 569 377 580 l 466 882 q 354 839 403 878 q 304 735 304 800 m 363 85 q 472 140 414 94 q 531 259 531 186 q 522 329 531 293 q 465 395 513 365 q 438 411 452 404 l 363 85 z "},"%":{"ha":1208,"x_min":82,"x_max":1109,"o":"m 82 713 q 159 925 82 827 q 336 1022 235 1022 q 471 963 433 1022 q 509 808 509 905 q 433 597 509 694 q 255 500 356 500 q 120 558 158 500 q 82 713 82 617 m 191 700 q 204 612 191 646 q 262 578 218 578 q 358 652 316 578 q 401 822 401 727 q 387 910 401 876 q 330 944 374 944 q 233 869 275 944 q 191 700 191 795 m 130 -27 q 131 11 111 -12 l 999 1025 q 1037 1034 1019 1049 l 1063 1011 q 1060 973 1080 996 l 193 -42 q 154 -50 172 -66 l 130 -27 m 682 175 q 759 386 682 289 q 937 484 836 484 q 1072 425 1034 484 q 1109 270 1109 366 q 1033 59 1109 156 q 855 -39 956 -39 q 720 20 758 -39 q 682 175 682 79 m 791 161 q 804 73 791 107 q 862 39 818 39 q 959 114 916 39 q 1001 283 1001 189 q 987 372 1001 338 q 930 406 974 406 q 833 331 876 406 q 791 161 791 256 z "},"&":{"ha":918,"x_min":48,"x_max":886,"o":"m 48 197 q 110 358 48 267 q 337 554 172 450 q 296 649 320 589 q 272 785 272 709 q 331 929 272 866 q 522 993 390 993 q 659 949 593 993 q 724 800 724 906 q 655 667 724 735 q 488 538 586 598 l 647 275 q 721 359 680 304 q 776 447 762 415 q 812 467 789 477 l 858 446 q 874 408 886 434 q 792 284 848 349 q 699 190 736 220 l 790 39 q 769 0 814 0 l 714 0 q 657 29 675 0 l 603 117 q 467 18 526 56 q 304 -20 408 -20 q 118 32 188 -20 q 48 197 48 84 m 180 208 q 213 112 180 146 q 328 78 245 78 q 444 114 390 78 q 553 199 497 150 l 387 473 q 232 340 283 411 q 180 208 180 269 m 394 775 q 407 680 394 713 q 437 618 420 647 q 564 723 526 678 q 602 810 602 768 q 578 873 602 848 q 504 899 554 899 q 427 868 459 899 q 394 775 394 838 z "},"'":{"ha":324,"x_min":165,"x_max":372,"o":"m 242 959 q 275 996 250 996 l 346 996 q 361 959 372 996 l 262 589 q 231 559 254 559 l 188 559 q 172 589 165 559 l 242 959 z "},"(":{"ha":454,"x_min":61,"x_max":572,"o":"m 61 214 q 164 613 61 409 q 484 1015 267 818 q 532 1025 513 1042 l 553 1004 q 549 965 572 987 q 330 672 466 891 q 194 194 194 454 q 215 -75 194 31 q 264 -233 236 -181 q 262 -273 280 -260 l 237 -289 q 192 -271 216 -302 q 95 -46 128 -191 q 61 214 61 99 z "},")":{"ha":454,"x_min":-111,"x_max":401,"o":"m -92 -267 q -87 -227 -111 -249 q 132 65 -4 -153 q 268 544 268 284 q 247 813 268 707 q 197 970 226 919 q 200 1010 182 998 l 225 1027 q 270 1009 245 1040 q 367 784 334 929 q 401 524 401 639 q 298 124 401 329 q -22 -277 195 -80 q -70 -287 -52 -304 l -92 -267 z "},"*":{"ha":637,"x_min":115,"x_max":692,"o":"m 335 717 l 204 780 q 193 852 155 804 l 199 859 q 277 870 237 906 l 382 776 l 401 933 q 463 993 408 993 l 471 993 q 505 933 526 993 l 450 776 l 599 870 q 672 859 655 906 l 675 852 q 630 780 692 804 l 471 717 l 602 654 q 612 583 652 631 l 607 576 q 528 564 568 528 l 423 659 l 406 501 q 343 441 398 441 l 335 441 q 301 501 280 441 l 355 659 l 207 564 q 134 576 151 528 l 131 583 q 176 654 115 631 l 335 717 z "},"+":{"ha":868,"x_min":86,"x_max":846,"o":"m 117 451 q 86 475 86 451 l 86 509 q 117 532 86 532 l 425 532 l 425 841 q 448 871 425 871 l 482 871 q 506 841 506 871 l 506 532 l 815 532 q 846 509 846 532 l 846 475 q 815 451 846 451 l 506 451 l 506 142 q 482 112 506 112 l 448 112 q 425 142 425 112 l 425 451 l 117 451 z "},",":{"ha":407,"x_min":14,"x_max":226,"o":"m 83 0 q 59 31 52 0 l 79 113 q 116 144 86 144 l 195 144 q 218 113 226 144 l 199 31 q 153 -100 178 -56 q 75 -186 127 -144 q 49 -191 57 -199 l 24 -163 q 33 -140 14 -153 q 83 -80 56 -122 q 118 0 109 -37 l 83 0 z "},"-":{"ha":461,"x_min":33,"x_max":439,"o":"m 63 328 q 38 351 33 328 l 49 399 q 85 422 54 422 l 409 422 q 434 399 439 422 l 423 351 q 387 328 418 328 l 63 328 z "},".":{"ha":407,"x_min":54,"x_max":224,"o":"m 84 0 q 60 31 54 0 l 80 113 q 117 144 87 144 l 193 144 q 217 113 224 144 l 197 31 q 160 0 191 0 l 84 0 z "},"/":{"ha":570,"x_min":-148,"x_max":722,"o":"m -127 -263 q -130 -225 -148 -253 l 632 976 q 671 995 650 1005 l 703 979 q 704 941 722 969 l -58 -260 q -96 -279 -77 -289 l -127 -263 z "},":":{"ha":407,"x_min":54,"x_max":355,"o":"m 215 568 q 191 599 184 568 l 211 682 q 248 712 218 712 l 324 712 q 348 682 355 712 l 328 599 q 291 568 321 568 l 215 568 m 84 0 q 60 31 54 0 l 80 113 q 117 144 87 144 l 193 144 q 217 113 224 144 l 197 31 q 160 0 191 0 l 84 0 z "},";":{"ha":407,"x_min":14,"x_max":355,"o":"m 215 568 q 191 599 184 568 l 211 682 q 248 712 218 712 l 324 712 q 348 682 355 712 l 328 599 q 291 568 321 568 l 215 568 m 83 0 q 59 31 52 0 l 79 113 q 116 144 86 144 l 195 144 q 218 113 226 144 l 199 31 q 153 -100 178 -56 q 75 -186 127 -144 q 49 -191 57 -199 l 24 -163 q 33 -140 14 -153 q 83 -80 56 -122 q 118 0 109 -37 l 83 0 z "},"<":{"ha":868,"x_min":103,"x_max":833,"o":"m 120 465 q 103 488 103 474 l 103 509 q 120 532 103 523 l 766 905 q 804 900 792 921 l 821 871 q 806 835 833 850 l 224 499 l 224 498 l 806 162 q 821 126 833 146 l 804 97 q 766 92 792 76 l 120 465 z "},"=":{"ha":868,"x_min":86,"x_max":846,"o":"m 117 336 q 86 359 86 336 l 86 393 q 117 417 86 417 l 815 417 q 846 393 846 417 l 846 359 q 815 336 846 336 l 117 336 m 117 566 q 86 590 86 566 l 86 624 q 117 648 86 648 l 815 648 q 846 624 846 648 l 846 590 q 815 566 846 566 l 117 566 z "},">":{"ha":868,"x_min":98,"x_max":829,"o":"m 111 126 q 125 162 98 146 l 708 498 l 708 499 l 125 835 q 111 871 98 850 l 127 900 q 166 905 140 921 l 812 532 q 829 509 829 523 l 829 488 q 812 465 829 474 l 166 92 q 127 97 140 76 l 111 126 z "},"?":{"ha":689,"x_min":147,"x_max":710,"o":"m 170 793 q 173 852 147 806 q 273 947 201 901 q 454 993 344 993 q 649 938 589 993 q 710 768 710 883 q 553 521 710 661 q 378 297 397 381 l 375 281 q 337 251 368 251 l 279 251 q 256 281 249 251 l 261 307 q 432 560 287 426 q 577 776 577 694 q 541 867 577 842 q 450 891 505 891 q 337 857 391 891 q 264 786 283 822 q 218 766 246 751 l 170 793 m 212 0 q 188 31 181 0 l 208 113 q 245 144 214 144 l 321 144 q 345 113 351 144 l 325 31 q 288 0 318 0 l 212 0 z "},"@":{"ha":1351,"x_min":81,"x_max":1270,"o":"m 81 374 q 258 815 81 632 q 719 999 434 999 q 1098 878 926 999 q 1270 486 1270 757 q 1174 181 1270 286 q 922 75 1078 75 q 810 114 834 75 q 785 225 785 153 l 784 225 q 696 120 758 165 q 572 75 633 75 q 426 140 481 75 q 370 317 370 205 q 459 582 370 456 q 682 707 549 707 q 842 587 812 707 l 844 587 l 860 659 q 888 682 865 682 l 963 682 q 981 659 987 682 l 892 258 q 895 174 878 191 q 943 157 913 157 q 1115 232 1042 157 q 1187 486 1187 308 q 1055 805 1187 692 q 720 918 924 918 q 326 769 488 918 q 164 363 164 621 q 319 -3 164 138 q 692 -144 474 -144 q 897 -107 793 -144 q 1089 2 1000 -70 q 1118 2 1107 17 l 1145 -35 q 1138 -63 1156 -51 q 919 -183 1027 -141 q 686 -225 811 -225 q 262 -64 442 -225 q 81 374 81 98 m 486 303 q 516 188 486 220 q 600 157 547 157 q 728 253 669 157 q 798 395 787 350 q 808 493 808 438 q 781 583 808 540 q 699 627 753 627 q 547 529 608 627 q 486 303 486 431 z "},"A":{"ha":922,"x_min":-66,"x_max":827,"o":"m -32 0 q -40 45 -66 0 l 482 931 q 536 972 507 972 l 631 972 q 667 931 659 972 l 820 45 q 791 0 827 0 l 730 0 q 688 33 694 0 l 650 258 l 233 258 l 100 33 q 44 0 81 0 l -32 0 m 299 369 l 630 369 l 583 640 q 568 747 574 689 q 563 855 563 805 l 560 855 q 522 757 548 807 q 458 640 496 707 l 299 369 z "},"B":{"ha":907,"x_min":34,"x_max":872,"o":"m 68 0 q 43 37 34 0 l 250 935 q 292 972 258 972 l 543 972 q 800 904 728 972 q 872 735 872 836 q 807 585 872 641 q 646 509 743 529 l 646 507 q 771 438 716 492 q 825 292 825 385 q 723 90 825 179 q 387 0 621 0 l 68 0 m 190 111 l 391 111 q 610 159 533 111 q 686 298 686 208 q 617 415 686 380 q 428 450 547 450 l 268 450 l 190 111 m 291 548 l 475 548 q 655 600 571 548 q 740 730 740 651 q 690 830 740 800 q 519 861 641 861 l 363 861 l 291 548 z "},"C":{"ha":944,"x_min":75,"x_max":943,"o":"m 75 393 q 217 827 75 661 q 616 993 360 993 q 818 949 741 993 q 927 834 895 906 q 911 780 943 798 l 859 749 q 823 768 840 738 q 749 846 803 804 q 604 887 696 887 q 324 763 435 887 q 214 378 214 639 q 279 170 214 254 q 500 85 344 85 q 656 134 592 85 q 755 231 720 182 q 808 255 784 271 l 869 216 q 864 161 892 201 q 720 32 810 83 q 481 -20 629 -20 q 176 97 277 -20 q 75 393 75 214 z "},"D":{"ha":954,"x_min":34,"x_max":939,"o":"m 68 0 q 43 37 34 0 l 250 935 q 292 972 258 972 l 509 972 q 845 854 751 972 q 939 575 939 735 q 796 172 939 345 q 352 0 654 0 l 68 0 m 190 111 l 372 111 q 698 255 597 111 q 800 583 800 399 q 744 781 800 700 q 477 863 689 863 l 363 863 l 190 111 z "},"E":{"ha":861,"x_min":34,"x_max":923,"o":"m 68 0 q 43 37 34 0 l 250 935 q 292 972 258 972 l 886 972 q 916 942 923 972 l 905 892 q 860 861 897 861 l 363 861 l 294 560 l 750 560 q 780 530 787 560 l 768 479 q 724 449 762 449 l 268 449 l 190 111 l 707 111 q 737 81 745 111 l 726 31 q 682 0 719 0 l 68 0 z "},"F":{"ha":791,"x_min":34,"x_max":882,"o":"m 68 0 q 43 37 34 0 l 250 935 q 292 972 258 972 l 845 972 q 876 942 882 972 l 864 892 q 819 861 857 861 l 363 861 l 289 540 l 687 540 q 717 509 724 540 l 705 459 q 661 429 699 429 l 263 429 l 173 37 q 130 0 164 0 l 68 0 z "},"G":{"ha":997,"x_min":75,"x_max":967,"o":"m 75 393 q 217 827 75 661 q 621 993 360 993 q 830 948 753 993 q 937 846 907 903 q 924 791 955 812 l 873 758 q 837 774 854 745 q 763 845 820 804 q 610 887 706 887 q 325 763 435 887 q 214 378 214 639 q 279 170 214 254 q 500 85 344 85 q 663 113 588 85 q 772 178 737 140 l 811 346 l 610 346 q 579 376 572 346 l 591 427 q 635 457 598 457 l 930 457 q 960 427 967 457 l 886 106 q 703 7 789 35 q 481 -20 616 -20 q 176 97 277 -20 q 75 393 75 214 z "},"H":{"ha":964,"x_min":34,"x_max":992,"o":"m 68 0 q 43 37 34 0 l 250 935 q 292 972 258 972 l 355 972 q 380 935 389 972 l 294 562 l 767 562 l 853 935 q 896 972 862 972 l 958 972 q 983 935 992 972 l 777 37 q 734 0 768 0 l 671 0 q 646 37 637 0 l 741 450 l 268 450 l 173 37 q 130 0 164 0 l 68 0 z "},"I":{"ha":361,"x_min":34,"x_max":389,"o":"m 68 0 q 43 37 34 0 l 250 935 q 292 972 258 972 l 355 972 q 380 935 389 972 l 173 37 q 130 0 164 0 l 68 0 z "},"J":{"ha":559,"x_min":-49,"x_max":587,"o":"m -25 20 q -34 64 -49 34 l -9 112 q 42 121 8 147 q 132 85 90 85 q 235 130 197 85 q 291 256 272 174 l 448 935 q 490 972 456 972 l 553 972 q 578 935 587 972 l 425 272 q 336 66 398 153 q 119 -20 273 -20 q -25 20 40 -20 z "},"K":{"ha":901,"x_min":34,"x_max":1029,"o":"m 68 0 q 43 37 34 0 l 250 935 q 292 972 258 972 l 355 972 q 380 935 389 972 l 292 552 q 277 498 288 537 l 280 498 l 822 946 q 876 972 854 972 l 972 972 q 975 928 1029 972 l 549 576 l 789 45 q 766 0 809 0 l 694 0 q 652 26 665 0 l 444 490 l 238 319 l 173 37 q 130 0 164 0 l 68 0 z "},"L":{"ha":770,"x_min":34,"x_max":677,"o":"m 68 0 q 43 37 34 0 l 250 935 q 292 972 258 972 l 355 972 q 380 935 389 972 l 190 111 l 640 111 q 669 81 677 111 l 658 31 q 614 0 651 0 l 68 0 z "},"M":{"ha":1158,"x_min":34,"x_max":1186,"o":"m 68 0 q 43 37 34 0 l 250 935 q 292 972 258 972 l 429 972 q 458 932 454 972 l 511 323 q 518 224 516 268 q 520 140 520 180 l 524 140 q 564 224 543 182 q 617 323 586 267 l 951 932 q 1000 972 974 972 l 1152 972 q 1177 935 1186 972 l 970 37 q 928 0 962 0 l 865 0 q 840 37 831 0 l 1004 749 q 1018 803 1011 779 l 1015 803 l 589 41 q 535 0 566 0 l 460 0 q 425 41 429 0 l 351 803 l 348 803 q 337 749 342 773 l 173 37 q 130 0 164 0 l 68 0 z "},"N":{"ha":975,"x_min":34,"x_max":1003,"o":"m 68 0 q 43 37 34 0 l 250 935 q 292 972 258 972 l 374 972 q 435 939 422 972 l 698 220 l 701 220 q 712 274 707 251 l 864 935 q 907 972 873 972 l 969 972 q 994 935 1003 972 l 787 37 q 745 0 779 0 l 689 0 q 629 34 642 0 l 349 797 l 347 797 q 336 743 341 767 l 173 37 q 130 0 164 0 l 68 0 z "},"O":{"ha":1027,"x_min":75,"x_max":1014,"o":"m 75 393 q 220 829 75 665 q 595 993 365 993 q 908 883 802 993 q 1014 579 1014 772 q 869 144 1014 308 q 493 -20 724 -20 q 180 90 286 -20 q 75 393 75 200 m 214 377 q 286 162 214 238 q 500 85 358 85 q 762 210 650 85 q 875 595 875 334 q 803 811 875 734 q 588 887 730 887 q 326 763 439 887 q 214 377 214 638 z "},"P":{"ha":880,"x_min":34,"x_max":894,"o":"m 68 0 q 43 37 34 0 l 250 935 q 292 972 258 972 l 570 972 q 811 901 729 972 q 894 709 894 830 q 795 488 894 586 q 456 391 696 391 l 254 391 l 173 37 q 130 0 164 0 l 68 0 m 280 502 l 491 502 q 696 555 631 502 q 762 695 762 608 q 711 824 762 787 q 547 861 660 861 l 363 861 l 280 502 z "},"Q":{"ha":1027,"x_min":75,"x_max":1014,"o":"m 75 393 q 220 829 75 665 q 595 993 365 993 q 908 883 802 993 q 1014 579 1014 772 q 869 144 1014 308 q 554 -18 743 2 q 590 -131 555 -101 q 703 -161 625 -161 q 781 -152 737 -161 q 810 -162 808 -147 l 819 -223 q 800 -242 821 -239 q 681 -256 717 -256 q 483 -198 542 -256 q 424 -17 424 -141 q 180 90 268 -1 q 75 393 75 200 m 214 377 q 286 162 214 238 q 500 85 358 85 q 762 210 650 85 q 875 595 875 334 q 803 811 875 734 q 588 887 730 887 q 326 763 439 887 q 214 377 214 638 z "},"R":{"ha":939,"x_min":34,"x_max":917,"o":"m 68 0 q 43 37 34 0 l 250 935 q 292 972 258 972 l 600 972 q 844 899 770 972 q 917 716 917 826 q 824 530 917 604 q 597 446 730 456 l 597 444 q 671 364 654 393 q 702 294 687 335 l 791 45 q 768 0 807 0 l 705 0 q 664 26 673 0 l 585 269 q 520 370 569 319 q 379 421 472 421 l 261 421 l 173 37 q 130 0 164 0 l 68 0 m 287 532 l 496 532 q 702 574 618 532 q 785 704 785 616 q 724 831 785 802 q 564 861 663 861 l 363 861 l 287 532 z "},"S":{"ha":825,"x_min":23,"x_max":816,"o":"m 57 76 q 43 134 23 109 l 82 182 q 140 173 103 208 q 236 109 184 132 q 368 85 288 85 q 482 105 435 85 q 565 161 529 124 q 602 253 602 198 q 593 313 602 282 q 558 368 585 345 q 498 405 531 392 q 419 434 461 420 q 326 473 377 448 q 251 528 282 495 q 201 608 220 562 q 183 706 183 654 q 244 876 183 802 q 380 971 305 950 q 520 993 456 993 q 671 970 610 993 q 783 909 732 948 q 794 855 816 884 l 755 804 q 708 810 739 784 q 628 854 684 830 q 512 878 572 878 q 429 865 473 878 q 349 812 384 852 q 313 715 313 772 q 321 658 313 686 q 352 610 330 631 q 399 578 374 590 q 480 545 438 559 q 555 518 522 532 q 655 462 610 496 q 720 375 700 427 q 739 275 739 322 q 688 115 739 179 q 561 15 636 50 q 357 -20 486 -20 q 173 7 245 -20 q 57 76 100 34 z "},"T":{"ha":841,"x_min":140,"x_max":960,"o":"m 178 856 q 148 886 140 856 l 161 942 q 205 972 168 972 l 922 972 q 953 942 960 972 l 940 886 q 895 856 932 856 l 602 856 l 413 37 q 370 0 404 0 l 308 0 q 283 37 274 0 l 471 856 l 178 856 z "},"U":{"ha":951,"x_min":70,"x_max":979,"o":"m 119 371 l 250 935 q 292 972 258 972 l 355 972 q 380 935 389 972 l 254 391 q 251 143 211 201 q 414 85 291 85 q 592 143 513 85 q 714 391 671 201 l 840 935 q 882 972 848 972 l 945 972 q 970 935 979 972 l 840 371 q 681 68 790 156 q 389 -20 572 -20 q 162 68 254 -20 q 119 371 70 156 z "},"V":{"ha":907,"x_min":158,"x_max":1036,"o":"m 164 928 q 193 972 158 972 l 254 972 q 295 939 291 972 l 375 332 q 385 226 380 292 q 390 117 390 159 l 393 117 q 448 229 410 160 q 507 332 486 297 l 867 939 q 924 972 887 972 l 1001 972 q 1009 928 1036 972 l 474 41 q 420 0 449 0 l 325 0 q 290 41 296 0 l 164 928 z "},"W":{"ha":1280,"x_min":161,"x_max":1398,"o":"m 163 932 q 190 972 161 972 l 262 972 q 284 941 283 972 l 300 290 q 299 210 300 248 q 298 117 298 172 l 301 117 q 335 197 317 157 q 377 289 353 236 l 675 936 q 726 972 692 972 l 818 972 q 853 936 852 972 l 865 289 q 865 211 866 256 q 865 117 865 165 l 868 117 q 911 208 886 158 q 949 290 935 258 l 1244 941 q 1280 972 1258 972 l 1370 972 q 1378 932 1398 972 l 949 52 q 886 0 923 0 l 802 0 q 766 57 768 0 l 749 707 q 749 787 747 759 q 751 854 751 815 l 749 854 q 724 784 735 812 q 691 707 713 755 l 384 57 q 323 0 357 0 l 238 0 q 200 52 202 0 l 163 932 z "},"X":{"ha":880,"x_min":-72,"x_max":989,"o":"m -28 0 q -31 45 -72 0 l 402 510 l 199 928 q 222 972 178 972 l 288 972 q 330 946 317 972 l 489 592 l 798 946 q 852 972 821 972 l 945 972 q 947 928 989 972 l 547 493 l 768 45 q 745 0 790 0 l 674 0 q 633 26 644 0 l 460 412 l 123 26 q 70 0 100 0 l -28 0 z "},"Y":{"ha":883,"x_min":151,"x_max":1019,"o":"m 170 928 q 198 972 151 972 l 261 972 q 302 939 291 972 l 408 643 q 434 569 418 616 q 459 481 450 522 l 462 481 q 518 557 490 522 q 587 643 545 592 l 830 939 q 886 972 857 972 l 971 972 q 979 928 1019 972 l 517 400 l 434 37 q 391 0 425 0 l 329 0 q 304 37 295 0 l 387 400 l 170 928 z "},"Z":{"ha":825,"x_min":-37,"x_max":909,"o":"m 0 0 q -31 31 -37 0 l -23 63 q 12 123 -16 94 l 696 860 l 697 863 q 642 861 669 861 l 220 861 q 191 892 184 861 l 202 942 q 246 972 209 972 l 871 972 q 902 942 909 972 l 897 921 q 873 880 892 901 l 172 113 l 172 110 q 227 111 191 111 l 688 111 q 718 81 724 111 l 706 31 q 662 0 699 0 l 0 0 z "},"[":{"ha":446,"x_min":-30,"x_max":551,"o":"m 1 -277 q -23 -246 -30 -277 l 261 984 q 298 1015 268 1015 l 521 1015 q 546 991 551 1015 l 536 950 q 500 926 531 926 l 367 926 l 110 -189 l 243 -189 q 269 -212 274 -189 l 259 -253 q 223 -277 254 -277 l 1 -277 z "},"\\":{"ha":570,"x_min":92,"x_max":503,"o":"m 100 945 q 115 983 92 977 l 147 991 q 179 972 172 997 l 495 -229 q 478 -267 503 -260 l 447 -275 q 416 -256 423 -281 l 100 945 z "},"]":{"ha":446,"x_min":-98,"x_max":483,"o":"m -68 -277 q -93 -253 -98 -277 l -83 -212 q -47 -189 -78 -189 l 86 -189 l 343 926 l 210 926 q 184 950 179 926 l 194 991 q 230 1015 199 1015 l 452 1015 q 476 984 483 1015 l 192 -246 q 155 -277 185 -277 l -68 -277 z "},"^":{"ha":587,"x_min":109,"x_max":613,"o":"m 128 626 q 124 664 109 639 l 302 949 q 347 972 317 972 l 375 972 q 419 949 405 972 l 597 664 q 593 626 613 639 l 560 604 q 524 618 541 591 l 361 875 l 360 875 l 198 618 q 161 604 181 591 l 128 626 z "},"_":{"ha":746,"x_min":-149,"x_max":630,"o":"m -118 -264 q -149 -241 -149 -264 l -149 -200 q -118 -176 -149 -176 l 600 -176 q 630 -200 630 -176 l 630 -241 q 600 -264 630 -264 l -118 -264 z "},"`":{"ha":416,"x_min":224,"x_max":481,"o":"m 250 938 q 265 973 224 973 l 334 973 q 385 948 370 973 l 460 816 q 448 780 481 780 l 404 780 q 352 800 366 780 l 250 938 z "},"a":{"ha":745,"x_min":45,"x_max":732,"o":"m 45 230 q 171 570 45 416 q 437 724 298 724 q 537 698 498 724 q 595 639 576 673 l 597 639 l 611 682 q 644 712 621 712 l 701 712 q 725 682 732 712 l 574 31 q 537 0 568 0 l 482 0 q 458 31 452 0 l 475 112 l 474 112 q 386 28 441 68 q 262 -12 330 -12 q 104 48 164 -12 q 45 230 45 107 m 171 225 q 195 129 171 180 q 294 77 219 77 q 429 157 355 77 q 523 326 503 238 l 568 522 q 529 609 568 583 q 433 635 490 635 q 254 514 338 635 q 171 225 171 392 z "},"b":{"ha":759,"x_min":15,"x_max":713,"o":"m 45 0 q 22 31 15 0 l 239 970 q 276 1001 245 1001 l 334 1001 q 358 970 365 1001 l 282 642 q 271 600 277 622 l 273 600 q 366 689 302 654 q 483 724 429 724 q 662 645 612 724 q 713 455 713 566 q 604 135 713 282 q 347 -12 494 -12 q 229 11 271 -12 q 153 80 187 34 l 151 80 l 136 31 q 102 0 126 0 l 45 0 m 180 197 q 224 103 186 129 q 337 77 261 77 q 513 192 440 77 q 587 460 587 307 q 556 583 587 530 q 449 635 526 635 q 314 556 382 635 q 224 387 245 476 l 180 197 z "},"c":{"ha":696,"x_min":46,"x_max":683,"o":"m 46 273 q 157 588 46 452 q 448 724 268 724 q 604 685 557 724 q 672 601 651 647 q 663 566 683 576 l 618 542 q 582 559 595 530 q 538 608 572 581 q 439 635 505 635 q 253 541 333 635 q 172 262 172 446 q 212 128 172 180 q 340 77 252 77 q 454 113 410 77 q 518 178 499 149 q 554 187 534 201 l 597 156 q 600 119 616 142 q 514 40 581 92 q 331 -12 448 -12 q 109 79 172 -12 q 46 273 46 170 z "},"d":{"ha":759,"x_min":47,"x_max":812,"o":"m 47 257 q 157 577 47 430 q 414 724 266 724 q 531 701 489 724 q 608 632 573 678 l 609 632 q 617 673 611 648 l 686 970 q 723 1001 692 1001 l 781 1001 q 805 970 812 1001 l 588 31 q 551 0 581 0 l 494 0 q 474 31 469 0 l 489 112 l 488 112 q 395 23 458 58 q 277 -12 332 -12 q 98 67 149 -12 q 47 257 47 146 m 174 252 q 204 129 174 182 q 311 77 235 77 q 447 156 378 77 q 536 326 515 236 l 581 515 q 536 609 574 583 q 423 635 499 635 q 247 520 320 635 q 174 252 174 406 z "},"e":{"ha":731,"x_min":46,"x_max":677,"o":"m 46 269 q 152 598 46 472 q 442 724 258 724 q 612 664 547 724 q 677 528 677 604 q 581 380 677 427 q 343 304 485 332 l 176 271 q 172 243 172 245 q 209 127 172 176 q 337 77 245 77 q 463 106 415 77 q 527 157 510 134 q 570 172 551 189 l 610 137 q 606 99 623 125 q 522 32 590 75 q 321 -12 453 -12 q 111 72 176 -12 q 46 269 46 156 m 180 365 l 319 392 q 486 443 414 410 q 557 533 557 475 q 516 607 557 579 q 420 635 474 635 q 274 573 338 635 q 180 365 210 511 z "},"f":{"ha":442,"x_min":-10,"x_max":638,"o":"m 123 623 q 98 646 93 623 l 108 688 q 144 712 113 712 l 216 712 l 240 813 q 337 969 266 926 q 487 1013 408 1013 q 561 1008 534 1013 q 625 987 589 1003 q 629 965 638 981 l 595 911 q 570 906 587 898 q 536 919 557 913 q 491 924 516 924 q 404 897 435 924 q 355 793 372 870 l 336 712 l 460 712 q 485 688 490 712 l 475 646 q 439 623 470 623 l 315 623 l 116 -241 q 79 -271 109 -271 l 20 -271 q -3 -241 -10 -271 l 196 623 l 123 623 z "},"g":{"ha":759,"x_min":-25,"x_max":745,"o":"m 47 257 q 157 577 47 430 q 414 724 266 724 q 531 701 489 724 q 608 632 573 678 l 609 632 l 625 682 q 658 712 634 712 l 715 712 q 739 682 745 712 l 580 -5 q 471 -214 548 -144 q 219 -283 395 -283 q 69 -261 127 -283 q -11 -202 11 -239 q -8 -161 -25 -178 l 26 -129 q 64 -134 43 -112 q 129 -178 90 -161 q 240 -195 168 -195 q 381 -149 324 -195 q 464 7 439 -103 l 478 71 q 489 112 482 89 l 488 112 q 395 23 458 58 q 277 -12 332 -12 q 98 67 149 -12 q 47 257 47 146 m 174 252 q 204 129 174 182 q 311 77 235 77 q 447 156 378 77 q 536 326 515 236 l 581 515 q 536 609 574 583 q 423 635 499 635 q 247 520 320 635 q 174 252 174 406 z "},"h":{"ha":765,"x_min":15,"x_max":724,"o":"m 45 0 q 22 31 15 0 l 239 970 q 277 1001 245 1001 l 335 1001 q 358 970 365 1001 l 282 641 q 272 600 278 622 l 275 600 q 379 687 315 650 q 524 724 443 724 q 682 654 640 724 q 696 464 724 585 l 595 31 q 558 0 589 0 l 500 0 q 476 31 469 0 l 569 431 q 567 600 600 564 q 460 635 534 635 q 312 556 378 635 q 221 376 245 477 l 141 31 q 104 0 134 0 l 45 0 z "},"i":{"ha":312,"x_min":15,"x_max":356,"o":"m 45 0 q 22 31 15 0 l 172 682 q 210 712 179 712 l 268 712 q 292 682 298 712 l 141 31 q 104 0 134 0 l 45 0 m 239 841 q 216 871 209 841 l 230 930 q 267 960 237 960 l 326 960 q 349 930 356 960 l 336 871 q 298 841 328 841 l 239 841 z "},"j":{"ha":316,"x_min":-208,"x_max":360,"o":"m -197 -269 q -203 -248 -208 -263 l -186 -193 q -167 -182 -181 -175 q -105 -195 -143 -195 q -37 -156 -65 -195 q 20 4 -8 -117 l 176 682 q 214 712 183 712 l 272 712 q 296 682 302 712 l 124 -63 q 32 -239 94 -195 q -104 -283 -30 -283 q -197 -269 -171 -283 m 243 841 q 220 871 213 841 l 234 930 q 271 960 241 960 l 330 960 q 353 930 360 960 l 340 871 q 302 841 332 841 l 243 841 z "},"k":{"ha":680,"x_min":15,"x_max":730,"o":"m 45 0 q 22 31 15 0 l 239 970 q 277 1001 245 1001 l 335 1001 q 358 970 365 1001 l 230 414 q 219 374 225 395 l 220 374 l 563 694 q 603 712 582 712 l 678 712 q 687 672 730 712 l 410 414 l 564 40 q 537 0 581 0 l 482 0 q 450 25 460 0 l 323 333 l 180 199 l 141 31 q 104 0 134 0 l 45 0 z "},"l":{"ha":312,"x_min":15,"x_max":368,"o":"m 45 0 q 22 31 15 0 l 218 877 q 230 903 220 890 l 298 989 q 324 1013 316 1013 l 348 1013 q 363 989 368 1013 l 141 31 q 104 0 134 0 l 45 0 z "},"m":{"ha":1138,"x_min":15,"x_max":1097,"o":"m 45 0 q 22 31 15 0 l 172 682 q 210 712 179 712 l 267 712 q 290 682 297 712 l 272 600 l 275 600 q 375 686 315 649 q 497 724 436 724 q 614 676 572 724 q 656 565 656 629 l 659 565 q 767 672 702 621 q 911 724 833 724 q 1051 654 1006 724 q 1069 464 1097 585 l 968 31 q 931 0 962 0 l 873 0 q 849 31 842 0 l 941 425 q 949 596 971 557 q 853 635 928 635 q 725 554 792 635 q 635 376 657 472 l 555 31 q 517 0 548 0 l 459 0 q 435 31 429 0 l 527 425 q 536 596 557 557 q 439 635 514 635 q 312 556 378 635 q 221 376 245 477 l 141 31 q 104 0 134 0 l 45 0 z "},"n":{"ha":765,"x_min":15,"x_max":724,"o":"m 45 0 q 22 31 15 0 l 172 682 q 210 712 179 712 l 267 712 q 290 682 297 712 l 272 600 l 275 600 q 379 687 315 650 q 524 724 443 724 q 682 654 640 724 q 696 464 724 585 l 595 31 q 558 0 589 0 l 500 0 q 476 31 469 0 l 569 431 q 567 600 600 564 q 460 635 534 635 q 312 556 378 635 q 221 376 245 477 l 141 31 q 104 0 134 0 l 45 0 z "},"o":{"ha":779,"x_min":46,"x_max":732,"o":"m 46 273 q 157 588 46 452 q 448 724 268 724 q 669 632 606 724 q 732 439 732 541 q 622 124 732 260 q 331 -12 511 -12 q 109 80 172 -12 q 46 273 46 171 m 172 262 q 212 127 172 178 q 340 77 252 77 q 526 173 446 77 q 606 450 606 269 q 567 585 606 534 q 439 635 527 635 q 253 539 333 635 q 172 262 172 444 z "},"p":{"ha":759,"x_min":-47,"x_max":713,"o":"m -17 -271 q -41 -241 -47 -271 l 172 682 q 210 712 179 712 l 267 712 q 286 682 292 712 l 271 600 l 273 600 q 366 689 302 654 q 483 724 429 724 q 662 645 612 724 q 713 455 713 566 q 604 135 713 282 q 347 -12 494 -12 q 229 11 271 -12 q 153 80 187 34 l 151 80 q 143 39 149 61 l 79 -241 q 41 -271 72 -271 l -17 -271 m 180 197 q 224 103 186 129 q 337 77 261 77 q 513 192 440 77 q 587 460 587 307 q 556 583 587 530 q 449 635 526 635 q 314 556 382 635 q 224 387 245 476 l 180 197 z "},"q":{"ha":759,"x_min":47,"x_max":745,"o":"m 47 257 q 157 577 47 430 q 414 724 266 724 q 531 701 489 724 q 608 632 573 678 l 609 632 l 625 682 q 658 712 634 712 l 715 712 q 739 682 745 712 l 526 -241 q 488 -271 519 -271 l 430 -271 q 406 -241 399 -271 l 478 71 q 489 112 484 96 l 488 112 q 395 23 458 58 q 277 -12 332 -12 q 98 67 149 -12 q 47 257 47 146 m 174 252 q 204 129 174 182 q 311 77 235 77 q 447 156 378 77 q 536 326 515 236 l 581 515 q 536 609 574 583 q 423 635 499 635 q 247 520 320 635 q 174 252 174 406 z "},"r":{"ha":490,"x_min":15,"x_max":558,"o":"m 45 0 q 22 31 15 0 l 172 682 q 210 712 179 712 l 267 712 q 290 682 297 712 l 265 573 l 268 573 q 368 687 317 650 q 489 724 419 724 q 545 716 529 724 q 552 696 558 711 l 530 640 q 510 631 525 628 q 463 635 487 635 q 313 539 389 635 q 214 342 237 444 l 141 31 q 104 0 134 0 l 45 0 z "},"s":{"ha":635,"x_min":-1,"x_max":605,"o":"m 19 69 q 14 106 -1 90 l 47 146 q 92 140 62 163 q 175 94 130 111 q 268 77 219 77 q 341 86 304 77 q 401 125 377 96 q 425 184 425 155 q 416 233 425 213 q 387 268 408 254 q 345 290 366 282 q 279 316 316 301 q 210 346 242 331 q 155 389 179 361 q 119 449 130 416 q 107 519 107 482 q 141 628 107 575 q 239 703 175 682 q 378 724 303 724 q 496 705 444 724 q 585 656 548 686 q 587 619 605 639 l 553 581 q 510 589 541 567 q 448 620 483 608 q 375 632 412 632 q 306 623 342 632 q 248 589 270 613 q 227 530 227 564 q 233 486 227 506 q 257 451 240 465 q 294 429 275 437 q 362 401 330 412 q 422 377 395 389 q 500 330 470 357 q 540 269 530 302 q 551 197 551 236 q 504 73 551 122 q 396 6 456 23 q 258 -12 336 -12 q 103 15 161 -12 q 19 69 45 42 z "},"t":{"ha":513,"x_min":81,"x_max":519,"o":"m 124 623 q 99 646 94 623 l 109 688 q 144 712 114 712 l 224 712 l 239 773 q 252 799 242 786 l 319 885 q 345 909 337 909 l 369 909 q 384 885 389 909 l 344 712 l 488 712 q 513 688 519 712 l 504 646 q 468 623 498 623 l 323 623 l 224 191 q 224 98 208 119 q 264 77 241 77 q 329 89 296 77 q 374 108 362 100 q 393 104 389 117 l 411 55 q 404 35 415 43 q 322 3 376 18 q 209 -12 269 -12 q 115 39 149 -12 q 102 183 81 90 l 204 623 l 124 623 z "},"u":{"ha":760,"x_min":43,"x_max":746,"o":"m 71 248 l 171 682 q 208 712 178 712 l 267 712 q 290 682 297 712 l 198 281 q 200 112 168 147 q 304 77 233 77 q 460 156 404 77 q 540 336 516 235 l 620 682 q 657 712 627 712 l 715 712 q 739 682 746 712 l 589 31 q 551 0 582 0 l 494 0 q 471 31 464 0 l 490 112 l 487 112 q 382 25 447 62 q 239 -12 317 -12 q 87 58 131 -12 q 71 248 43 127 z "},"v":{"ha":669,"x_min":102,"x_max":732,"o":"m 106 679 q 132 712 102 712 l 199 712 q 223 686 220 712 l 264 238 q 269 176 267 211 q 271 111 271 142 l 273 111 q 297 162 286 142 q 338 238 308 183 l 585 686 q 622 712 600 712 l 703 712 q 713 679 732 712 l 344 41 q 298 0 320 0 l 208 0 q 181 41 186 0 l 106 679 z "},"w":{"ha":979,"x_min":104,"x_max":1040,"o":"m 106 679 q 132 712 104 712 l 197 712 q 222 686 222 712 l 220 238 q 219 172 220 208 q 218 115 218 136 l 221 115 q 247 174 229 134 q 277 238 265 214 l 500 686 q 536 712 513 712 l 597 712 q 622 686 621 712 l 638 238 q 638 181 639 214 q 637 115 637 148 l 640 115 q 668 176 649 134 q 697 238 688 218 l 900 686 q 937 712 912 712 l 1013 712 q 1024 679 1040 712 l 709 41 q 663 0 688 0 l 581 0 q 554 41 555 0 l 543 490 q 543 552 542 529 q 546 592 544 575 l 545 592 q 527 547 538 575 q 500 490 515 519 l 281 41 q 235 0 261 0 l 154 0 q 127 41 128 0 l 106 679 z "},"x":{"ha":656,"x_min":-74,"x_max":700,"o":"m -30 0 q -38 40 -74 0 l 269 383 l 138 672 q 164 712 119 712 l 214 712 q 246 694 239 712 l 347 458 l 541 694 q 581 712 555 712 l 655 712 q 664 672 700 712 l 393 368 l 543 40 q 515 0 561 0 l 463 0 q 431 18 438 0 l 315 292 l 86 18 q 46 0 71 0 l -30 0 z "},"y":{"ha":765,"x_min":-20,"x_max":753,"o":"m 72 248 l 172 682 q 210 712 179 712 l 268 712 q 292 682 298 712 l 199 281 q 201 112 169 147 q 308 77 233 77 q 451 154 380 77 q 547 336 523 231 l 627 682 q 664 712 633 712 l 722 712 q 746 682 753 712 l 587 -6 q 480 -214 555 -145 q 227 -283 405 -283 q 66 -260 111 -283 q 0 -208 22 -238 q 1 -161 -20 -180 l 39 -126 q 73 -126 61 -106 q 132 -177 94 -159 q 248 -195 171 -195 q 388 -148 330 -195 q 471 7 446 -102 q 496 112 486 76 l 493 112 q 391 25 453 62 q 243 -12 330 -12 q 86 58 128 -12 q 72 248 44 127 z "},"z":{"ha":644,"x_min":-44,"x_max":673,"o":"m -14 0 q -39 24 -44 0 l -31 58 q 5 113 -25 81 l 505 623 l 505 624 q 465 623 485 623 l 146 623 q 121 646 116 623 l 131 688 q 167 712 136 712 l 643 712 q 668 688 673 712 l 661 656 q 623 604 656 637 l 121 90 l 121 88 q 162 90 142 90 l 515 90 q 541 66 546 90 l 531 24 q 495 0 526 0 l -14 0 z "},"{":{"ha":526,"x_min":55,"x_max":631,"o":"m 79 325 q 62 355 55 325 l 68 382 q 99 413 75 413 q 207 457 142 413 q 302 631 271 500 l 338 791 q 406 960 365 906 q 601 1015 448 1015 q 626 991 631 1015 l 616 950 q 581 926 611 926 q 495 898 514 926 q 462 806 477 870 l 416 612 q 311 414 380 454 q 193 370 241 374 l 193 368 q 287 295 243 355 q 304 125 330 234 l 260 -68 q 251 -161 245 -133 q 323 -189 257 -189 q 349 -212 354 -189 l 339 -253 q 303 -277 334 -277 q 152 -210 181 -277 q 144 -53 123 -142 l 180 106 q 174 275 208 226 q 79 325 140 325 z "},"|":{"ha":400,"x_min":157,"x_max":245,"o":"m 181 -298 q 157 -268 157 -298 l 157 984 q 181 1015 157 1015 l 222 1015 q 245 984 245 1015 l 245 -268 q 222 -298 245 -298 l 181 -298 z "},"}":{"ha":526,"x_min":-98,"x_max":479,"o":"m -67 -277 q -92 -253 -98 -277 l -83 -212 q -47 -189 -77 -189 q 38 -160 20 -189 q 72 -68 57 -132 l 117 125 q 223 324 154 284 q 340 368 292 364 l 341 370 q 247 443 290 382 q 229 612 204 504 l 274 806 q 283 899 289 871 q 210 926 277 926 q 185 950 180 926 l 195 991 q 231 1015 200 1015 q 381 947 353 1015 q 390 791 410 880 l 353 631 q 360 463 326 512 q 455 413 394 413 q 472 382 479 413 l 466 355 q 435 325 458 325 q 327 281 391 325 q 232 106 262 237 l 195 -53 q 127 -222 169 -168 q -67 -277 86 -277 z "},"~":{"ha":868,"x_min":84,"x_max":848,"o":"m 100 426 q 92 455 84 431 q 170 573 115 530 q 303 617 225 617 q 492 536 381 617 q 654 454 603 454 q 730 485 701 454 q 777 553 760 515 q 802 568 786 574 l 831 557 q 840 528 848 552 q 762 410 817 454 q 629 366 707 366 q 440 448 551 366 q 278 529 329 529 q 201 498 231 529 q 155 430 172 468 q 130 416 146 410 l 100 426 z "},"¡":{"ha":407,"x_min":-7,"x_max":355,"o":"m 26 -260 q 1 -223 -7 -260 l 163 417 q 201 448 171 448 l 250 448 q 273 417 280 448 l 140 -223 q 97 -260 132 -260 l 26 -260 m 215 568 q 191 599 184 568 l 211 682 q 248 712 218 712 l 324 712 q 348 682 355 712 l 328 599 q 291 568 321 568 l 215 568 z "},"¢":{"ha":753,"x_min":80,"x_max":717,"o":"m 80 273 q 188 584 80 452 q 460 723 295 715 l 489 849 q 519 880 496 880 l 553 880 q 570 849 577 880 l 541 720 q 645 680 605 712 q 706 601 685 647 q 696 566 717 576 l 652 542 q 616 559 629 530 q 579 603 606 581 q 520 631 552 625 l 392 77 q 491 115 450 81 q 552 178 533 149 q 588 187 568 201 l 631 156 q 634 119 650 142 q 549 41 614 92 q 372 -12 484 -10 l 342 -137 q 312 -168 336 -168 l 278 -168 q 261 -137 254 -168 l 292 -6 q 135 90 191 11 q 80 273 80 170 m 206 262 q 238 138 206 180 q 312 85 270 97 l 439 633 q 280 533 353 620 q 206 262 206 446 z "},"£":{"ha":753,"x_min":-28,"x_max":816,"o":"m 9 0 q -21 31 -28 0 l -12 69 q 23 119 -5 97 q 115 203 60 146 q 186 334 170 259 l 208 426 l 100 426 q 77 456 71 426 l 89 507 q 127 537 96 537 l 233 537 l 268 687 q 387 920 307 854 q 604 985 467 985 q 725 960 677 985 q 798 905 773 935 q 798 864 816 884 l 770 834 q 725 836 750 812 q 669 869 704 854 q 588 883 635 883 q 461 840 511 883 q 391 702 412 798 l 353 537 l 546 537 q 569 507 576 537 l 557 456 q 521 426 551 426 l 327 426 l 306 336 q 240 189 285 245 q 161 113 196 132 l 161 110 q 216 111 179 111 l 603 111 q 633 81 640 111 l 621 31 q 577 0 614 0 l 9 0 z "},"¤":{"ha":753,"x_min":77,"x_max":743,"o":"m 95 196 q 98 235 77 212 l 187 330 q 137 494 137 401 q 187 658 137 586 l 98 753 q 95 791 77 775 l 120 814 q 158 808 138 831 l 242 718 q 410 776 313 776 q 578 718 508 776 l 663 808 q 701 814 683 831 l 726 791 q 722 753 743 775 l 633 658 q 684 494 684 586 q 633 330 684 401 l 722 235 q 726 196 743 212 l 701 173 q 663 179 683 157 l 578 269 q 410 212 508 212 q 242 269 313 212 l 158 179 q 120 173 138 157 l 95 196 m 227 494 q 278 357 227 414 q 410 300 329 300 q 543 357 492 300 q 593 494 593 414 q 543 630 593 573 q 410 688 492 688 q 278 630 329 688 q 227 494 227 573 z "},"¥":{"ha":753,"x_min":60,"x_max":912,"o":"m 143 928 q 172 972 127 972 l 226 972 q 267 939 258 972 l 352 643 q 377 555 368 589 q 397 481 387 522 l 399 481 q 454 556 428 522 q 519 643 479 591 l 741 939 q 797 972 766 972 l 867 972 q 876 928 912 972 l 530 501 l 649 501 q 672 471 679 501 l 663 431 q 625 400 656 400 l 447 400 l 418 277 l 597 277 q 621 247 628 277 l 611 207 q 574 176 604 176 l 395 176 l 361 31 q 324 0 355 0 l 266 0 q 242 31 235 0 l 276 176 l 91 176 q 67 207 60 176 l 77 247 q 114 277 84 277 l 299 277 l 328 400 l 142 400 q 119 431 113 400 l 128 471 q 166 501 135 501 l 292 501 l 143 928 z "},"¦":{"ha":400,"x_min":156,"x_max":244,"o":"m 180 -229 q 156 -199 156 -229 l 156 238 q 180 269 156 269 l 220 269 q 244 238 244 269 l 244 -199 q 220 -229 244 -229 l 180 -229 m 180 448 q 156 478 156 448 l 156 915 q 180 945 156 945 l 220 945 q 244 915 244 945 l 244 478 q 220 448 244 448 l 180 448 z "},"§":{"ha":787,"x_min":70,"x_max":725,"o":"m 83 383 q 147 528 83 466 q 314 665 211 591 q 287 766 287 716 q 363 926 287 860 q 534 993 439 993 q 650 971 613 993 q 709 916 688 949 q 709 878 725 892 l 668 844 q 639 856 656 833 q 597 893 620 881 q 530 905 575 905 q 442 866 474 905 q 410 789 410 828 q 561 576 410 694 q 712 356 712 458 q 648 211 712 273 q 481 75 584 149 q 508 -27 508 23 q 432 -187 508 -121 q 261 -254 355 -254 q 144 -232 182 -254 q 85 -176 107 -210 q 86 -139 70 -153 l 127 -104 q 156 -117 138 -94 q 197 -154 175 -142 q 264 -165 220 -165 q 353 -127 321 -165 q 385 -50 385 -89 q 234 163 385 45 q 83 383 83 281 m 199 412 q 300 264 199 349 q 436 140 402 180 l 515 201 q 596 327 596 262 q 494 475 596 391 q 359 599 393 559 l 279 538 q 199 412 199 477 z "},"¨":{"ha":416,"x_min":123,"x_max":546,"o":"m 154 841 q 131 871 123 841 l 144 930 q 182 960 151 960 l 240 960 q 264 930 271 960 l 250 871 q 212 841 243 841 l 154 841 m 429 841 q 406 871 399 841 l 420 930 q 457 960 427 960 l 515 960 q 539 930 546 960 l 526 871 q 488 841 518 841 l 429 841 z "},"©":{"ha":1122,"x_min":68,"x_max":1081,"o":"m 68 486 q 108 683 68 589 q 216 844 149 777 q 378 952 284 912 q 574 993 471 993 q 771 952 677 993 q 932 844 865 912 q 1041 683 1000 777 q 1081 486 1081 589 q 1041 290 1081 383 q 932 128 1000 196 q 771 20 865 60 q 574 -20 677 -20 q 378 20 471 -20 q 216 128 284 60 q 108 290 149 196 q 68 486 68 383 m 136 486 q 171 316 136 397 q 264 176 205 235 q 404 81 323 117 q 574 45 485 45 q 745 81 664 45 q 885 176 826 117 q 978 316 943 235 q 1013 486 1013 397 q 978 657 1013 576 q 885 797 943 738 q 745 891 826 855 q 574 928 664 928 q 404 891 485 928 q 264 797 323 855 q 171 657 205 738 q 136 486 136 576 m 305 486 q 375 702 305 624 q 573 780 445 780 q 698 754 648 780 q 770 684 749 728 q 766 653 781 661 l 727 631 q 699 646 711 623 q 659 690 686 671 q 576 709 632 709 q 436 652 478 709 q 393 486 393 596 q 436 320 393 376 q 576 264 478 264 q 665 287 633 264 q 712 339 696 311 q 741 353 724 361 l 781 330 q 783 298 795 322 q 706 223 760 253 q 573 193 652 193 q 375 271 446 193 q 305 486 305 349 z "},"ª":{"ha":509,"x_min":127,"x_max":595,"o":"m 127 691 q 210 916 127 819 q 396 1013 292 1013 q 460 996 437 1013 q 495 957 482 979 l 496 957 l 506 985 q 528 1004 513 1004 l 574 1004 q 590 985 595 1004 l 490 562 q 465 542 486 542 l 420 542 q 405 562 401 542 q 416 614 405 562 l 415 614 q 355 560 393 586 q 273 534 317 534 q 167 573 206 534 q 127 691 127 611 m 221 688 q 237 633 221 659 q 296 608 254 608 q 386 658 336 608 q 448 760 435 708 l 475 871 q 446 926 468 913 q 398 939 423 939 q 277 866 334 939 q 221 688 221 792 z "},"«":{"ha":700,"x_min":72,"x_max":677,"o":"m 81 351 q 89 382 72 366 l 368 640 q 398 645 387 657 l 429 612 q 420 582 439 600 l 176 355 l 315 129 q 310 99 326 111 l 277 75 q 249 80 260 62 l 81 351 m 319 351 q 326 382 309 366 l 605 640 q 635 645 624 657 l 666 612 q 657 582 677 600 l 414 355 l 553 129 q 547 99 564 111 l 514 75 q 486 80 497 62 l 319 351 z "},"¬":{"ha":753,"x_min":88,"x_max":732,"o":"m 119 548 q 88 572 88 548 l 88 606 q 119 629 88 629 l 702 629 q 732 606 732 629 l 732 321 q 709 290 732 290 l 675 290 q 651 321 651 290 l 651 548 l 119 548 z "},"­":{"ha":461,"x_min":33,"x_max":439,"o":"m 63 328 q 38 351 33 328 l 49 399 q 85 422 54 422 l 409 422 q 434 399 439 422 l 423 351 q 387 328 418 328 l 63 328 z "},"®":{"ha":1122,"x_min":68,"x_max":1081,"o":"m 68 486 q 108 683 68 589 q 216 844 149 777 q 378 952 284 912 q 574 993 471 993 q 771 952 677 993 q 932 844 865 912 q 1041 683 1000 777 q 1081 486 1081 589 q 1041 290 1081 383 q 932 128 1000 196 q 771 20 865 60 q 574 -20 677 -20 q 378 20 471 -20 q 216 128 284 60 q 108 290 149 196 q 68 486 68 383 m 136 486 q 171 316 136 397 q 264 176 205 235 q 404 81 323 117 q 574 45 485 45 q 745 81 664 45 q 885 176 826 117 q 978 316 943 235 q 1013 486 1013 397 q 978 657 1013 576 q 885 797 943 738 q 745 891 826 855 q 574 928 664 928 q 404 891 485 928 q 264 797 323 855 q 171 657 205 738 q 136 486 136 576 m 399 192 q 380 214 380 192 l 380 734 q 399 756 380 756 l 589 756 q 754 713 703 756 q 805 602 805 671 q 765 498 805 541 q 647 446 726 456 l 647 446 q 699 406 686 422 q 729 362 713 389 l 818 218 q 810 192 834 192 l 759 192 q 732 208 741 192 l 653 341 q 602 398 637 368 q 517 429 566 429 l 461 429 l 461 214 q 441 192 461 192 l 399 192 m 461 504 l 562 504 q 680 526 639 504 q 720 600 720 548 q 683 664 720 647 q 581 682 646 682 l 461 682 l 461 504 z "},"¯":{"ha":416,"x_min":111,"x_max":548,"o":"m 142 841 q 117 865 111 841 l 123 892 q 159 916 129 916 l 517 916 q 543 892 548 916 l 536 865 q 500 841 530 841 l 142 841 z "},"°":{"ha":380,"x_min":167,"x_max":438,"o":"m 167 841 q 207 937 167 897 q 302 977 246 977 q 398 937 359 977 q 438 841 438 897 q 398 745 438 785 q 302 705 359 705 q 207 745 246 705 q 167 841 167 785 m 235 841 q 254 793 235 812 q 302 773 274 773 q 351 793 331 773 q 370 841 370 812 q 351 889 370 869 q 302 909 331 909 q 254 889 274 909 q 235 841 235 869 z "},"±":{"ha":868,"x_min":86,"x_max":846,"o":"m 117 -41 q 86 -17 86 -41 l 86 17 q 117 41 86 41 l 815 41 q 846 17 846 41 l 846 -17 q 815 -41 846 -41 l 117 -41 m 117 451 q 86 475 86 451 l 86 509 q 117 532 86 532 l 425 532 l 425 841 q 448 871 425 871 l 482 871 q 506 841 506 871 l 506 532 l 815 532 q 846 509 846 532 l 846 475 q 815 451 846 451 l 506 451 l 506 142 q 482 112 506 112 l 448 112 q 425 142 425 112 l 425 451 l 117 451 z "},"²":{"ha":400,"x_min":64,"x_max":475,"o":"m 82 483 q 67 498 64 483 l 73 526 q 91 552 76 540 l 286 711 q 369 795 347 762 q 391 867 391 828 q 372 911 391 897 q 321 926 353 926 q 266 908 293 926 q 219 851 239 890 q 198 836 209 831 l 163 851 q 159 881 149 858 q 226 961 180 928 q 326 994 271 994 q 439 962 403 994 q 475 875 475 929 q 452 787 475 831 q 348 677 429 742 l 197 556 l 197 555 q 224 555 211 555 l 393 555 q 409 540 412 555 l 399 498 q 376 483 396 483 l 82 483 z "},"³":{"ha":403,"x_min":69,"x_max":462,"o":"m 83 534 q 83 561 69 551 l 114 583 q 141 576 127 593 q 180 547 160 553 q 225 540 199 540 q 315 570 283 540 q 347 642 347 600 q 327 697 347 673 q 264 721 307 721 l 237 721 q 224 732 221 721 l 233 773 q 252 785 236 785 l 271 785 q 348 812 316 785 q 380 873 380 839 q 364 913 380 901 q 314 926 348 926 q 266 918 287 926 q 224 895 244 910 q 197 889 204 880 l 172 920 q 186 949 162 932 q 245 982 213 970 q 321 994 278 994 q 428 962 393 994 q 462 885 462 930 q 425 797 462 825 q 344 757 388 768 l 343 755 q 407 713 383 744 q 431 635 431 683 q 372 521 431 570 q 221 472 312 472 q 136 490 168 472 q 83 534 103 509 z "},"´":{"ha":416,"x_min":193,"x_max":517,"o":"m 227 780 q 224 816 193 780 l 336 948 q 395 973 358 973 l 477 973 q 481 938 517 973 l 342 800 q 284 780 321 780 l 227 780 z "},"µ":{"ha":787,"x_min":-46,"x_max":773,"o":"m -16 -283 q -39 -252 -46 -283 l 176 681 q 214 711 183 711 l 272 711 q 296 681 302 711 l 210 309 q 212 140 185 204 q 320 76 239 76 q 460 138 385 76 q 561 309 536 201 l 647 682 q 684 712 654 712 l 743 712 q 766 682 773 712 l 616 31 q 578 0 609 0 l 522 0 q 498 31 490 0 l 511 85 l 508 85 q 406 9 451 31 q 308 -12 360 -12 q 226 9 267 -12 q 159 84 185 31 l 157 84 q 149 43 153 64 l 80 -252 q 43 -283 73 -283 l -16 -283 z "},"¶":{"ha":693,"x_min":56,"x_max":599,"o":"m 56 735 q 127 902 56 831 q 294 972 197 972 l 358 972 q 382 942 382 972 l 382 -220 q 358 -251 382 -251 l 317 -251 q 294 -220 294 -251 l 294 498 q 127 568 197 498 q 56 735 56 639 m 534 -251 q 511 -220 511 -251 l 511 942 q 534 972 511 972 l 575 972 q 599 942 599 972 l 599 -220 q 575 -251 599 -251 l 534 -251 z "},"·":{"ha":407,"x_min":167,"x_max":304,"o":"m 197 420 q 167 450 167 420 l 167 533 q 197 564 167 564 l 273 564 q 304 533 304 564 l 304 450 q 273 420 304 420 l 197 420 z "},"¸":{"ha":416,"x_min":-64,"x_max":196,"o":"m -50 -268 q -58 -243 -64 -262 l -49 -218 q -22 -206 -41 -196 q 37 -214 -5 -214 q 90 -201 69 -214 q 111 -166 111 -189 q 95 -139 111 -149 q 45 -128 78 -128 l 26 -128 q 14 -111 11 -128 q 26 -74 18 -83 l 86 0 q 117 15 98 15 l 163 15 q 173 0 185 15 l 120 -65 l 119 -67 q 180 -96 165 -76 q 196 -157 196 -117 q 149 -247 196 -212 q 35 -282 101 -282 q -50 -268 -12 -282 z "},"¹":{"ha":326,"x_min":173,"x_max":387,"o":"m 176 891 q 188 907 173 901 q 241 935 205 916 q 300 977 277 955 q 322 990 313 990 l 371 990 q 384 975 387 990 l 274 498 q 254 483 271 483 l 205 483 q 193 498 189 483 l 279 873 q 286 894 281 883 l 283 894 q 249 867 269 880 q 209 847 228 854 q 190 853 194 842 l 176 891 z "},"º":{"ha":529,"x_min":129,"x_max":595,"o":"m 129 719 q 204 924 129 836 q 402 1013 280 1013 q 555 956 514 1013 q 595 827 595 899 q 520 623 595 711 q 323 534 445 534 q 170 591 211 534 q 129 719 129 648 m 222 713 q 247 635 222 662 q 330 608 271 608 q 450 665 398 608 q 502 834 502 722 q 478 912 502 885 q 395 939 454 939 q 275 882 327 939 q 222 713 222 825 z "},"»":{"ha":700,"x_min":29,"x_max":634,"o":"m 40 121 q 49 151 29 132 l 292 377 l 153 604 q 159 633 142 621 l 192 658 q 220 652 209 670 l 387 382 q 380 351 397 366 l 101 93 q 71 87 82 75 l 40 121 m 277 121 q 286 151 267 132 l 530 377 l 391 604 q 396 633 380 621 l 429 658 q 457 652 446 670 l 625 382 q 617 351 634 366 l 338 93 q 308 87 319 75 l 277 121 z "},"¼":{"ha":1191,"x_min":144,"x_max":1112,"o":"m 162 -27 q 163 11 144 -12 l 1031 1025 q 1069 1034 1051 1049 l 1095 1011 q 1093 973 1112 996 l 226 -42 q 186 -50 205 -66 l 162 -27 m 703 117 q 691 133 688 117 l 701 181 q 716 205 703 191 l 969 494 q 991 507 981 507 l 1051 507 q 1064 492 1067 507 l 994 190 l 1042 190 q 1054 174 1057 190 l 1044 133 q 1025 117 1041 117 l 977 117 l 954 16 q 935 0 951 0 l 884 0 q 873 16 869 0 l 896 117 l 703 117 m 788 190 l 913 190 l 954 368 q 961 389 956 377 l 959 389 l 788 190 m 251 891 q 262 907 248 901 q 316 935 280 916 q 374 977 351 955 q 397 990 387 990 l 446 990 q 458 975 462 990 l 349 498 q 328 483 345 483 l 279 483 q 267 498 264 483 l 353 873 q 360 894 355 883 l 358 894 q 323 867 344 880 q 283 847 302 854 q 264 853 269 842 l 251 891 z "},"½":{"ha":1191,"x_min":144,"x_max":1112,"o":"m 162 -27 q 163 11 144 -12 l 1031 1025 q 1069 1034 1051 1049 l 1095 1011 q 1093 973 1112 996 l 226 -42 q 186 -50 205 -66 l 162 -27 m 251 891 q 262 907 248 901 q 316 935 280 916 q 374 977 351 955 q 397 990 387 990 l 446 990 q 458 975 462 990 l 349 498 q 328 483 345 483 l 279 483 q 267 498 264 483 l 353 873 q 360 894 355 883 l 358 894 q 323 867 344 880 q 283 847 302 854 q 264 853 269 842 l 251 891 m 712 0 q 697 16 694 0 l 703 43 q 721 69 706 57 l 916 229 q 999 312 977 279 q 1021 384 1021 345 q 1002 429 1021 414 q 951 444 983 444 q 896 425 923 444 q 849 368 869 407 q 828 353 839 348 l 793 368 q 789 398 779 375 q 856 478 810 446 q 956 511 901 511 q 1069 479 1033 511 q 1105 392 1105 446 q 1082 304 1105 349 q 978 195 1059 259 l 827 73 l 827 72 q 854 73 841 73 l 1023 73 q 1039 57 1042 73 l 1029 16 q 1006 0 1026 0 l 712 0 z "},"¾":{"ha":1191,"x_min":106,"x_max":1112,"o":"m 162 -27 q 163 11 144 -12 l 1031 1025 q 1069 1034 1051 1049 l 1095 1011 q 1093 973 1112 996 l 226 -42 q 186 -50 205 -66 l 162 -27 m 120 534 q 120 561 106 551 l 151 583 q 178 576 165 593 q 217 547 197 553 q 262 540 237 540 q 353 570 321 540 q 385 642 385 600 q 364 697 385 673 q 302 721 344 721 l 274 721 q 261 732 258 721 l 271 773 q 289 785 273 785 l 309 785 q 386 812 353 785 q 418 873 418 839 q 401 913 418 901 q 351 926 385 926 q 303 918 324 926 q 261 895 281 910 q 234 889 241 880 l 209 920 q 223 949 199 932 q 283 982 250 970 q 358 994 315 994 q 465 962 431 994 q 499 885 499 930 q 462 797 499 825 q 381 757 425 768 l 380 755 q 445 713 420 744 q 469 635 469 683 q 409 521 469 570 q 258 472 349 472 q 173 490 205 472 q 120 534 140 509 m 710 117 q 698 133 694 117 l 708 181 q 723 205 710 191 l 976 494 q 998 507 987 507 l 1058 507 q 1071 492 1074 507 l 1001 190 l 1048 190 q 1061 174 1064 190 l 1051 133 q 1032 117 1048 117 l 984 117 l 961 16 q 941 0 958 0 l 891 0 q 880 16 876 0 l 903 117 l 710 117 m 795 190 l 920 190 l 961 368 q 968 389 963 377 l 966 389 l 795 190 z "},"¿":{"ha":689,"x_min":-20,"x_max":543,"o":"m -20 -56 q 137 191 -20 52 q 312 415 294 331 l 315 431 q 353 461 322 461 l 412 461 q 435 431 441 461 l 429 406 q 258 152 404 286 q 113 -64 113 18 q 150 -155 113 -130 q 240 -179 186 -179 q 354 -144 300 -179 q 426 -74 408 -110 q 472 -54 444 -39 l 520 -81 q 517 -140 543 -94 q 418 -235 489 -189 q 236 -281 347 -281 q 41 -226 102 -281 q -20 -56 -20 -171 m 370 568 q 346 599 339 568 l 366 682 q 403 712 372 712 l 479 712 q 503 682 509 712 l 483 599 q 446 568 476 568 l 370 568 z "},"À":{"ha":922,"x_min":-66,"x_max":827,"o":"m -32 0 q -40 45 -66 0 l 482 931 q 536 972 507 972 l 631 972 q 667 931 659 972 l 820 45 q 791 0 827 0 l 730 0 q 688 33 694 0 l 650 258 l 233 258 l 100 33 q 44 0 81 0 l -32 0 m 299 369 l 630 369 l 583 640 q 568 747 574 689 q 563 855 563 805 l 560 855 q 522 757 548 807 q 458 640 496 707 l 299 369 z "},"Á":{"ha":922,"x_min":-66,"x_max":889,"o":"m -32 0 q -40 45 -66 0 l 482 931 q 536 972 507 972 l 631 972 q 667 931 659 972 l 820 45 q 791 0 827 0 l 730 0 q 688 33 694 0 l 650 258 l 233 258 l 100 33 q 44 0 81 0 l -32 0 m 299 369 l 630 369 l 583 640 q 568 747 574 689 q 563 855 563 805 l 560 855 q 522 757 548 807 q 458 640 496 707 l 299 369 z "},"Â":{"ha":922,"x_min":-66,"x_max":869,"o":"m 359 1078 q 385 1112 353 1099 l 553 1183 q 599 1195 582 1195 l 646 1195 q 687 1183 663 1195 l 846 1100 q 855 1065 869 1087 l 836 1038 q 796 1029 822 1016 l 622 1118 l 621 1118 l 404 1029 q 368 1038 374 1016 l 359 1078 m -32 0 q -40 45 -66 0 l 482 931 q 536 972 507 972 l 631 972 q 667 931 659 972 l 820 45 q 791 0 827 0 l 730 0 q 688 33 694 0 l 650 258 l 233 258 l 100 33 q 44 0 81 0 l -32 0 m 299 369 l 630 369 l 583 640 q 568 747 574 689 q 563 855 563 805 l 560 855 q 522 757 548 807 q 458 640 496 707 l 299 369 z "},"Ã":{"ha":922,"x_min":-66,"x_max":879,"o":"m 375 1068 q 369 1099 359 1077 q 427 1172 388 1143 q 526 1201 466 1201 q 634 1168 577 1201 q 721 1135 691 1135 q 776 1153 753 1135 q 809 1188 798 1171 q 835 1200 822 1208 l 863 1183 q 869 1153 879 1175 q 811 1080 850 1109 q 712 1050 772 1050 q 604 1084 661 1050 q 517 1117 547 1117 q 463 1099 485 1117 q 429 1063 440 1080 q 404 1051 416 1044 l 375 1068 m -32 0 q -40 45 -66 0 l 482 931 q 536 972 507 972 l 631 972 q 667 931 659 972 l 820 45 q 791 0 827 0 l 730 0 q 688 33 694 0 l 650 258 l 233 258 l 100 33 q 44 0 81 0 l -32 0 m 299 369 l 630 369 l 583 640 q 568 747 574 689 q 563 855 563 805 l 560 855 q 522 757 548 807 q 458 640 496 707 l 299 369 z "},"Ä":{"ha":922,"x_min":-66,"x_max":854,"o":"m -32 0 q -40 45 -66 0 l 482 931 q 536 972 507 972 l 631 972 q 667 931 659 972 l 820 45 q 791 0 827 0 l 730 0 q 688 33 694 0 l 650 258 l 233 258 l 100 33 q 44 0 81 0 l -32 0 m 299 369 l 630 369 l 583 640 q 568 747 574 689 q 563 855 563 805 l 560 855 q 522 757 548 807 q 458 640 496 707 l 299 369 m 409 1051 q 385 1082 378 1051 l 399 1144 q 437 1175 407 1175 l 500 1175 q 523 1144 530 1175 l 509 1082 q 471 1051 502 1051 l 409 1051 m 733 1051 q 709 1082 703 1051 l 724 1144 q 762 1175 731 1175 l 824 1175 q 847 1144 854 1175 l 833 1082 q 795 1051 826 1051 l 733 1051 z "},"Å":{"ha":922,"x_min":-66,"x_max":827,"o":"m -32 0 q -40 45 -66 0 l 482 931 q 536 972 507 972 l 631 972 q 667 931 659 972 l 820 45 q 791 0 827 0 l 730 0 q 688 33 694 0 l 650 258 l 233 258 l 100 33 q 44 0 81 0 l -32 0 m 299 369 l 630 369 l 583 640 q 568 747 574 689 q 563 855 563 805 l 560 855 q 522 757 548 807 q 458 640 496 707 l 299 369 m 481 1117 q 516 1201 481 1168 q 604 1234 551 1234 q 692 1200 657 1234 q 728 1117 728 1166 q 692 1034 728 1067 q 604 1000 657 1000 q 516 1033 551 1000 q 481 1117 481 1066 m 534 1117 q 553 1069 534 1088 q 604 1050 573 1050 q 655 1069 635 1050 q 675 1117 675 1088 q 655 1165 675 1145 q 604 1184 635 1184 q 553 1165 573 1184 q 534 1117 534 1145 z "},"Æ":{"ha":1327,"x_min":-71,"x_max":1389,"o":"m -31 0 q -40 45 -71 0 l 587 937 q 640 972 612 972 l 1352 972 q 1382 942 1389 972 l 1371 892 q 1326 861 1364 861 l 856 861 l 787 560 l 1216 560 q 1246 530 1253 560 l 1234 479 q 1190 449 1227 449 l 761 449 l 683 111 l 1173 111 q 1203 81 1210 111 l 1192 31 q 1147 0 1185 0 l 561 0 q 536 37 527 0 l 587 258 l 265 258 l 108 33 q 55 0 85 0 l -31 0 m 343 369 l 612 369 l 726 861 l 677 861 q 632 783 656 821 q 585 714 607 745 l 343 369 z "},"Ç":{"ha":944,"x_min":75,"x_max":943,"o":"m 75 393 q 217 827 75 661 q 616 993 360 993 q 818 949 741 993 q 927 834 895 906 q 911 780 943 798 l 859 749 q 823 768 840 738 q 749 846 803 804 q 604 887 696 887 q 324 763 435 887 q 214 378 214 639 q 279 170 214 254 q 500 85 344 85 q 656 134 592 85 q 755 231 720 182 q 808 255 784 271 l 869 216 q 864 161 892 201 q 720 32 810 83 q 481 -20 629 -20 q 176 97 277 -20 q 75 393 75 214 m 292 -268 q 284 -243 277 -262 l 293 -218 q 320 -206 300 -196 q 378 -214 336 -214 q 432 -201 411 -214 q 453 -166 453 -189 q 436 -139 453 -149 q 387 -128 420 -128 l 368 -128 q 355 -111 353 -128 q 368 -74 360 -83 l 428 0 q 458 15 440 15 l 505 15 q 515 0 527 15 l 462 -65 l 461 -67 q 522 -96 507 -76 q 538 -157 538 -117 q 490 -247 538 -212 q 376 -282 443 -282 q 292 -268 330 -282 z "},"È":{"ha":861,"x_min":34,"x_max":923,"o":"m 68 0 q 43 37 34 0 l 250 935 q 292 972 258 972 l 886 972 q 916 942 923 972 l 905 892 q 860 861 897 861 l 363 861 l 294 560 l 750 560 q 780 530 787 560 l 768 479 q 724 449 762 449 l 268 449 l 190 111 l 707 111 q 737 81 745 111 l 726 31 q 682 0 719 0 l 68 0 z "},"É":{"ha":861,"x_min":34,"x_max":923,"o":"m 68 0 q 43 37 34 0 l 250 935 q 292 972 258 972 l 886 972 q 916 942 923 972 l 905 892 q 860 861 897 861 l 363 861 l 294 560 l 750 560 q 780 530 787 560 l 768 479 q 724 449 762 449 l 268 449 l 190 111 l 707 111 q 737 81 745 111 l 726 31 q 682 0 719 0 l 68 0 z "},"Ê":{"ha":861,"x_min":34,"x_max":923,"o":"m 376 1078 q 401 1112 370 1099 l 570 1183 q 616 1195 599 1195 l 663 1195 q 704 1183 680 1195 l 863 1100 q 872 1065 886 1087 l 853 1038 q 813 1029 839 1016 l 639 1118 l 637 1118 l 421 1029 q 385 1038 391 1016 l 376 1078 m 68 0 q 43 37 34 0 l 250 935 q 292 972 258 972 l 886 972 q 916 942 923 972 l 905 892 q 860 861 897 861 l 363 861 l 294 560 l 750 560 q 780 530 787 560 l 768 479 q 724 449 762 449 l 268 449 l 190 111 l 707 111 q 737 81 745 111 l 726 31 q 682 0 719 0 l 68 0 z "},"Ë":{"ha":861,"x_min":34,"x_max":923,"o":"m 426 1051 q 402 1082 395 1051 l 416 1144 q 454 1175 424 1175 l 517 1175 q 540 1144 547 1175 l 526 1082 q 488 1051 519 1051 l 426 1051 m 750 1051 q 726 1082 720 1051 l 741 1144 q 779 1175 748 1175 l 841 1175 q 864 1144 871 1175 l 850 1082 q 812 1051 843 1051 l 750 1051 m 68 0 q 43 37 34 0 l 250 935 q 292 972 258 972 l 886 972 q 916 942 923 972 l 905 892 q 860 861 897 861 l 363 861 l 294 560 l 750 560 q 780 530 787 560 l 768 479 q 724 449 762 449 l 268 449 l 190 111 l 707 111 q 737 81 745 111 l 726 31 q 682 0 719 0 l 68 0 z "},"Ì":{"ha":361,"x_min":34,"x_max":424,"o":"m 68 0 q 43 37 34 0 l 250 935 q 292 972 258 972 l 355 972 q 380 935 389 972 l 173 37 q 130 0 164 0 l 68 0 z "},"Í":{"ha":361,"x_min":34,"x_max":628,"o":"m 68 0 q 43 37 34 0 l 250 935 q 292 972 258 972 l 355 972 q 380 935 389 972 l 173 37 q 130 0 164 0 l 68 0 z "},"Î":{"ha":361,"x_min":34,"x_max":608,"o":"m 98 1078 q 123 1112 92 1099 l 292 1183 q 338 1195 321 1195 l 385 1195 q 426 1183 402 1195 l 585 1100 q 594 1065 608 1087 l 575 1038 q 535 1029 561 1016 l 361 1118 l 359 1118 l 143 1029 q 107 1038 113 1016 l 98 1078 m 68 0 q 43 37 34 0 l 250 935 q 292 972 258 972 l 355 972 q 380 935 389 972 l 173 37 q 130 0 164 0 l 68 0 z "},"Ï":{"ha":361,"x_min":34,"x_max":566,"o":"m 68 0 q 43 37 34 0 l 250 935 q 292 972 258 972 l 355 972 q 380 935 389 972 l 173 37 q 130 0 164 0 l 68 0 m 177 1051 q 153 1082 146 1051 l 168 1144 q 205 1175 175 1175 l 268 1175 q 291 1144 298 1175 l 277 1082 q 239 1051 270 1051 l 177 1051 m 444 1051 q 420 1082 414 1051 l 435 1144 q 473 1175 442 1175 l 535 1175 q 558 1144 566 1175 l 544 1082 q 507 1051 537 1051 l 444 1051 z "},"Ð":{"ha":981,"x_min":48,"x_max":966,"o":"m 85 444 q 55 474 48 444 l 66 524 q 111 555 73 555 l 189 555 l 277 935 q 319 972 286 972 l 536 972 q 872 854 779 972 q 966 575 966 735 q 823 172 966 345 q 379 0 681 0 l 95 0 q 70 37 61 0 l 163 444 l 85 444 m 217 111 l 399 111 q 725 255 624 111 q 827 583 827 399 q 771 781 827 700 q 505 863 716 863 l 391 863 l 319 555 l 537 555 q 567 524 574 555 l 555 474 q 511 444 549 444 l 294 444 l 217 111 z "},"Ñ":{"ha":975,"x_min":34,"x_max":1003,"o":"m 421 1068 q 415 1099 406 1077 q 473 1172 434 1143 q 572 1201 512 1201 q 680 1168 623 1201 q 767 1135 737 1135 q 822 1153 800 1135 q 855 1188 844 1171 q 881 1200 868 1208 l 909 1183 q 916 1153 925 1175 q 858 1080 897 1109 q 758 1050 819 1050 q 650 1084 707 1050 q 564 1117 593 1117 q 509 1099 531 1117 q 475 1063 486 1080 q 450 1051 463 1044 l 421 1068 m 68 0 q 43 37 34 0 l 250 935 q 292 972 258 972 l 374 972 q 435 939 422 972 l 698 220 l 701 220 q 712 274 707 251 l 864 935 q 907 972 873 972 l 969 972 q 994 935 1003 972 l 787 37 q 745 0 779 0 l 689 0 q 629 34 642 0 l 349 797 l 347 797 q 336 743 341 767 l 173 37 q 130 0 164 0 l 68 0 z "},"Ò":{"ha":1027,"x_min":75,"x_max":1014,"o":"m 75 393 q 220 829 75 665 q 595 993 365 993 q 908 883 802 993 q 1014 579 1014 772 q 869 144 1014 308 q 493 -20 724 -20 q 180 90 286 -20 q 75 393 75 200 m 214 377 q 286 162 214 238 q 500 85 358 85 q 762 210 650 85 q 875 595 875 334 q 803 811 875 734 q 588 887 730 887 q 326 763 439 887 q 214 377 214 638 z "},"Ó":{"ha":1027,"x_min":75,"x_max":1014,"o":"m 75 393 q 220 829 75 665 q 595 993 365 993 q 908 883 802 993 q 1014 579 1014 772 q 869 144 1014 308 q 493 -20 724 -20 q 180 90 286 -20 q 75 393 75 200 m 214 377 q 286 162 214 238 q 500 85 358 85 q 762 210 650 85 q 875 595 875 334 q 803 811 875 734 q 588 887 730 887 q 326 763 439 887 q 214 377 214 638 m 568 1044 q 566 1080 530 1044 l 671 1185 q 729 1211 696 1211 l 844 1211 q 848 1175 896 1211 l 699 1064 q 640 1044 671 1044 l 568 1044 z "},"Ô":{"ha":1027,"x_min":75,"x_max":1014,"o":"m 366 1078 q 391 1112 360 1099 l 559 1183 q 606 1195 589 1195 l 653 1195 q 694 1183 670 1195 l 852 1100 q 862 1065 876 1087 l 843 1038 q 803 1029 829 1016 l 629 1118 l 627 1118 l 411 1029 q 375 1038 380 1016 l 366 1078 m 75 393 q 220 829 75 665 q 595 993 365 993 q 908 883 802 993 q 1014 579 1014 772 q 869 144 1014 308 q 493 -20 724 -20 q 180 90 286 -20 q 75 393 75 200 m 214 377 q 286 162 214 238 q 500 85 358 85 q 762 210 650 85 q 875 595 875 334 q 803 811 875 734 q 588 887 730 887 q 326 763 439 887 q 214 377 214 638 z "},"Õ":{"ha":1027,"x_min":75,"x_max":1014,"o":"m 382 1068 q 376 1099 366 1077 q 434 1172 395 1143 q 533 1201 473 1201 q 641 1168 584 1201 q 728 1135 698 1135 q 783 1153 760 1135 q 816 1188 805 1171 q 842 1200 829 1208 l 870 1183 q 876 1153 886 1175 q 818 1080 857 1109 q 719 1050 779 1050 q 611 1084 668 1050 q 524 1117 554 1117 q 469 1099 492 1117 q 436 1063 447 1080 q 410 1051 423 1044 l 382 1068 m 75 393 q 220 829 75 665 q 595 993 365 993 q 908 883 802 993 q 1014 579 1014 772 q 869 144 1014 308 q 493 -20 724 -20 q 180 90 286 -20 q 75 393 75 200 m 214 377 q 286 162 214 238 q 500 85 358 85 q 762 210 650 85 q 875 595 875 334 q 803 811 875 734 q 588 887 730 887 q 326 763 439 887 q 214 377 214 638 z "},"Ö":{"ha":1027,"x_min":75,"x_max":1014,"o":"m 75 393 q 220 829 75 665 q 595 993 365 993 q 908 883 802 993 q 1014 579 1014 772 q 869 144 1014 308 q 493 -20 724 -20 q 180 90 286 -20 q 75 393 75 200 m 214 377 q 286 162 214 238 q 500 85 358 85 q 762 210 650 85 q 875 595 875 334 q 803 811 875 734 q 588 887 730 887 q 326 763 439 887 q 214 377 214 638 m 414 1051 q 390 1082 383 1051 l 404 1144 q 442 1175 412 1175 l 505 1175 q 528 1144 535 1175 l 513 1082 q 476 1051 507 1051 l 414 1051 m 738 1051 q 714 1082 707 1051 l 728 1144 q 766 1175 736 1175 l 829 1175 q 852 1144 859 1175 l 838 1082 q 800 1051 831 1051 l 738 1051 z "},"×":{"ha":868,"x_min":168,"x_max":763,"o":"m 184 235 q 190 274 168 252 l 408 492 l 190 709 q 184 747 168 731 l 209 772 q 247 767 226 789 l 465 549 l 684 768 q 722 772 705 789 l 746 749 q 741 710 763 732 l 523 492 l 741 273 q 746 235 763 251 l 722 210 q 684 215 705 193 l 465 434 l 247 216 q 209 212 225 195 l 184 235 z "},"Ø":{"ha":1027,"x_min":-8,"x_max":1096,"o":"m 75 393 q 220 829 75 665 q 595 993 365 993 q 910 881 804 993 l 1000 961 q 1048 962 1028 985 l 1076 932 q 1068 884 1096 909 l 969 795 q 1014 579 1014 705 q 869 144 1014 308 q 493 -20 724 -20 q 178 92 284 -20 l 87 12 q 39 10 60 -13 l 12 41 q 20 89 -8 64 l 119 178 q 75 393 75 268 m 214 377 q 226 273 214 319 l 815 796 q 588 887 743 887 q 326 763 439 887 q 214 377 214 638 m 273 176 q 500 85 346 85 q 762 210 650 85 q 875 595 875 334 q 862 701 875 654 l 273 176 z "},"Ù":{"ha":951,"x_min":70,"x_max":979,"o":"m 119 371 l 250 935 q 292 972 258 972 l 355 972 q 380 935 389 972 l 254 391 q 251 143 211 201 q 414 85 291 85 q 592 143 513 85 q 714 391 671 201 l 840 935 q 882 972 848 972 l 945 972 q 970 935 979 972 l 840 371 q 681 68 790 156 q 389 -20 572 -20 q 162 68 254 -20 q 119 371 70 156 z "},"Ú":{"ha":951,"x_min":70,"x_max":979,"o":"m 119 371 l 250 935 q 292 972 258 972 l 355 972 q 380 935 389 972 l 254 391 q 251 143 211 201 q 414 85 291 85 q 592 143 513 85 q 714 391 671 201 l 840 935 q 882 972 848 972 l 945 972 q 970 935 979 972 l 840 371 q 681 68 790 156 q 389 -20 572 -20 q 162 68 254 -20 q 119 371 70 156 z "},"Û":{"ha":951,"x_min":70,"x_max":979,"o":"m 393 1078 q 418 1112 387 1099 l 587 1183 q 633 1195 616 1195 l 680 1195 q 721 1183 697 1195 l 880 1100 q 889 1065 903 1087 l 870 1038 q 830 1029 856 1016 l 656 1118 l 654 1118 l 438 1029 q 402 1038 408 1016 l 393 1078 m 119 371 l 250 935 q 292 972 258 972 l 355 972 q 380 935 389 972 l 254 391 q 251 143 211 201 q 414 85 291 85 q 592 143 513 85 q 714 391 671 201 l 840 935 q 882 972 848 972 l 945 972 q 970 935 979 972 l 840 371 q 681 68 790 156 q 389 -20 572 -20 q 162 68 254 -20 q 119 371 70 156 z "},"Ü":{"ha":951,"x_min":70,"x_max":979,"o":"m 443 1051 q 419 1082 412 1051 l 433 1144 q 471 1175 441 1175 l 534 1175 q 557 1144 564 1175 l 543 1082 q 505 1051 536 1051 l 443 1051 m 767 1051 q 743 1082 736 1051 l 758 1144 q 795 1175 765 1175 l 858 1175 q 881 1144 888 1175 l 867 1082 q 829 1051 860 1051 l 767 1051 m 119 371 l 250 935 q 292 972 258 972 l 355 972 q 380 935 389 972 l 254 391 q 251 143 211 201 q 414 85 291 85 q 592 143 513 85 q 714 391 671 201 l 840 935 q 882 972 848 972 l 945 972 q 970 935 979 972 l 840 371 q 681 68 790 156 q 389 -20 572 -20 q 162 68 254 -20 q 119 371 70 156 z "},"Ý":{"ha":883,"x_min":151,"x_max":1019,"o":"m 170 928 q 198 972 151 972 l 261 972 q 302 939 291 972 l 408 643 q 434 569 418 616 q 459 481 450 522 l 462 481 q 518 557 490 522 q 587 643 545 592 l 830 939 q 886 972 857 972 l 971 972 q 979 928 1019 972 l 517 400 l 434 37 q 391 0 425 0 l 329 0 q 304 37 295 0 l 387 400 l 170 928 z "},"Þ":{"ha":836,"x_min":33,"x_max":810,"o":"m 66 -5 q 41 32 33 -5 l 250 936 q 292 973 259 973 l 355 973 q 380 936 389 973 l 349 798 l 483 798 q 743 724 675 798 q 810 548 810 650 q 698 315 810 403 q 365 228 586 228 l 217 228 l 172 32 q 129 -5 163 -5 l 66 -5 m 242 339 l 402 339 q 600 392 529 339 q 671 534 671 445 q 621 652 671 617 q 456 686 571 686 l 323 686 l 242 339 z "},"ß":{"ha":825,"x_min":-47,"x_max":774,"o":"m -17 -271 q -41 -241 -47 -271 l 193 772 q 317 961 225 909 q 535 1013 409 1013 q 717 956 659 1013 q 774 816 774 899 q 715 661 774 723 q 538 534 655 598 l 538 532 q 692 442 648 514 q 736 286 736 370 q 645 77 736 166 q 424 -12 553 -12 q 321 -2 359 -12 q 254 33 283 7 q 254 69 239 45 l 280 109 q 323 107 295 131 q 363 87 335 98 q 428 77 392 77 q 553 135 496 77 q 610 279 610 193 q 559 422 610 389 q 422 456 509 456 q 412 473 414 456 l 406 551 q 420 573 404 564 l 483 606 q 601 689 547 640 q 655 806 655 739 q 628 895 655 865 q 525 924 601 924 q 393 887 456 924 q 308 753 330 850 l 79 -241 q 41 -271 72 -271 l -17 -271 z "},"à":{"ha":745,"x_min":45,"x_max":732,"o":"m 45 230 q 171 570 45 416 q 437 724 298 724 q 537 698 498 724 q 595 639 576 673 l 597 639 l 611 682 q 644 712 621 712 l 701 712 q 725 682 732 712 l 574 31 q 537 0 568 0 l 482 0 q 458 31 452 0 l 475 112 l 474 112 q 386 28 441 68 q 262 -12 330 -12 q 104 48 164 -12 q 45 230 45 107 m 171 225 q 195 129 171 180 q 294 77 219 77 q 429 157 355 77 q 523 326 503 238 l 568 522 q 529 609 568 583 q 433 635 490 635 q 254 514 338 635 q 171 225 171 392 z "},"á":{"ha":745,"x_min":45,"x_max":732,"o":"m 45 230 q 171 570 45 416 q 437 724 298 724 q 537 698 498 724 q 595 639 576 673 l 597 639 l 611 682 q 644 712 621 712 l 701 712 q 725 682 732 712 l 574 31 q 537 0 568 0 l 482 0 q 458 31 452 0 l 475 112 l 474 112 q 386 28 441 68 q 262 -12 330 -12 q 104 48 164 -12 q 45 230 45 107 m 171 225 q 195 129 171 180 q 294 77 219 77 q 429 157 355 77 q 523 326 503 238 l 568 522 q 529 609 568 583 q 433 635 490 635 q 254 514 338 635 q 171 225 171 392 z "},"â":{"ha":745,"x_min":45,"x_max":732,"o":"m 45 230 q 171 570 45 416 q 437 724 298 724 q 537 698 498 724 q 595 639 576 673 l 597 639 l 611 682 q 644 712 621 712 l 701 712 q 725 682 732 712 l 574 31 q 537 0 568 0 l 482 0 q 458 31 452 0 l 475 112 l 474 112 q 386 28 441 68 q 262 -12 330 -12 q 104 48 164 -12 q 45 230 45 107 m 171 225 q 195 129 171 180 q 294 77 219 77 q 429 157 355 77 q 523 326 503 238 l 568 522 q 529 609 568 583 q 433 635 490 635 q 254 514 338 635 q 171 225 171 392 z "},"ã":{"ha":745,"x_min":45,"x_max":732,"o":"m 45 230 q 171 570 45 416 q 437 724 298 724 q 537 698 498 724 q 595 639 576 673 l 597 639 l 611 682 q 644 712 621 712 l 701 712 q 725 682 732 712 l 574 31 q 537 0 568 0 l 482 0 q 458 31 452 0 l 475 112 l 474 112 q 386 28 441 68 q 262 -12 330 -12 q 104 48 164 -12 q 45 230 45 107 m 171 225 q 195 129 171 180 q 294 77 219 77 q 429 157 355 77 q 523 326 503 238 l 568 522 q 529 609 568 583 q 433 635 490 635 q 254 514 338 635 q 171 225 171 392 z "},"ä":{"ha":745,"x_min":45,"x_max":732,"o":"m 45 230 q 171 570 45 416 q 437 724 298 724 q 537 698 498 724 q 595 639 576 673 l 597 639 l 611 682 q 644 712 621 712 l 701 712 q 725 682 732 712 l 574 31 q 537 0 568 0 l 482 0 q 458 31 452 0 l 475 112 l 474 112 q 386 28 441 68 q 262 -12 330 -12 q 104 48 164 -12 q 45 230 45 107 m 171 225 q 195 129 171 180 q 294 77 219 77 q 429 157 355 77 q 523 326 503 238 l 568 522 q 529 609 568 583 q 433 635 490 635 q 254 514 338 635 q 171 225 171 392 m 299 841 q 276 871 269 841 l 290 930 q 327 960 296 960 l 385 960 q 409 930 416 960 l 395 871 q 357 841 388 841 l 299 841 m 574 841 q 551 871 544 841 l 565 930 q 602 960 572 960 l 661 960 q 684 930 691 960 l 671 871 q 633 841 663 841 l 574 841 z "},"å":{"ha":745,"x_min":45,"x_max":732,"o":"m 45 230 q 171 570 45 416 q 437 724 298 724 q 537 698 498 724 q 595 639 576 673 l 597 639 l 611 682 q 644 712 621 712 l 701 712 q 725 682 732 712 l 574 31 q 537 0 568 0 l 482 0 q 458 31 452 0 l 475 112 l 474 112 q 386 28 441 68 q 262 -12 330 -12 q 104 48 164 -12 q 45 230 45 107 m 171 225 q 195 129 171 180 q 294 77 219 77 q 429 157 355 77 q 523 326 503 238 l 568 522 q 529 609 568 583 q 433 635 490 635 q 254 514 338 635 q 171 225 171 392 z "},"æ":{"ha":1152,"x_min":24,"x_max":1097,"o":"m 24 149 q 136 346 24 273 q 519 433 248 419 l 530 479 q 523 593 547 551 q 416 635 498 635 q 311 619 354 635 q 220 556 269 602 q 186 554 201 537 l 154 591 q 164 632 138 610 q 297 702 224 681 q 427 724 370 724 q 549 702 499 724 q 625 626 600 681 l 626 626 q 716 688 652 653 q 876 724 780 724 q 1039 661 981 724 q 1097 528 1097 598 q 1018 384 1097 431 q 772 302 938 336 l 621 271 q 616 243 616 245 q 654 125 616 174 q 771 77 691 77 q 885 108 838 77 q 947 157 932 138 q 990 172 972 188 l 1028 137 q 1024 99 1044 123 q 942 31 1003 73 q 755 -12 881 -12 q 615 21 675 -12 q 526 123 555 54 l 524 123 q 386 25 460 61 q 246 -12 311 -12 q 72 32 119 -12 q 24 149 24 75 m 147 164 q 172 101 147 122 q 256 80 197 80 q 386 108 324 80 q 498 189 448 136 q 501 344 481 256 q 214 279 281 330 q 147 164 147 229 m 624 365 l 748 390 q 931 446 884 417 q 978 533 978 475 q 948 607 978 579 q 854 635 918 635 q 718 573 781 635 q 624 365 654 511 z "},"ç":{"ha":696,"x_min":46,"x_max":683,"o":"m 46 273 q 157 588 46 452 q 448 724 268 724 q 604 685 557 724 q 672 601 651 647 q 663 566 683 576 l 618 542 q 582 559 595 530 q 538 608 572 581 q 439 635 505 635 q 253 541 333 635 q 172 262 172 446 q 212 128 172 180 q 340 77 252 77 q 454 113 410 77 q 518 178 499 149 q 554 187 534 201 l 597 156 q 600 119 616 142 q 514 40 581 92 q 331 -12 448 -12 q 109 79 172 -12 q 46 273 46 170 m 146 -268 q 139 -243 132 -262 l 148 -218 q 175 -206 155 -196 q 233 -214 191 -214 q 287 -201 266 -214 q 308 -166 308 -189 q 291 -139 308 -149 q 241 -128 275 -128 l 222 -128 q 210 -111 208 -128 q 222 -74 215 -83 l 283 0 q 313 15 295 15 l 360 15 q 370 0 382 15 l 317 -65 l 316 -67 q 377 -96 361 -76 q 393 -157 393 -117 q 345 -247 393 -212 q 231 -282 298 -282 q 146 -268 184 -282 z "},"è":{"ha":731,"x_min":46,"x_max":677,"o":"m 46 269 q 152 598 46 472 q 442 724 258 724 q 612 664 547 724 q 677 528 677 604 q 581 380 677 427 q 343 304 485 332 l 176 271 q 172 243 172 245 q 209 127 172 176 q 337 77 245 77 q 463 106 415 77 q 527 157 510 134 q 570 172 551 189 l 610 137 q 606 99 623 125 q 522 32 590 75 q 321 -12 453 -12 q 111 72 176 -12 q 46 269 46 156 m 180 365 l 319 392 q 486 443 414 410 q 557 533 557 475 q 516 607 557 579 q 420 635 474 635 q 274 573 338 635 q 180 365 210 511 z "},"é":{"ha":731,"x_min":46,"x_max":692,"o":"m 46 269 q 152 598 46 472 q 442 724 258 724 q 612 664 547 724 q 677 528 677 604 q 581 380 677 427 q 343 304 485 332 l 176 271 q 172 243 172 245 q 209 127 172 176 q 337 77 245 77 q 463 106 415 77 q 527 157 510 134 q 570 172 551 189 l 610 137 q 606 99 623 125 q 522 32 590 75 q 321 -12 453 -12 q 111 72 176 -12 q 46 269 46 156 m 180 365 l 319 392 q 486 443 414 410 q 557 533 557 475 q 516 607 557 579 q 420 635 474 635 q 274 573 338 635 q 180 365 210 511 z "},"ê":{"ha":731,"x_min":46,"x_max":682,"o":"m 46 269 q 152 598 46 472 q 442 724 258 724 q 612 664 547 724 q 677 528 677 604 q 581 380 677 427 q 343 304 485 332 l 176 271 q 172 243 172 245 q 209 127 172 176 q 337 77 245 77 q 463 106 415 77 q 527 157 510 134 q 570 172 551 189 l 610 137 q 606 99 623 125 q 522 32 590 75 q 321 -12 453 -12 q 111 72 176 -12 q 46 269 46 156 m 180 365 l 319 392 q 486 443 414 410 q 557 533 557 475 q 516 607 557 579 q 420 635 474 635 q 274 573 338 635 q 180 365 210 511 z "},"ë":{"ha":731,"x_min":46,"x_max":696,"o":"m 304 841 q 281 871 274 841 l 295 930 q 332 960 302 960 l 391 960 q 414 930 421 960 l 401 871 q 363 841 393 841 l 304 841 m 580 841 q 557 871 549 841 l 570 930 q 608 960 577 960 l 666 960 q 690 930 696 960 l 676 871 q 638 841 669 841 l 580 841 m 46 269 q 152 598 46 472 q 442 724 258 724 q 612 664 547 724 q 677 528 677 604 q 581 380 677 427 q 343 304 485 332 l 176 271 q 172 243 172 245 q 209 127 172 176 q 337 77 245 77 q 463 106 415 77 q 527 157 510 134 q 570 172 551 189 l 610 137 q 606 99 623 125 q 522 32 590 75 q 321 -12 453 -12 q 111 72 176 -12 q 46 269 46 156 m 180 365 l 319 392 q 486 443 414 410 q 557 533 557 475 q 516 607 557 579 q 420 635 474 635 q 274 573 338 635 q 180 365 210 511 z "},"ì":{"ha":312,"x_min":15,"x_max":353,"o":"m 45 0 q 22 31 15 0 l 172 682 q 210 712 179 712 l 268 712 q 292 682 298 712 l 141 31 q 104 0 134 0 l 45 0 z "},"í":{"ha":312,"x_min":15,"x_max":491,"o":"m 45 0 q 22 31 15 0 l 172 682 q 210 712 179 712 l 268 712 q 292 682 298 712 l 141 31 q 104 0 134 0 l 45 0 z "},"î":{"ha":312,"x_min":15,"x_max":481,"o":"m 45 0 q 22 31 15 0 l 172 682 q 210 712 179 712 l 268 712 q 292 682 298 712 l 141 31 q 104 0 134 0 l 45 0 z "},"ï":{"ha":312,"x_min":15,"x_max":469,"o":"m 45 0 q 22 31 15 0 l 172 682 q 210 712 179 712 l 268 712 q 292 682 298 712 l 141 31 q 104 0 134 0 l 45 0 m 126 841 q 103 871 96 841 l 117 930 q 154 960 123 960 l 212 960 q 236 930 243 960 l 222 871 q 184 841 215 841 l 126 841 m 353 841 q 330 871 322 841 l 343 930 q 380 960 350 960 l 439 960 q 463 930 469 960 l 449 871 q 411 841 441 841 l 353 841 z "},"ð":{"ha":782,"x_min":46,"x_max":747,"o":"m 46 273 q 160 578 46 444 q 441 712 275 712 q 557 691 507 712 q 639 612 608 669 l 642 612 q 591 752 633 690 q 523 842 549 814 l 405 793 q 368 804 376 782 l 355 836 q 374 869 346 858 l 450 901 q 400 929 427 916 q 387 966 370 944 l 411 1000 q 453 1006 426 1020 q 553 943 509 978 l 661 986 q 699 975 690 998 l 711 943 q 692 910 720 922 l 618 880 q 702 743 656 837 q 747 510 747 649 q 629 127 747 266 q 331 -12 511 -12 q 116 67 185 -12 q 46 273 46 146 m 172 262 q 214 121 172 165 q 340 77 255 77 q 528 174 439 77 q 617 441 617 271 q 575 569 617 513 q 446 624 534 624 q 256 531 340 624 q 172 262 172 437 z "},"ñ":{"ha":765,"x_min":15,"x_max":724,"o":"m 45 0 q 22 31 15 0 l 172 682 q 210 712 179 712 l 267 712 q 290 682 297 712 l 272 600 l 275 600 q 379 687 315 650 q 524 724 443 724 q 682 654 640 724 q 696 464 724 585 l 595 31 q 558 0 589 0 l 500 0 q 476 31 469 0 l 569 431 q 567 600 600 564 q 460 635 534 635 q 312 556 378 635 q 221 376 245 477 l 141 31 q 104 0 134 0 l 45 0 z "},"ò":{"ha":779,"x_min":46,"x_max":732,"o":"m 46 273 q 157 588 46 452 q 448 724 268 724 q 669 632 606 724 q 732 439 732 541 q 622 124 732 260 q 331 -12 511 -12 q 109 80 172 -12 q 46 273 46 171 m 172 262 q 212 127 172 178 q 340 77 252 77 q 526 173 446 77 q 606 450 606 269 q 567 585 606 534 q 439 635 527 635 q 253 539 333 635 q 172 262 172 444 z "},"ó":{"ha":779,"x_min":46,"x_max":732,"o":"m 46 273 q 157 588 46 452 q 448 724 268 724 q 669 632 606 724 q 732 439 732 541 q 622 124 732 260 q 331 -12 511 -12 q 109 80 172 -12 q 46 273 46 171 m 172 262 q 212 127 172 178 q 340 77 252 77 q 526 173 446 77 q 606 450 606 269 q 567 585 606 534 q 439 635 527 635 q 253 539 333 635 q 172 262 172 444 m 407 780 q 404 816 373 780 l 516 948 q 575 973 538 973 l 657 973 q 661 938 697 973 l 522 800 q 464 780 501 780 l 407 780 z "},"ô":{"ha":779,"x_min":46,"x_max":732,"o":"m 46 273 q 157 588 46 452 q 448 724 268 724 q 669 632 606 724 q 732 439 732 541 q 622 124 732 260 q 331 -12 511 -12 q 109 80 172 -12 q 46 273 46 171 m 172 262 q 212 127 172 178 q 340 77 252 77 q 526 173 446 77 q 606 450 606 269 q 567 585 606 534 q 439 635 527 635 q 253 539 333 635 q 172 262 172 444 z "},"õ":{"ha":779,"x_min":46,"x_max":732,"o":"m 46 273 q 157 588 46 452 q 448 724 268 724 q 669 632 606 724 q 732 439 732 541 q 622 124 732 260 q 331 -12 511 -12 q 109 80 172 -12 q 46 273 46 171 m 172 262 q 212 127 172 178 q 340 77 252 77 q 526 173 446 77 q 606 450 606 269 q 567 585 606 534 q 439 635 527 635 q 253 539 333 635 q 172 262 172 444 z "},"ö":{"ha":779,"x_min":46,"x_max":732,"o":"m 46 273 q 157 588 46 452 q 448 724 268 724 q 669 632 606 724 q 732 439 732 541 q 622 124 732 260 q 331 -12 511 -12 q 109 80 172 -12 q 46 273 46 171 m 172 262 q 212 127 172 178 q 340 77 252 77 q 526 173 446 77 q 606 450 606 269 q 567 585 606 534 q 439 635 527 635 q 253 539 333 635 q 172 262 172 444 m 321 841 q 298 871 291 841 l 312 930 q 349 960 319 960 l 408 960 q 431 930 438 960 l 418 871 q 380 841 410 841 l 321 841 m 597 841 q 574 871 566 841 l 587 930 q 625 960 594 960 l 683 960 q 707 930 713 960 l 693 871 q 655 841 686 841 l 597 841 z "},"÷":{"ha":868,"x_min":86,"x_max":846,"o":"m 117 451 q 86 475 86 451 l 86 509 q 117 532 86 532 l 815 532 q 846 509 846 532 l 846 475 q 815 451 846 451 l 117 451 m 428 680 q 397 711 397 680 l 397 793 q 428 824 397 824 l 504 824 q 534 793 534 824 l 534 711 q 504 680 534 680 l 428 680 m 428 159 q 397 190 397 159 l 397 273 q 428 303 397 303 l 504 303 q 534 273 534 303 l 534 190 q 504 159 534 159 l 428 159 z "},"ø":{"ha":779,"x_min":-12,"x_max":791,"o":"m 46 273 q 157 588 46 452 q 448 724 268 724 q 659 646 594 724 l 709 690 q 749 691 732 709 l 775 661 q 768 623 791 644 l 705 569 q 732 439 732 507 q 622 124 732 260 q 331 -12 511 -12 q 120 66 184 -12 l 69 22 q 30 21 46 3 l 3 51 q 11 89 -12 68 l 74 143 q 46 273 46 205 m 172 262 q 174 229 172 245 l 574 574 q 439 635 534 635 q 253 539 333 635 q 172 262 172 444 m 204 138 q 340 77 245 77 q 526 173 446 77 q 606 450 606 269 q 605 483 606 467 l 204 138 z "},"ù":{"ha":760,"x_min":43,"x_max":746,"o":"m 71 248 l 171 682 q 208 712 178 712 l 267 712 q 290 682 297 712 l 198 281 q 200 112 168 147 q 304 77 233 77 q 460 156 404 77 q 540 336 516 235 l 620 682 q 657 712 627 712 l 715 712 q 739 682 746 712 l 589 31 q 551 0 582 0 l 494 0 q 471 31 464 0 l 490 112 l 487 112 q 382 25 447 62 q 239 -12 317 -12 q 87 58 131 -12 q 71 248 43 127 z "},"ú":{"ha":760,"x_min":43,"x_max":746,"o":"m 71 248 l 171 682 q 208 712 178 712 l 267 712 q 290 682 297 712 l 198 281 q 200 112 168 147 q 304 77 233 77 q 460 156 404 77 q 540 336 516 235 l 620 682 q 657 712 627 712 l 715 712 q 739 682 746 712 l 589 31 q 551 0 582 0 l 494 0 q 471 31 464 0 l 490 112 l 487 112 q 382 25 447 62 q 239 -12 317 -12 q 87 58 131 -12 q 71 248 43 127 z "},"û":{"ha":760,"x_min":43,"x_max":746,"o":"m 71 248 l 171 682 q 208 712 178 712 l 267 712 q 290 682 297 712 l 198 281 q 200 112 168 147 q 304 77 233 77 q 460 156 404 77 q 540 336 516 235 l 620 682 q 657 712 627 712 l 715 712 q 739 682 746 712 l 589 31 q 551 0 582 0 l 494 0 q 471 31 464 0 l 490 112 l 487 112 q 382 25 447 62 q 239 -12 317 -12 q 87 58 131 -12 q 71 248 43 127 z "},"ü":{"ha":760,"x_min":43,"x_max":746,"o":"m 71 248 l 171 682 q 208 712 178 712 l 267 712 q 290 682 297 712 l 198 281 q 200 112 168 147 q 304 77 233 77 q 460 156 404 77 q 540 336 516 235 l 620 682 q 657 712 627 712 l 715 712 q 739 682 746 712 l 589 31 q 551 0 582 0 l 494 0 q 471 31 464 0 l 490 112 l 487 112 q 382 25 447 62 q 239 -12 317 -12 q 87 58 131 -12 q 71 248 43 127 z "},"ý":{"ha":765,"x_min":-20,"x_max":753,"o":"m 72 248 l 172 682 q 210 712 179 712 l 268 712 q 292 682 298 712 l 199 281 q 201 112 169 147 q 308 77 233 77 q 451 154 380 77 q 547 336 523 231 l 627 682 q 664 712 633 712 l 722 712 q 746 682 753 712 l 587 -6 q 480 -214 555 -145 q 227 -283 405 -283 q 66 -260 111 -283 q 0 -208 22 -238 q 1 -161 -20 -180 l 39 -126 q 73 -126 61 -106 q 132 -177 94 -159 q 248 -195 171 -195 q 388 -148 330 -195 q 471 7 446 -102 q 496 112 486 76 l 493 112 q 391 25 453 62 q 243 -12 330 -12 q 86 58 128 -12 q 72 248 44 127 z "},"þ":{"ha":759,"x_min":-47,"x_max":713,"o":"m -17 -271 q -41 -241 -47 -271 l 239 970 q 276 1001 245 1001 l 334 1001 q 358 970 365 1001 l 282 642 q 271 600 277 622 l 273 600 q 366 689 302 654 q 483 724 429 724 q 662 645 612 724 q 713 455 713 566 q 604 135 713 282 q 347 -12 494 -12 q 229 11 271 -12 q 153 80 187 34 l 151 80 q 143 39 149 61 l 79 -241 q 41 -271 72 -271 l -17 -271 m 180 197 q 224 103 186 129 q 337 77 261 77 q 513 192 440 77 q 587 460 587 307 q 556 583 587 530 q 449 635 526 635 q 314 556 382 635 q 224 387 245 476 l 180 197 z "},"ÿ":{"ha":765,"x_min":-20,"x_max":753,"o":"m 72 248 l 172 682 q 210 712 179 712 l 268 712 q 292 682 298 712 l 199 281 q 201 112 169 147 q 308 77 233 77 q 451 154 380 77 q 547 336 523 231 l 627 682 q 664 712 633 712 l 722 712 q 746 682 753 712 l 587 -6 q 480 -214 555 -145 q 227 -283 405 -283 q 66 -260 111 -283 q 0 -208 22 -238 q 1 -161 -20 -180 l 39 -126 q 73 -126 61 -106 q 132 -177 94 -159 q 248 -195 171 -195 q 388 -148 330 -195 q 471 7 446 -102 q 496 112 486 76 l 493 112 q 391 25 453 62 q 243 -12 330 -12 q 86 58 128 -12 q 72 248 44 127 z "},"Ā":{"ha":922,"x_min":-66,"x_max":871,"o":"m -32 0 q -40 45 -66 0 l 482 931 q 536 972 507 972 l 631 972 q 667 931 659 972 l 820 45 q 791 0 827 0 l 730 0 q 688 33 694 0 l 650 258 l 233 258 l 100 33 q 44 0 81 0 l -32 0 m 299 369 l 630 369 l 583 640 q 568 747 574 689 q 563 855 563 805 l 560 855 q 522 757 548 807 q 458 640 496 707 l 299 369 z "},"ā":{"ha":745,"x_min":45,"x_max":732,"o":"m 45 230 q 171 570 45 416 q 437 724 298 724 q 537 698 498 724 q 595 639 576 673 l 597 639 l 611 682 q 644 712 621 712 l 701 712 q 725 682 732 712 l 574 31 q 537 0 568 0 l 482 0 q 458 31 452 0 l 475 112 l 474 112 q 386 28 441 68 q 262 -12 330 -12 q 104 48 164 -12 q 45 230 45 107 m 171 225 q 195 129 171 180 q 294 77 219 77 q 429 157 355 77 q 523 326 503 238 l 568 522 q 529 609 568 583 q 433 635 490 635 q 254 514 338 635 q 171 225 171 392 z "},"Ă":{"ha":922,"x_min":-66,"x_max":897,"o":"m 399 1210 q 414 1249 390 1242 l 449 1259 q 483 1240 472 1266 q 530 1176 500 1200 q 626 1152 559 1152 q 731 1182 683 1152 q 806 1247 779 1213 q 845 1256 824 1269 l 876 1237 q 879 1195 897 1223 q 761 1086 834 1122 q 614 1050 687 1050 q 481 1088 539 1050 q 399 1210 423 1127 m -32 0 q -40 45 -66 0 l 482 931 q 536 972 507 972 l 631 972 q 667 931 659 972 l 820 45 q 791 0 827 0 l 730 0 q 688 33 694 0 l 650 258 l 233 258 l 100 33 q 44 0 81 0 l -32 0 m 299 369 l 630 369 l 583 640 q 568 747 574 689 q 563 855 563 805 l 560 855 q 522 757 548 807 q 458 640 496 707 l 299 369 z "},"ă":{"ha":745,"x_min":45,"x_max":732,"o":"m 45 230 q 171 570 45 416 q 437 724 298 724 q 537 698 498 724 q 595 639 576 673 l 597 639 l 611 682 q 644 712 621 712 l 701 712 q 725 682 732 712 l 574 31 q 537 0 568 0 l 482 0 q 458 31 452 0 l 475 112 l 474 112 q 386 28 441 68 q 262 -12 330 -12 q 104 48 164 -12 q 45 230 45 107 m 171 225 q 195 129 171 180 q 294 77 219 77 q 429 157 355 77 q 523 326 503 238 l 568 522 q 529 609 568 583 q 433 635 490 635 q 254 514 338 635 q 171 225 171 392 z "},"Ą":{"ha":922,"x_min":-66,"x_max":825,"o":"m -32 0 q -40 45 -66 0 l 482 931 q 536 972 507 972 l 631 972 q 667 931 659 972 l 820 45 q 804 0 825 13 q 709 -67 784 -12 q 635 -158 635 -121 q 645 -185 635 -176 q 680 -195 655 -195 q 729 -191 709 -195 q 747 -205 746 -187 l 751 -258 q 739 -277 753 -274 q 659 -283 709 -283 q 559 -257 591 -283 q 526 -193 526 -232 q 539 -127 526 -157 q 600 -61 552 -96 q 665 -14 648 -26 q 688 33 693 6 l 650 258 l 233 258 l 100 33 q 44 0 81 0 l -32 0 m 299 369 l 630 369 l 583 640 q 568 747 574 689 q 563 855 563 805 l 560 855 q 522 757 548 807 q 458 640 496 707 l 299 369 z "},"ą":{"ha":745,"x_min":45,"x_max":732,"o":"m 45 230 q 171 570 45 416 q 437 724 298 724 q 537 698 498 724 q 595 639 576 673 l 597 639 l 611 682 q 644 712 621 712 l 701 712 q 725 682 732 712 l 574 31 q 556 0 570 10 q 443 -87 492 -47 q 394 -158 394 -126 q 404 -185 394 -176 q 439 -195 414 -195 q 488 -191 468 -195 q 507 -205 505 -187 l 511 -258 q 498 -277 512 -274 q 418 -283 459 -283 q 318 -257 351 -283 q 286 -193 286 -232 q 297 -129 286 -157 q 340 -75 309 -101 q 440 -4 372 -49 q 458 31 453 5 l 475 112 l 474 112 q 386 28 441 68 q 262 -12 330 -12 q 104 48 164 -12 q 45 230 45 107 m 171 225 q 195 129 171 180 q 294 77 219 77 q 429 157 355 77 q 523 326 503 238 l 568 522 q 529 609 568 583 q 433 635 490 635 q 254 514 338 635 q 171 225 171 392 z "},"Ć":{"ha":944,"x_min":75,"x_max":943,"o":"m 75 393 q 217 827 75 661 q 616 993 360 993 q 818 949 741 993 q 927 834 895 906 q 911 780 943 798 l 859 749 q 823 768 840 738 q 749 846 803 804 q 604 887 696 887 q 324 763 435 887 q 214 378 214 639 q 279 170 214 254 q 500 85 344 85 q 656 134 592 85 q 755 231 720 182 q 808 255 784 271 l 869 216 q 864 161 892 201 q 720 32 810 83 q 481 -20 629 -20 q 176 97 277 -20 q 75 393 75 214 z "},"ć":{"ha":696,"x_min":46,"x_max":697,"o":"m 46 273 q 157 588 46 452 q 448 724 268 724 q 604 685 557 724 q 672 601 651 647 q 663 566 683 576 l 618 542 q 582 559 595 530 q 538 608 572 581 q 439 635 505 635 q 253 541 333 635 q 172 262 172 446 q 212 128 172 180 q 340 77 252 77 q 454 113 410 77 q 518 178 499 149 q 554 187 534 201 l 597 156 q 600 119 616 142 q 514 40 581 92 q 331 -12 448 -12 q 109 79 172 -12 q 46 273 46 170 z "},"Ĉ":{"ha":944,"x_min":75,"x_max":943,"o":"m 386 1078 q 412 1112 380 1099 l 580 1183 q 626 1195 609 1195 l 673 1195 q 714 1183 690 1195 l 873 1100 q 882 1065 897 1087 l 863 1038 q 823 1029 849 1016 l 649 1118 l 648 1118 l 431 1029 q 395 1038 401 1016 l 386 1078 m 75 393 q 217 827 75 661 q 616 993 360 993 q 818 949 741 993 q 927 834 895 906 q 911 780 943 798 l 859 749 q 823 768 840 738 q 749 846 803 804 q 604 887 696 887 q 324 763 435 887 q 214 378 214 639 q 279 170 214 254 q 500 85 344 85 q 656 134 592 85 q 755 231 720 182 q 808 255 784 271 l 869 216 q 864 161 892 201 q 720 32 810 83 q 481 -20 629 -20 q 176 97 277 -20 q 75 393 75 214 z "},"ĉ":{"ha":696,"x_min":46,"x_max":687,"o":"m 46 273 q 157 588 46 452 q 448 724 268 724 q 604 685 557 724 q 672 601 651 647 q 663 566 683 576 l 618 542 q 582 559 595 530 q 538 608 572 581 q 439 635 505 635 q 253 541 333 635 q 172 262 172 446 q 212 128 172 180 q 340 77 252 77 q 454 113 410 77 q 518 178 499 149 q 554 187 534 201 l 597 156 q 600 119 616 142 q 514 40 581 92 q 331 -12 448 -12 q 109 79 172 -12 q 46 273 46 170 z "},"Ċ":{"ha":944,"x_min":75,"x_max":943,"o":"m 594 1048 q 570 1078 564 1048 l 587 1147 q 624 1178 593 1178 l 693 1178 q 717 1147 724 1178 l 701 1078 q 663 1048 694 1048 l 594 1048 m 75 393 q 217 827 75 661 q 616 993 360 993 q 818 949 741 993 q 927 834 895 906 q 911 780 943 798 l 859 749 q 823 768 840 738 q 749 846 803 804 q 604 887 696 887 q 324 763 435 887 q 214 378 214 639 q 279 170 214 254 q 500 85 344 85 q 656 134 592 85 q 755 231 720 182 q 808 255 784 271 l 869 216 q 864 161 892 201 q 720 32 810 83 q 481 -20 629 -20 q 176 97 277 -20 q 75 393 75 214 z "},"ċ":{"ha":696,"x_min":46,"x_max":683,"o":"m 46 273 q 157 588 46 452 q 448 724 268 724 q 604 685 557 724 q 672 601 651 647 q 663 566 683 576 l 618 542 q 582 559 595 530 q 538 608 572 581 q 439 635 505 635 q 253 541 333 635 q 172 262 172 446 q 212 128 172 180 q 340 77 252 77 q 454 113 410 77 q 518 178 499 149 q 554 187 534 201 l 597 156 q 600 119 616 142 q 514 40 581 92 q 331 -12 448 -12 q 109 79 172 -12 q 46 273 46 170 z "},"Č":{"ha":944,"x_min":75,"x_max":943,"o":"m 412 1119 q 403 1154 389 1132 l 422 1181 q 462 1190 436 1203 l 636 1101 l 637 1101 l 854 1190 q 890 1181 884 1203 l 899 1141 q 873 1107 905 1120 l 705 1036 q 659 1024 676 1024 l 612 1024 q 571 1036 595 1024 l 412 1119 m 75 393 q 217 827 75 661 q 616 993 360 993 q 818 949 741 993 q 927 834 895 906 q 911 780 943 798 l 859 749 q 823 768 840 738 q 749 846 803 804 q 604 887 696 887 q 324 763 435 887 q 214 378 214 639 q 279 170 214 254 q 500 85 344 85 q 656 134 592 85 q 755 231 720 182 q 808 255 784 271 l 869 216 q 864 161 892 201 q 720 32 810 83 q 481 -20 629 -20 q 176 97 277 -20 q 75 393 75 214 z "},"č":{"ha":696,"x_min":46,"x_max":705,"o":"m 46 273 q 157 588 46 452 q 448 724 268 724 q 604 685 557 724 q 672 601 651 647 q 663 566 683 576 l 618 542 q 582 559 595 530 q 538 608 572 581 q 439 635 505 635 q 253 541 333 635 q 172 262 172 446 q 212 128 172 180 q 340 77 252 77 q 454 113 410 77 q 518 178 499 149 q 554 187 534 201 l 597 156 q 600 119 616 142 q 514 40 581 92 q 331 -12 448 -12 q 109 79 172 -12 q 46 273 46 170 z "},"Ď":{"ha":954,"x_min":34,"x_max":939,"o":"m 424 1119 q 414 1154 400 1132 l 433 1181 q 473 1190 448 1203 l 648 1101 l 649 1101 l 865 1190 q 901 1181 896 1203 l 911 1141 q 885 1107 916 1120 l 717 1036 q 671 1024 688 1024 l 623 1024 q 583 1036 606 1024 l 424 1119 m 68 0 q 43 37 34 0 l 250 935 q 292 972 258 972 l 509 972 q 845 854 751 972 q 939 575 939 735 q 796 172 939 345 q 352 0 654 0 l 68 0 m 190 111 l 372 111 q 698 255 597 111 q 800 583 800 399 q 744 781 800 700 q 477 863 689 863 l 363 863 l 190 111 z "},"ď":{"ha":913,"x_min":47,"x_max":1047,"o":"m 47 257 q 157 577 47 430 q 414 724 266 724 q 531 701 489 724 q 608 632 573 678 l 609 632 q 617 673 611 648 l 686 970 q 723 1001 692 1001 l 781 1001 q 805 970 812 1001 l 588 31 q 551 0 581 0 l 494 0 q 474 31 469 0 l 489 112 l 488 112 q 395 23 458 58 q 277 -12 332 -12 q 98 67 149 -12 q 47 257 47 146 m 174 252 q 204 129 174 182 q 311 77 235 77 q 447 156 378 77 q 536 326 515 236 l 581 515 q 536 609 574 583 q 423 635 499 635 q 247 520 320 635 q 174 252 174 406 m 854 784 q 858 818 839 794 q 892 873 876 841 q 914 939 907 906 l 921 970 q 959 1001 928 1001 l 1017 1001 q 1040 970 1047 1001 l 1036 949 q 990 836 1020 878 q 930 770 960 794 q 895 759 906 752 l 854 784 z "},"Đ":{"ha":981,"x_min":48,"x_max":966,"o":"m 85 444 q 55 474 48 444 l 66 524 q 111 555 73 555 l 189 555 l 277 935 q 319 972 286 972 l 536 972 q 872 854 779 972 q 966 575 966 735 q 823 172 966 345 q 379 0 681 0 l 95 0 q 70 37 61 0 l 163 444 l 85 444 m 217 111 l 399 111 q 725 255 624 111 q 827 583 827 399 q 771 781 827 700 q 505 863 716 863 l 391 863 l 319 555 l 537 555 q 567 524 574 555 l 555 474 q 511 444 549 444 l 294 444 l 217 111 z "},"đ":{"ha":784,"x_min":47,"x_max":899,"o":"m 47 257 q 157 577 47 430 q 414 724 266 724 q 531 701 489 724 q 608 632 573 678 l 609 632 q 617 673 611 648 l 651 819 l 442 819 q 417 843 412 819 l 427 885 q 463 909 432 909 l 671 909 l 686 970 q 723 1001 692 1001 l 781 1001 q 805 970 812 1001 l 791 909 l 868 909 q 893 885 899 909 l 884 843 q 848 819 878 819 l 770 819 l 588 31 q 551 0 581 0 l 494 0 q 474 31 469 0 l 489 112 l 488 112 q 395 23 458 58 q 277 -12 332 -12 q 98 67 149 -12 q 47 257 47 146 m 174 252 q 204 129 174 182 q 311 77 235 77 q 447 156 378 77 q 536 326 515 236 l 581 515 q 536 609 574 583 q 423 635 499 635 q 247 520 320 635 q 174 252 174 406 z "},"Ē":{"ha":861,"x_min":34,"x_max":923,"o":"m 68 0 q 43 37 34 0 l 250 935 q 292 972 258 972 l 886 972 q 916 942 923 972 l 905 892 q 860 861 897 861 l 363 861 l 294 560 l 750 560 q 780 530 787 560 l 768 479 q 724 449 762 449 l 268 449 l 190 111 l 707 111 q 737 81 745 111 l 726 31 q 682 0 719 0 l 68 0 z "},"ē":{"ha":731,"x_min":46,"x_max":696,"o":"m 46 269 q 152 598 46 472 q 442 724 258 724 q 612 664 547 724 q 677 528 677 604 q 581 380 677 427 q 343 304 485 332 l 176 271 q 172 243 172 245 q 209 127 172 176 q 337 77 245 77 q 463 106 415 77 q 527 157 510 134 q 570 172 551 189 l 610 137 q 606 99 623 125 q 522 32 590 75 q 321 -12 453 -12 q 111 72 176 -12 q 46 269 46 156 m 180 365 l 319 392 q 486 443 414 410 q 557 533 557 475 q 516 607 557 579 q 420 635 474 635 q 274 573 338 635 q 180 365 210 511 z "},"Ĕ":{"ha":861,"x_min":34,"x_max":923,"o":"m 416 1210 q 431 1249 407 1242 l 466 1259 q 500 1240 489 1266 q 547 1176 517 1200 q 643 1152 576 1152 q 748 1182 700 1152 q 823 1247 795 1213 q 862 1256 841 1269 l 892 1237 q 896 1195 913 1223 q 778 1086 851 1122 q 631 1050 704 1050 q 498 1088 556 1050 q 416 1210 440 1127 m 68 0 q 43 37 34 0 l 250 935 q 292 972 258 972 l 886 972 q 916 942 923 972 l 905 892 q 860 861 897 861 l 363 861 l 294 560 l 750 560 q 780 530 787 560 l 768 479 q 724 449 762 449 l 268 449 l 190 111 l 707 111 q 737 81 745 111 l 726 31 q 682 0 719 0 l 68 0 z "},"ĕ":{"ha":731,"x_min":46,"x_max":717,"o":"m 46 269 q 152 598 46 472 q 442 724 258 724 q 612 664 547 724 q 677 528 677 604 q 581 380 677 427 q 343 304 485 332 l 176 271 q 172 243 172 245 q 209 127 172 176 q 337 77 245 77 q 463 106 415 77 q 527 157 510 134 q 570 172 551 189 l 610 137 q 606 99 623 125 q 522 32 590 75 q 321 -12 453 -12 q 111 72 176 -12 q 46 269 46 156 m 180 365 l 319 392 q 486 443 414 410 q 557 533 557 475 q 516 607 557 579 q 420 635 474 635 q 274 573 338 635 q 180 365 210 511 z "},"Ė":{"ha":861,"x_min":34,"x_max":923,"o":"m 584 1048 q 560 1078 553 1048 l 576 1147 q 614 1178 583 1178 l 683 1178 q 707 1147 713 1178 l 690 1078 q 653 1048 684 1048 l 584 1048 m 68 0 q 43 37 34 0 l 250 935 q 292 972 258 972 l 886 972 q 916 942 923 972 l 905 892 q 860 861 897 861 l 363 861 l 294 560 l 750 560 q 780 530 787 560 l 768 479 q 724 449 762 449 l 268 449 l 190 111 l 707 111 q 737 81 745 111 l 726 31 q 682 0 719 0 l 68 0 z "},"ė":{"ha":731,"x_min":46,"x_max":677,"o":"m 46 269 q 152 598 46 472 q 442 724 258 724 q 612 664 547 724 q 677 528 677 604 q 581 380 677 427 q 343 304 485 332 l 176 271 q 172 243 172 245 q 209 127 172 176 q 337 77 245 77 q 463 106 415 77 q 527 157 510 134 q 570 172 551 189 l 610 137 q 606 99 623 125 q 522 32 590 75 q 321 -12 453 -12 q 111 72 176 -12 q 46 269 46 156 m 180 365 l 319 392 q 486 443 414 410 q 557 533 557 475 q 516 607 557 579 q 420 635 474 635 q 274 573 338 635 q 180 365 210 511 z "},"Ę":{"ha":861,"x_min":34,"x_max":923,"o":"m 68 0 q 43 37 34 0 l 250 935 q 292 972 258 972 l 886 972 q 916 942 923 972 l 905 892 q 860 861 898 861 l 363 861 l 294 560 l 750 560 q 780 530 787 560 l 768 479 q 724 449 762 449 l 268 449 l 190 111 l 707 111 q 737 81 744 111 l 726 31 q 682 0 719 0 l 677 0 q 558 -87 606 -47 q 510 -158 510 -126 q 520 -185 510 -176 q 555 -195 530 -195 q 604 -191 584 -195 q 623 -205 621 -187 l 627 -258 q 614 -277 628 -274 q 534 -283 575 -283 q 434 -257 467 -283 q 401 -193 401 -232 q 413 -129 401 -157 q 456 -74 425 -101 q 555 -1 486 -46 l 555 1 q 500 0 528 0 l 68 0 z "},"ę":{"ha":731,"x_min":46,"x_max":677,"o":"m 46 269 q 152 598 46 472 q 442 724 258 724 q 612 664 547 724 q 677 528 677 604 q 581 379 677 427 q 343 304 484 332 l 176 271 q 172 243 172 245 q 209 127 172 176 q 337 77 245 77 q 463 106 415 77 q 527 157 510 134 q 570 172 551 189 l 610 137 q 606 99 623 125 q 549 50 592 79 q 475 -2 507 21 q 390 -65 467 -8 q 313 -158 313 -122 q 323 -185 313 -176 q 358 -195 334 -195 q 408 -191 387 -195 q 426 -205 425 -187 l 430 -258 q 418 -277 431 -274 q 338 -283 378 -283 q 237 -257 270 -283 q 205 -193 205 -232 q 217 -129 205 -157 q 257 -77 229 -101 q 351 -13 285 -53 l 351 -9 q 321 -12 333 -12 q 111 72 176 -12 q 46 269 46 156 m 180 365 l 319 392 q 486 443 414 410 q 557 533 557 475 q 516 607 557 579 q 420 635 474 635 q 274 573 338 635 q 180 365 210 511 z "},"Ě":{"ha":861,"x_min":34,"x_max":923,"o":"m 402 1119 q 393 1154 378 1132 l 412 1181 q 452 1190 426 1203 l 626 1101 l 627 1101 l 844 1190 q 880 1181 874 1203 l 889 1141 q 863 1107 895 1120 l 695 1036 q 649 1024 666 1024 l 602 1024 q 561 1036 585 1024 l 402 1119 m 68 0 q 43 37 34 0 l 250 935 q 292 972 258 972 l 886 972 q 916 942 923 972 l 905 892 q 860 861 897 861 l 363 861 l 294 560 l 750 560 q 780 530 787 560 l 768 479 q 724 449 762 449 l 268 449 l 190 111 l 707 111 q 737 81 745 111 l 726 31 q 682 0 719 0 l 68 0 z "},"ě":{"ha":731,"x_min":46,"x_max":699,"o":"m 46 269 q 152 598 46 472 q 442 724 258 724 q 612 664 547 724 q 677 528 677 604 q 581 380 677 427 q 343 304 485 332 l 176 271 q 172 243 172 245 q 209 127 172 176 q 337 77 245 77 q 463 106 415 77 q 527 157 510 134 q 570 172 551 189 l 610 137 q 606 99 623 125 q 522 32 590 75 q 321 -12 453 -12 q 111 72 176 -12 q 46 269 46 156 m 180 365 l 319 392 q 486 443 414 410 q 557 533 557 475 q 516 607 557 579 q 420 635 474 635 q 274 573 338 635 q 180 365 210 511 z "},"Ĝ":{"ha":997,"x_min":75,"x_max":967,"o":"m 391 1078 q 417 1112 386 1099 l 585 1183 q 631 1195 614 1195 l 679 1195 q 720 1183 696 1195 l 878 1100 q 888 1065 902 1087 l 869 1038 q 829 1029 854 1016 l 654 1118 l 653 1118 l 437 1029 q 401 1038 406 1016 l 391 1078 m 75 393 q 217 827 75 661 q 621 993 360 993 q 830 948 753 993 q 937 846 907 903 q 924 791 955 812 l 873 758 q 837 774 854 745 q 763 845 820 804 q 610 887 706 887 q 325 763 435 887 q 214 378 214 639 q 279 170 214 254 q 500 85 344 85 q 663 113 588 85 q 772 178 737 140 l 811 346 l 610 346 q 579 376 572 346 l 591 427 q 635 457 598 457 l 930 457 q 960 427 967 457 l 886 106 q 703 7 789 35 q 481 -20 616 -20 q 176 97 277 -20 q 75 393 75 214 z "},"ĝ":{"ha":759,"x_min":-25,"x_max":745,"o":"m 47 257 q 157 577 47 430 q 414 724 266 724 q 531 701 489 724 q 608 632 573 678 l 609 632 l 625 682 q 658 712 634 712 l 715 712 q 739 682 745 712 l 580 -5 q 471 -214 548 -144 q 219 -283 395 -283 q 69 -261 127 -283 q -11 -202 11 -239 q -8 -161 -25 -178 l 26 -129 q 64 -134 43 -112 q 129 -178 90 -161 q 240 -195 168 -195 q 381 -149 324 -195 q 464 7 439 -103 l 478 71 q 489 112 482 89 l 488 112 q 395 23 458 58 q 277 -12 332 -12 q 98 67 149 -12 q 47 257 47 146 m 174 252 q 204 129 174 182 q 311 77 235 77 q 447 156 378 77 q 536 326 515 236 l 581 515 q 536 609 574 583 q 423 635 499 635 q 247 520 320 635 q 174 252 174 406 z "},"Ğ":{"ha":997,"x_min":75,"x_max":967,"o":"m 432 1210 q 446 1249 422 1242 l 481 1259 q 515 1240 505 1266 q 563 1176 533 1200 q 659 1152 592 1152 q 763 1182 715 1152 q 839 1247 811 1213 q 878 1256 857 1269 l 908 1237 q 911 1195 929 1223 q 793 1086 867 1122 q 647 1050 720 1050 q 514 1088 572 1050 q 432 1210 456 1127 m 75 393 q 217 827 75 661 q 621 993 360 993 q 830 948 753 993 q 937 846 907 903 q 924 791 955 812 l 873 758 q 837 774 854 745 q 763 845 820 804 q 610 887 706 887 q 325 763 435 887 q 214 378 214 639 q 279 170 214 254 q 500 85 344 85 q 663 113 588 85 q 772 178 737 140 l 811 346 l 610 346 q 579 376 572 346 l 591 427 q 635 457 598 457 l 930 457 q 960 427 967 457 l 886 106 q 703 7 789 35 q 481 -20 616 -20 q 176 97 277 -20 q 75 393 75 214 z "},"ğ":{"ha":759,"x_min":-25,"x_max":745,"o":"m 47 257 q 157 577 47 430 q 414 724 266 724 q 531 701 489 724 q 608 632 573 678 l 609 632 l 625 682 q 658 712 634 712 l 715 712 q 739 682 745 712 l 580 -5 q 471 -214 548 -144 q 219 -283 395 -283 q 69 -261 127 -283 q -11 -202 11 -239 q -8 -161 -25 -178 l 26 -129 q 64 -134 43 -112 q 129 -178 90 -161 q 240 -195 168 -195 q 381 -149 324 -195 q 464 7 439 -103 l 478 71 q 489 112 482 89 l 488 112 q 395 23 458 58 q 277 -12 332 -12 q 98 67 149 -12 q 47 257 47 146 m 174 252 q 204 129 174 182 q 311 77 235 77 q 447 156 378 77 q 536 326 515 236 l 581 515 q 536 609 574 583 q 423 635 499 635 q 247 520 320 635 q 174 252 174 406 z "},"Ġ":{"ha":997,"x_min":75,"x_max":967,"o":"m 600 1048 q 576 1078 569 1048 l 592 1147 q 629 1178 599 1178 l 699 1178 q 722 1147 729 1178 l 706 1078 q 669 1048 699 1048 l 600 1048 m 75 393 q 217 827 75 661 q 621 993 360 993 q 830 948 753 993 q 937 846 907 903 q 924 791 955 812 l 873 758 q 837 774 854 745 q 763 845 820 804 q 610 887 706 887 q 325 763 435 887 q 214 378 214 639 q 279 170 214 254 q 500 85 344 85 q 663 113 588 85 q 772 178 737 140 l 811 346 l 610 346 q 579 376 572 346 l 591 427 q 635 457 598 457 l 930 457 q 960 427 967 457 l 886 106 q 703 7 789 35 q 481 -20 616 -20 q 176 97 277 -20 q 75 393 75 214 z "},"ġ":{"ha":759,"x_min":-25,"x_max":745,"o":"m 47 257 q 157 577 47 430 q 414 724 266 724 q 531 701 489 724 q 608 632 573 678 l 609 632 l 625 682 q 658 712 634 712 l 715 712 q 739 682 745 712 l 580 -5 q 471 -214 548 -144 q 219 -283 395 -283 q 69 -261 127 -283 q -11 -202 11 -239 q -8 -161 -25 -178 l 26 -129 q 64 -134 43 -112 q 129 -178 90 -161 q 240 -195 168 -195 q 381 -149 324 -195 q 464 7 439 -103 l 478 71 q 489 112 482 89 l 488 112 q 395 23 458 58 q 277 -12 332 -12 q 98 67 149 -12 q 47 257 47 146 m 174 252 q 204 129 174 182 q 311 77 235 77 q 447 156 378 77 q 536 326 515 236 l 581 515 q 536 609 574 583 q 423 635 499 635 q 247 520 320 635 q 174 252 174 406 z "},"Ĥ":{"ha":964,"x_min":34,"x_max":992,"o":"m 399 1078 q 425 1112 394 1099 l 593 1183 q 640 1195 623 1195 l 687 1195 q 728 1183 704 1195 l 886 1100 q 896 1065 910 1087 l 877 1038 q 837 1029 863 1016 l 663 1118 l 661 1118 l 445 1029 q 409 1038 414 1016 l 399 1078 m 68 0 q 43 37 34 0 l 250 935 q 292 972 258 972 l 355 972 q 380 935 389 972 l 294 562 l 767 562 l 853 935 q 896 972 862 972 l 958 972 q 983 935 992 972 l 777 37 q 734 0 768 0 l 671 0 q 646 37 637 0 l 741 450 l 268 450 l 173 37 q 130 0 164 0 l 68 0 z "},"ĥ":{"ha":765,"x_min":15,"x_max":772,"o":"m 45 0 q 22 31 15 0 l 239 970 q 277 1001 245 1001 l 335 1001 q 358 970 365 1001 l 282 641 q 272 600 278 622 l 275 600 q 379 687 315 650 q 524 724 443 724 q 682 654 640 724 q 696 464 724 585 l 595 31 q 558 0 589 0 l 500 0 q 476 31 469 0 l 569 431 q 567 600 600 564 q 460 635 534 635 q 312 556 378 635 q 221 376 245 477 l 141 31 q 104 0 134 0 l 45 0 z "},"ħ":{"ha":812,"x_min":62,"x_max":771,"o":"m 159 819 q 134 843 128 819 l 143 885 q 179 909 149 909 l 272 909 l 286 970 q 324 1001 293 1001 l 382 1001 q 406 970 413 1001 l 391 909 l 637 909 q 663 885 668 909 l 653 843 q 617 819 648 819 l 371 819 l 330 641 q 319 600 326 622 l 322 600 q 426 687 362 650 q 572 724 490 724 q 729 654 687 724 q 743 464 771 585 l 643 31 q 606 0 636 0 l 547 0 q 524 31 517 0 l 616 431 q 614 600 647 564 q 507 635 582 635 q 359 556 426 635 q 269 376 292 477 l 189 31 q 151 0 182 0 l 93 0 q 69 31 62 0 l 252 819 l 159 819 z "},"Ĩ":{"ha":361,"x_min":34,"x_max":618,"o":"m 114 1068 q 108 1099 98 1077 q 166 1172 127 1143 q 265 1201 205 1201 q 373 1168 316 1201 q 460 1135 430 1135 q 515 1153 492 1135 q 548 1188 537 1171 q 574 1200 561 1208 l 602 1183 q 608 1153 618 1175 q 550 1080 589 1109 q 451 1050 511 1050 q 343 1084 400 1050 q 256 1117 286 1117 q 201 1099 224 1117 q 168 1063 179 1080 q 142 1051 155 1044 l 114 1068 m 68 0 q 43 37 34 0 l 250 935 q 292 972 258 972 l 355 972 q 380 935 389 972 l 173 37 q 130 0 164 0 l 68 0 z "},"ĩ":{"ha":312,"x_min":15,"x_max":496,"o":"m 45 0 q 22 31 15 0 l 172 682 q 210 712 179 712 l 268 712 q 292 682 298 712 l 141 31 q 104 0 134 0 l 45 0 z "},"Ī":{"ha":361,"x_min":34,"x_max":610,"o":"m 68 0 q 43 37 34 0 l 250 935 q 292 972 258 972 l 355 972 q 380 935 389 972 l 173 37 q 130 0 164 0 l 68 0 z "},"ī":{"ha":312,"x_min":15,"x_max":496,"o":"m 45 0 q 22 31 15 0 l 172 682 q 210 712 179 712 l 268 712 q 292 682 298 712 l 141 31 q 104 0 134 0 l 45 0 z "},"Ĭ":{"ha":361,"x_min":34,"x_max":635,"o":"m 138 1210 q 153 1249 129 1242 l 188 1259 q 222 1240 211 1266 q 269 1176 239 1200 q 365 1152 298 1152 q 470 1182 422 1152 q 545 1247 517 1213 q 584 1256 563 1269 l 614 1237 q 618 1195 635 1223 q 499 1086 573 1122 q 353 1050 426 1050 q 220 1088 278 1050 q 138 1210 162 1127 m 68 0 q 43 37 34 0 l 250 935 q 292 972 258 972 l 355 972 q 380 935 389 972 l 173 37 q 130 0 164 0 l 68 0 z "},"ĭ":{"ha":312,"x_min":15,"x_max":516,"o":"m 45 0 q 22 31 15 0 l 172 682 q 210 712 179 712 l 268 712 q 292 682 298 712 l 141 31 q 104 0 134 0 l 45 0 z "},"İ":{"ha":361,"x_min":34,"x_max":435,"o":"m 306 1048 q 282 1078 275 1048 l 298 1147 q 336 1178 305 1178 l 405 1178 q 429 1147 435 1178 l 412 1078 q 375 1048 406 1048 l 306 1048 m 68 0 q 43 37 34 0 l 250 935 q 292 972 258 972 l 355 972 q 380 935 389 972 l 173 37 q 130 0 164 0 l 68 0 z "},"ı":{"ha":312,"x_min":15,"x_max":298,"o":"m 45 0 q 22 31 15 0 l 172 682 q 210 712 179 712 l 268 712 q 292 682 298 712 l 141 31 q 104 0 134 0 l 45 0 z "},"Ĵ":{"ha":559,"x_min":-49,"x_max":806,"o":"m 296 1078 q 321 1112 290 1099 l 490 1183 q 536 1195 519 1195 l 583 1195 q 624 1183 600 1195 l 783 1100 q 792 1065 806 1087 l 773 1038 q 733 1029 759 1016 l 559 1118 l 557 1118 l 341 1029 q 305 1038 311 1016 l 296 1078 m -25 20 q -34 64 -49 34 l -9 112 q 42 121 8 147 q 132 85 90 85 q 235 130 197 85 q 291 256 272 174 l 448 935 q 490 972 456 972 l 553 972 q 578 935 587 972 l 425 272 q 336 66 398 153 q 119 -20 273 -20 q -25 20 40 -20 z "},"ĵ":{"ha":316,"x_min":-208,"x_max":485,"o":"m -197 -269 q -203 -248 -208 -263 l -186 -193 q -167 -182 -181 -175 q -105 -195 -143 -195 q -37 -156 -65 -195 q 20 4 -8 -117 l 176 682 q 214 712 183 712 l 272 712 q 296 682 302 712 l 124 -63 q 32 -239 94 -195 q -104 -283 -30 -283 q -197 -269 -171 -283 z "},"Ĺ":{"ha":770,"x_min":34,"x_max":872,"o":"m 68 0 q 43 37 34 0 l 250 935 q 292 972 258 972 l 355 972 q 380 935 389 972 l 190 111 l 640 111 q 669 81 677 111 l 658 31 q 614 0 651 0 l 68 0 z "},"ĺ":{"ha":312,"x_min":15,"x_max":555,"o":"m 45 0 q 22 31 15 0 l 218 877 q 230 903 220 890 l 298 989 q 324 1013 316 1013 l 348 1013 q 363 989 368 1013 l 141 31 q 104 0 134 0 l 45 0 z "},"Ľ":{"ha":770,"x_min":34,"x_max":736,"o":"m 68 0 q 43 37 34 0 l 250 935 q 292 972 258 972 l 355 972 q 380 935 389 972 l 190 111 l 640 111 q 669 81 677 111 l 658 31 q 614 0 651 0 l 68 0 m 543 784 q 547 818 528 794 q 581 873 565 841 q 603 939 596 906 l 610 970 q 648 1001 616 1001 l 706 1001 q 729 970 736 1001 l 724 949 q 679 836 709 878 q 618 770 649 794 q 583 759 595 752 l 543 784 z "},"ľ":{"ha":464,"x_min":15,"x_max":600,"o":"m 45 0 q 22 31 15 0 l 218 877 q 230 903 220 890 l 298 989 q 324 1013 316 1013 l 348 1013 q 363 989 368 1013 l 141 31 q 104 0 134 0 l 45 0 m 408 784 q 411 818 392 794 q 445 873 429 841 q 467 939 460 906 l 474 970 q 512 1001 481 1001 l 570 1001 q 593 970 600 1001 l 589 949 q 543 836 573 878 q 483 770 513 794 q 448 759 459 752 l 408 784 z "},"Ł":{"ha":842,"x_min":23,"x_max":747,"o":"m 66 301 q 31 311 23 276 l 50 394 q 84 437 56 420 l 225 519 l 321 935 q 363 972 330 972 l 426 972 q 451 935 460 972 l 389 663 q 374 608 382 634 l 377 608 l 587 731 q 622 721 630 756 l 603 638 q 570 595 597 611 l 342 463 l 261 111 l 711 111 q 741 81 747 111 l 729 31 q 685 0 722 0 l 139 0 q 114 37 105 0 l 179 319 q 193 374 186 350 l 190 374 l 66 301 z "},"ł":{"ha":448,"x_min":20,"x_max":510,"o":"m 56 346 q 27 353 20 323 l 44 425 q 76 467 50 450 l 210 550 l 286 877 q 298 903 289 891 l 366 989 q 392 1013 385 1013 l 416 1013 q 431 989 436 1011 l 359 682 q 349 642 355 662 l 350 642 l 475 720 q 503 711 510 742 l 487 640 q 455 599 481 615 l 321 515 l 209 31 q 172 0 202 0 l 113 0 q 90 31 83 0 l 171 383 q 182 424 176 403 l 180 424 l 56 346 z "},"Ń":{"ha":975,"x_min":34,"x_max":1003,"o":"m 68 0 q 43 37 34 0 l 250 935 q 292 972 258 972 l 374 972 q 435 939 422 972 l 698 220 l 701 220 q 712 274 707 251 l 864 935 q 907 972 873 972 l 969 972 q 994 935 1003 972 l 787 37 q 745 0 779 0 l 689 0 q 629 34 642 0 l 349 797 l 347 797 q 336 743 341 767 l 173 37 q 130 0 164 0 l 68 0 z "},"ń":{"ha":765,"x_min":15,"x_max":724,"o":"m 45 0 q 22 31 15 0 l 172 682 q 210 712 179 712 l 267 712 q 290 682 297 712 l 272 600 l 275 600 q 379 687 315 650 q 524 724 443 724 q 682 654 640 724 q 696 464 724 585 l 595 31 q 558 0 589 0 l 500 0 q 476 31 469 0 l 569 431 q 567 600 600 564 q 460 635 534 635 q 312 556 378 635 q 221 376 245 477 l 141 31 q 104 0 134 0 l 45 0 z "},"Ň":{"ha":975,"x_min":34,"x_max":1003,"o":"m 431 1119 q 422 1154 408 1132 l 441 1181 q 481 1190 455 1203 l 655 1101 l 656 1101 l 873 1190 q 909 1181 903 1203 l 918 1141 q 892 1107 924 1120 l 724 1036 q 678 1024 695 1024 l 631 1024 q 590 1036 614 1024 l 431 1119 m 68 0 q 43 37 34 0 l 250 935 q 292 972 258 972 l 374 972 q 435 939 422 972 l 698 220 l 701 220 q 712 274 707 251 l 864 935 q 907 972 873 972 l 969 972 q 994 935 1003 972 l 787 37 q 745 0 779 0 l 689 0 q 629 34 642 0 l 349 797 l 347 797 q 336 743 341 767 l 173 37 q 130 0 164 0 l 68 0 z "},"ň":{"ha":765,"x_min":15,"x_max":726,"o":"m 45 0 q 22 31 15 0 l 172 682 q 210 712 179 712 l 267 712 q 290 682 297 712 l 272 600 l 275 600 q 379 687 315 650 q 524 724 443 724 q 682 654 640 724 q 696 464 724 585 l 595 31 q 558 0 589 0 l 500 0 q 476 31 469 0 l 569 431 q 567 600 600 564 q 460 635 534 635 q 312 556 378 635 q 221 376 245 477 l 141 31 q 104 0 134 0 l 45 0 z "},"Ŋ":{"ha":964,"x_min":34,"x_max":960,"o":"m 68 0 q 43 37 34 0 l 250 935 q 292 972 258 972 l 348 972 q 373 935 379 972 l 353 813 l 356 813 q 500 944 410 895 q 699 993 590 993 q 896 913 832 993 q 929 700 960 833 l 766 -6 q 659 -221 731 -160 q 472 -283 586 -283 q 359 -259 415 -283 q 347 -217 334 -248 l 366 -169 q 412 -157 378 -141 q 485 -177 454 -177 q 574 -138 533 -177 q 644 26 615 -99 l 785 640 q 782 830 816 773 q 617 887 749 887 q 416 784 510 887 q 291 549 321 680 l 173 37 q 130 0 164 0 l 68 0 z "},"ŋ":{"ha":765,"x_min":15,"x_max":724,"o":"m 45 0 q 22 31 15 0 l 172 682 q 210 712 179 712 l 267 712 q 290 682 297 712 l 272 600 l 275 600 q 379 687 315 650 q 524 724 443 724 q 682 654 640 724 q 696 464 724 585 l 574 -63 q 481 -239 543 -195 q 346 -283 420 -283 q 253 -269 279 -283 q 246 -248 241 -263 l 263 -193 q 283 -182 269 -175 q 345 -195 307 -195 q 413 -156 385 -195 q 469 4 441 -117 l 569 431 q 567 600 600 564 q 460 635 534 635 q 312 556 378 635 q 221 376 245 477 l 141 31 q 104 0 134 0 l 45 0 z "},"Ō":{"ha":1027,"x_min":75,"x_max":1014,"o":"m 75 393 q 220 829 75 665 q 595 993 365 993 q 908 883 802 993 q 1014 579 1014 772 q 869 144 1014 308 q 493 -20 724 -20 q 180 90 286 -20 q 75 393 75 200 m 214 377 q 286 162 214 238 q 500 85 358 85 q 762 210 650 85 q 875 595 875 334 q 803 811 875 734 q 588 887 730 887 q 326 763 439 887 q 214 377 214 638 z "},"ō":{"ha":779,"x_min":46,"x_max":732,"o":"m 46 273 q 157 588 46 452 q 448 724 268 724 q 669 632 606 724 q 732 439 732 541 q 622 124 732 260 q 331 -12 511 -12 q 109 80 172 -12 q 46 273 46 171 m 172 262 q 212 127 172 178 q 340 77 252 77 q 526 173 446 77 q 606 450 606 269 q 567 585 606 534 q 439 635 527 635 q 253 539 333 635 q 172 262 172 444 z "},"Ŏ":{"ha":1027,"x_min":75,"x_max":1014,"o":"m 406 1210 q 420 1249 397 1242 l 456 1259 q 490 1240 479 1266 q 537 1176 507 1200 q 633 1152 566 1152 q 738 1182 690 1152 q 813 1247 785 1213 q 852 1256 831 1269 l 882 1237 q 886 1195 903 1223 q 767 1086 841 1122 q 621 1050 694 1050 q 488 1088 546 1050 q 406 1210 430 1127 m 75 393 q 220 829 75 665 q 595 993 365 993 q 908 883 802 993 q 1014 579 1014 772 q 869 144 1014 308 q 493 -20 724 -20 q 180 90 286 -20 q 75 393 75 200 m 214 377 q 286 162 214 238 q 500 85 358 85 q 762 210 650 85 q 875 595 875 334 q 803 811 875 734 q 588 887 730 887 q 326 763 439 887 q 214 377 214 638 z "},"ŏ":{"ha":779,"x_min":46,"x_max":732,"o":"m 46 273 q 157 588 46 452 q 448 724 268 724 q 669 632 606 724 q 732 439 732 541 q 622 124 732 260 q 331 -12 511 -12 q 109 80 172 -12 q 46 273 46 171 m 172 262 q 212 127 172 178 q 340 77 252 77 q 526 173 446 77 q 606 450 606 269 q 567 585 606 534 q 439 635 527 635 q 253 539 333 635 q 172 262 172 444 z "},"Ő":{"ha":1027,"x_min":75,"x_max":1014,"o":"m 455 1044 q 452 1080 418 1044 l 553 1185 q 612 1211 577 1211 l 701 1211 q 705 1175 750 1211 l 563 1064 q 507 1044 537 1044 l 455 1044 m 706 1044 q 703 1080 669 1044 l 804 1185 q 863 1211 828 1211 l 951 1211 q 956 1175 1001 1211 l 814 1064 q 758 1044 788 1044 l 706 1044 m 75 393 q 220 829 75 665 q 595 993 365 993 q 908 883 802 993 q 1014 579 1014 772 q 869 144 1014 308 q 493 -20 724 -20 q 180 90 286 -20 q 75 393 75 200 m 214 377 q 286 162 214 238 q 500 85 358 85 q 762 210 650 85 q 875 595 875 334 q 803 811 875 734 q 588 887 730 887 q 326 763 439 887 q 214 377 214 638 z "},"ő":{"ha":779,"x_min":46,"x_max":783,"o":"m 46 273 q 157 588 46 452 q 448 724 268 724 q 669 632 606 724 q 732 439 732 541 q 622 124 732 260 q 331 -12 511 -12 q 109 80 172 -12 q 46 273 46 171 m 172 262 q 212 127 172 178 q 340 77 252 77 q 526 173 446 77 q 606 450 606 269 q 567 585 606 534 q 439 635 527 635 q 253 539 333 635 q 172 262 172 444 m 532 780 q 529 816 506 780 l 614 948 q 673 973 631 973 l 746 973 q 750 938 783 973 l 623 800 q 568 780 604 780 l 532 780 m 329 780 q 326 816 302 780 l 411 948 q 470 973 427 973 l 543 973 q 547 938 579 973 l 419 800 q 364 780 401 780 l 329 780 z "},"Ŕ":{"ha":939,"x_min":34,"x_max":917,"o":"m 68 0 q 43 37 34 0 l 250 935 q 292 972 258 972 l 600 972 q 844 899 770 972 q 917 716 917 826 q 824 530 917 604 q 597 446 730 456 l 597 444 q 671 364 654 393 q 702 294 687 335 l 791 45 q 768 0 807 0 l 705 0 q 664 26 673 0 l 585 269 q 520 370 569 319 q 379 421 472 421 l 261 421 l 173 37 q 130 0 164 0 l 68 0 m 287 532 l 496 532 q 702 574 618 532 q 785 704 785 616 q 724 831 785 802 q 564 861 663 861 l 363 861 l 287 532 z "},"ŕ":{"ha":490,"x_min":15,"x_max":627,"o":"m 45 0 q 22 31 15 0 l 172 682 q 210 712 179 712 l 267 712 q 290 682 297 712 l 265 573 l 268 573 q 368 687 317 650 q 489 724 419 724 q 545 716 529 724 q 552 696 558 711 l 530 640 q 510 631 525 628 q 463 635 487 635 q 313 539 389 635 q 214 342 237 444 l 141 31 q 104 0 134 0 l 45 0 z "},"Ř":{"ha":939,"x_min":34,"x_max":917,"o":"m 381 1119 q 372 1154 357 1132 l 391 1181 q 431 1190 405 1203 l 605 1101 l 606 1101 l 823 1190 q 859 1181 853 1203 l 868 1141 q 842 1107 873 1120 l 674 1036 q 628 1024 645 1024 l 581 1024 q 540 1036 564 1024 l 381 1119 m 68 0 q 43 37 34 0 l 250 935 q 292 972 258 972 l 600 972 q 844 899 770 972 q 917 716 917 826 q 824 530 917 604 q 597 446 730 456 l 597 444 q 671 364 654 393 q 702 294 687 335 l 791 45 q 768 0 807 0 l 705 0 q 664 26 673 0 l 585 269 q 520 370 569 319 q 379 421 472 421 l 261 421 l 173 37 q 130 0 164 0 l 68 0 m 287 532 l 496 532 q 702 574 618 532 q 785 704 785 616 q 724 831 785 802 q 564 861 663 861 l 363 861 l 287 532 z "},"ř":{"ha":490,"x_min":15,"x_max":635,"o":"m 45 0 q 22 31 15 0 l 172 682 q 210 712 179 712 l 267 712 q 290 682 297 712 l 265 573 l 268 573 q 368 687 317 650 q 489 724 419 724 q 545 716 529 724 q 552 696 558 711 l 530 640 q 510 631 525 628 q 463 635 487 635 q 313 539 389 635 q 214 342 237 444 l 141 31 q 104 0 134 0 l 45 0 z "},"Ś":{"ha":825,"x_min":23,"x_max":821,"o":"m 57 76 q 43 134 23 109 l 82 182 q 140 173 103 208 q 236 109 184 132 q 368 85 288 85 q 482 105 435 85 q 565 161 529 124 q 602 253 602 198 q 593 313 602 282 q 558 368 585 345 q 498 405 531 392 q 419 434 461 420 q 326 473 377 448 q 251 528 282 495 q 201 608 220 562 q 183 706 183 654 q 244 876 183 802 q 380 971 305 950 q 520 993 456 993 q 671 970 610 993 q 783 909 732 948 q 794 855 816 884 l 755 804 q 708 810 739 784 q 628 854 684 830 q 512 878 572 878 q 429 865 473 878 q 349 812 384 852 q 313 715 313 772 q 321 658 313 686 q 352 610 330 631 q 399 578 374 590 q 480 545 438 559 q 555 518 522 532 q 655 462 610 496 q 720 375 700 427 q 739 275 739 322 q 688 115 739 179 q 561 15 636 50 q 357 -20 486 -20 q 173 7 245 -20 q 57 76 100 34 z "},"ś":{"ha":635,"x_min":-1,"x_max":628,"o":"m 19 69 q 14 106 -1 90 l 47 146 q 92 140 62 163 q 175 94 130 111 q 268 77 219 77 q 341 86 304 77 q 401 125 377 96 q 425 184 425 155 q 416 233 425 213 q 387 268 408 254 q 345 290 366 282 q 279 316 316 301 q 210 346 242 331 q 155 389 179 361 q 119 449 130 416 q 107 519 107 482 q 141 628 107 575 q 239 703 175 682 q 378 724 303 724 q 496 705 444 724 q 585 656 548 686 q 587 619 605 639 l 553 581 q 510 589 541 567 q 448 620 483 608 q 375 632 412 632 q 306 623 342 632 q 248 589 270 613 q 227 530 227 564 q 233 486 227 506 q 257 451 240 465 q 294 429 275 437 q 362 401 330 412 q 422 377 395 389 q 500 330 470 357 q 540 269 530 302 q 551 197 551 236 q 504 73 551 122 q 396 6 456 23 q 258 -12 336 -12 q 103 15 161 -12 q 19 69 45 42 z "},"Ŝ":{"ha":825,"x_min":23,"x_max":816,"o":"m 290 1078 q 316 1112 285 1099 l 484 1183 q 530 1195 513 1195 l 578 1195 q 618 1183 595 1195 l 777 1100 q 787 1065 801 1087 l 768 1038 q 728 1029 753 1016 l 553 1118 l 552 1118 l 336 1029 q 300 1038 305 1016 l 290 1078 m 57 76 q 43 134 23 109 l 82 182 q 140 173 103 208 q 236 109 184 132 q 368 85 288 85 q 482 105 435 85 q 565 161 529 124 q 602 253 602 198 q 593 313 602 282 q 558 368 585 345 q 498 405 531 392 q 419 434 461 420 q 326 473 377 448 q 251 528 282 495 q 201 608 220 562 q 183 706 183 654 q 244 876 183 802 q 380 971 305 950 q 520 993 456 993 q 671 970 610 993 q 783 909 732 948 q 794 855 816 884 l 755 804 q 708 810 739 784 q 628 854 684 830 q 512 878 572 878 q 429 865 473 878 q 349 812 384 852 q 313 715 313 772 q 321 658 313 686 q 352 610 330 631 q 399 578 374 590 q 480 545 438 559 q 555 518 522 532 q 655 462 610 496 q 720 375 700 427 q 739 275 739 322 q 688 115 739 179 q 561 15 636 50 q 357 -20 486 -20 q 173 7 245 -20 q 57 76 100 34 z "},"ŝ":{"ha":635,"x_min":-1,"x_max":618,"o":"m 19 69 q 14 106 -1 90 l 47 146 q 92 140 62 163 q 175 94 130 111 q 268 77 219 77 q 341 86 304 77 q 401 125 377 96 q 425 184 425 155 q 416 233 425 213 q 387 268 408 254 q 345 290 366 282 q 279 316 316 301 q 210 346 242 331 q 155 389 179 361 q 119 449 130 416 q 107 519 107 482 q 141 628 107 575 q 239 703 175 682 q 378 724 303 724 q 496 705 444 724 q 585 656 548 686 q 587 619 605 639 l 553 581 q 510 589 541 567 q 448 620 483 608 q 375 632 412 632 q 306 623 342 632 q 248 589 270 613 q 227 530 227 564 q 233 486 227 506 q 257 451 240 465 q 294 429 275 437 q 362 401 330 412 q 422 377 395 389 q 500 330 470 357 q 540 269 530 302 q 551 197 551 236 q 504 73 551 122 q 396 6 456 23 q 258 -12 336 -12 q 103 15 161 -12 q 19 69 45 42 z "},"Š":{"ha":825,"x_min":23,"x_max":816,"o":"m 317 1119 q 307 1154 293 1132 l 326 1181 q 366 1190 340 1203 l 541 1101 l 542 1101 l 758 1190 q 794 1181 789 1203 l 804 1141 q 778 1107 809 1120 l 610 1036 q 564 1024 581 1024 l 516 1024 q 475 1036 499 1024 l 317 1119 m 57 76 q 43 134 23 109 l 82 182 q 140 173 103 208 q 236 109 184 132 q 368 85 288 85 q 482 105 435 85 q 565 161 529 124 q 602 253 602 198 q 593 313 602 282 q 558 368 585 345 q 498 405 531 392 q 419 434 461 420 q 326 473 377 448 q 251 528 282 495 q 201 608 220 562 q 183 706 183 654 q 244 876 183 802 q 380 971 305 950 q 520 993 456 993 q 671 970 610 993 q 783 909 732 948 q 794 855 816 884 l 755 804 q 708 810 739 784 q 628 854 684 830 q 512 878 572 878 q 429 865 473 878 q 349 812 384 852 q 313 715 313 772 q 321 658 313 686 q 352 610 330 631 q 399 578 374 590 q 480 545 438 559 q 555 518 522 532 q 655 462 610 496 q 720 375 700 427 q 739 275 739 322 q 688 115 739 179 q 561 15 636 50 q 357 -20 486 -20 q 173 7 245 -20 q 57 76 100 34 z "},"š":{"ha":635,"x_min":-1,"x_max":635,"o":"m 19 69 q 14 106 -1 90 l 47 146 q 92 140 62 163 q 175 94 130 111 q 268 77 219 77 q 341 86 304 77 q 401 125 377 96 q 425 184 425 155 q 416 233 425 213 q 387 268 408 254 q 345 290 366 282 q 279 316 316 301 q 210 346 242 331 q 155 389 179 361 q 119 449 130 416 q 107 519 107 482 q 141 628 107 575 q 239 703 175 682 q 378 724 303 724 q 496 705 444 724 q 585 656 548 686 q 587 619 605 639 l 553 581 q 510 589 541 567 q 448 620 483 608 q 375 632 412 632 q 306 623 342 632 q 248 589 270 613 q 227 530 227 564 q 233 486 227 506 q 257 451 240 465 q 294 429 275 437 q 362 401 330 412 q 422 377 395 389 q 500 330 470 357 q 540 269 530 302 q 551 197 551 236 q 504 73 551 122 q 396 6 456 23 q 258 -12 336 -12 q 103 15 161 -12 q 19 69 45 42 z "},"Ť":{"ha":841,"x_min":140,"x_max":960,"o":"m 364 1119 q 355 1154 340 1132 l 374 1181 q 414 1190 388 1203 l 588 1101 l 589 1101 l 806 1190 q 842 1181 836 1203 l 851 1141 q 825 1107 857 1120 l 657 1036 q 611 1024 628 1024 l 564 1024 q 523 1036 547 1024 l 364 1119 m 178 856 q 148 886 140 856 l 161 942 q 205 972 168 972 l 922 972 q 953 942 960 972 l 940 886 q 895 856 932 856 l 602 856 l 413 37 q 370 0 404 0 l 308 0 q 283 37 274 0 l 471 856 l 178 856 z "},"ť":{"ha":513,"x_min":81,"x_max":627,"o":"m 124 623 q 99 646 94 623 l 109 688 q 144 712 114 712 l 224 712 l 239 773 q 252 799 242 786 l 319 885 q 345 909 337 909 l 369 909 q 384 885 389 909 l 344 712 l 488 712 q 513 688 519 712 l 504 646 q 468 623 498 623 l 323 623 l 224 191 q 224 98 208 119 q 264 77 241 77 q 329 89 296 77 q 374 108 362 100 q 393 104 389 117 l 411 55 q 404 35 415 43 q 322 3 376 18 q 209 -12 269 -12 q 115 39 149 -12 q 102 183 81 90 l 204 623 l 124 623 m 434 784 q 437 818 418 794 q 471 873 456 841 q 494 939 487 906 l 500 970 q 538 1001 507 1001 l 597 1001 q 620 970 627 1001 l 615 949 q 570 836 600 878 q 509 770 540 794 q 474 759 486 752 l 434 784 z "},"Ũ":{"ha":951,"x_min":70,"x_max":979,"o":"m 409 1068 q 403 1099 393 1077 q 461 1172 422 1143 q 560 1201 500 1201 q 668 1168 611 1201 q 755 1135 725 1135 q 810 1153 787 1135 q 843 1188 832 1171 q 869 1200 856 1208 l 897 1183 q 903 1153 913 1175 q 845 1080 884 1109 q 746 1050 806 1050 q 638 1084 695 1050 q 551 1117 581 1117 q 496 1099 519 1117 q 463 1063 474 1080 q 437 1051 450 1044 l 409 1068 m 119 371 l 250 935 q 292 972 258 972 l 355 972 q 380 935 389 972 l 254 391 q 251 143 211 201 q 414 85 291 85 q 592 143 513 85 q 714 391 671 201 l 840 935 q 882 972 848 972 l 945 972 q 970 935 979 972 l 840 371 q 681 68 790 156 q 389 -20 572 -20 q 162 68 254 -20 q 119 371 70 156 z "},"ũ":{"ha":760,"x_min":43,"x_max":746,"o":"m 71 248 l 171 682 q 208 712 178 712 l 267 712 q 290 682 297 712 l 198 281 q 200 112 168 147 q 304 77 233 77 q 460 156 404 77 q 540 336 516 235 l 620 682 q 657 712 627 712 l 715 712 q 739 682 746 712 l 589 31 q 551 0 582 0 l 494 0 q 471 31 464 0 l 490 112 l 487 112 q 382 25 447 62 q 239 -12 317 -12 q 87 58 131 -12 q 71 248 43 127 z "},"Ū":{"ha":951,"x_min":70,"x_max":979,"o":"m 119 371 l 250 935 q 292 972 258 972 l 355 972 q 380 935 389 972 l 254 391 q 251 143 211 201 q 414 85 291 85 q 592 143 513 85 q 714 391 671 201 l 840 935 q 882 972 848 972 l 945 972 q 970 935 979 972 l 840 371 q 681 68 790 156 q 389 -20 572 -20 q 162 68 254 -20 q 119 371 70 156 z "},"ū":{"ha":760,"x_min":43,"x_max":746,"o":"m 71 248 l 171 682 q 208 712 178 712 l 267 712 q 290 682 297 712 l 198 281 q 200 112 168 147 q 304 77 233 77 q 460 156 404 77 q 540 336 516 235 l 620 682 q 657 712 627 712 l 715 712 q 739 682 746 712 l 589 31 q 551 0 582 0 l 494 0 q 471 31 464 0 l 490 112 l 487 112 q 382 25 447 62 q 239 -12 317 -12 q 87 58 131 -12 q 71 248 43 127 z "},"Ŭ":{"ha":951,"x_min":70,"x_max":979,"o":"m 433 1210 q 448 1249 424 1242 l 483 1259 q 517 1240 506 1266 q 564 1176 534 1200 q 660 1152 593 1152 q 765 1182 717 1152 q 840 1247 812 1213 q 879 1256 858 1269 l 909 1237 q 913 1195 930 1223 q 794 1086 868 1122 q 648 1050 721 1050 q 515 1088 573 1050 q 433 1210 457 1127 m 119 371 l 250 935 q 292 972 258 972 l 355 972 q 380 935 389 972 l 254 391 q 251 143 211 201 q 414 85 291 85 q 592 143 513 85 q 714 391 671 201 l 840 935 q 882 972 848 972 l 945 972 q 970 935 979 972 l 840 371 q 681 68 790 156 q 389 -20 572 -20 q 162 68 254 -20 q 119 371 70 156 z "},"ŭ":{"ha":760,"x_min":43,"x_max":746,"o":"m 71 248 l 171 682 q 208 712 178 712 l 267 712 q 290 682 297 712 l 198 281 q 200 112 168 147 q 304 77 233 77 q 460 156 404 77 q 540 336 516 235 l 620 682 q 657 712 627 712 l 715 712 q 739 682 746 712 l 589 31 q 551 0 582 0 l 494 0 q 471 31 464 0 l 490 112 l 487 112 q 382 25 447 62 q 239 -12 317 -12 q 87 58 131 -12 q 71 248 43 127 z "},"Ů":{"ha":951,"x_min":70,"x_max":979,"o":"m 537 1158 q 572 1242 537 1208 q 661 1275 608 1275 q 749 1241 713 1275 q 784 1158 784 1207 q 749 1074 784 1108 q 661 1040 713 1040 q 572 1074 608 1040 q 537 1158 537 1107 m 590 1158 q 610 1110 590 1129 q 661 1090 629 1090 q 711 1110 692 1090 q 731 1158 731 1129 q 711 1205 731 1186 q 661 1225 692 1225 q 610 1205 629 1225 q 590 1158 590 1186 m 119 371 l 250 935 q 292 972 258 972 l 355 972 q 380 935 389 972 l 254 391 q 251 143 211 201 q 414 85 291 85 q 592 143 513 85 q 714 391 671 201 l 840 935 q 882 972 848 972 l 945 972 q 970 935 979 972 l 840 371 q 681 68 790 156 q 389 -20 572 -20 q 162 68 254 -20 q 119 371 70 156 z "},"ů":{"ha":760,"x_min":43,"x_max":746,"o":"m 71 248 l 171 682 q 208 712 178 712 l 267 712 q 290 682 297 712 l 198 281 q 200 112 168 147 q 304 77 233 77 q 460 156 404 77 q 540 336 516 235 l 620 682 q 657 712 627 712 l 715 712 q 739 682 746 712 l 589 31 q 551 0 582 0 l 494 0 q 471 31 464 0 l 490 112 l 487 112 q 382 25 447 62 q 239 -12 317 -12 q 87 58 131 -12 q 71 248 43 127 z "},"Ű":{"ha":951,"x_min":70,"x_max":1028,"o":"m 482 1044 q 479 1080 445 1044 l 581 1185 q 639 1211 604 1211 l 728 1211 q 732 1175 777 1211 l 590 1064 q 534 1044 564 1044 l 482 1044 m 733 1044 q 730 1080 696 1044 l 831 1185 q 890 1211 855 1211 l 979 1211 q 983 1175 1028 1211 l 841 1064 q 785 1044 815 1044 l 733 1044 m 119 371 l 250 935 q 292 972 258 972 l 355 972 q 380 935 389 972 l 254 391 q 251 143 211 201 q 414 85 291 85 q 592 143 513 85 q 714 391 671 201 l 840 935 q 882 972 848 972 l 945 972 q 970 935 979 972 l 840 371 q 681 68 790 156 q 389 -20 572 -20 q 162 68 254 -20 q 119 371 70 156 z "},"ű":{"ha":760,"x_min":43,"x_max":800,"o":"m 71 248 l 171 682 q 208 712 178 712 l 267 712 q 290 682 297 712 l 198 281 q 200 112 168 147 q 304 77 233 77 q 460 156 404 77 q 540 336 516 235 l 620 682 q 657 712 627 712 l 715 712 q 739 682 746 712 l 589 31 q 551 0 582 0 l 494 0 q 471 31 464 0 l 490 112 l 487 112 q 382 25 447 62 q 239 -12 317 -12 q 87 58 131 -12 q 71 248 43 127 z "},"Ŵ":{"ha":1280,"x_min":161,"x_max":1398,"o":"m 557 1078 q 583 1112 552 1099 l 751 1183 q 798 1195 781 1195 l 845 1195 q 886 1183 862 1195 l 1044 1100 q 1054 1065 1068 1087 l 1035 1038 q 995 1029 1021 1016 l 821 1118 l 819 1118 l 603 1029 q 567 1038 572 1016 l 557 1078 m 163 932 q 190 972 161 972 l 262 972 q 284 941 283 972 l 300 290 q 299 210 300 248 q 298 117 298 172 l 301 117 q 335 197 317 157 q 377 289 353 236 l 675 936 q 726 972 692 972 l 818 972 q 853 936 852 972 l 865 289 q 865 211 866 256 q 865 117 865 165 l 868 117 q 911 208 886 158 q 949 290 935 258 l 1244 941 q 1280 972 1258 972 l 1370 972 q 1378 932 1398 972 l 949 52 q 886 0 923 0 l 802 0 q 766 57 768 0 l 749 707 q 749 787 747 759 q 751 854 751 815 l 749 854 q 724 784 735 812 q 691 707 713 755 l 384 57 q 323 0 357 0 l 238 0 q 200 52 202 0 l 163 932 z "},"ŵ":{"ha":979,"x_min":104,"x_max":1040,"o":"m 106 679 q 132 712 104 712 l 197 712 q 222 686 222 712 l 220 238 q 219 172 220 208 q 218 115 218 136 l 221 115 q 247 174 229 134 q 277 238 265 214 l 500 686 q 536 712 513 712 l 597 712 q 622 686 621 712 l 638 238 q 638 181 639 214 q 637 115 637 148 l 640 115 q 668 176 649 134 q 697 238 688 218 l 900 686 q 937 712 912 712 l 1013 712 q 1024 679 1040 712 l 709 41 q 663 0 688 0 l 581 0 q 554 41 555 0 l 543 490 q 543 552 542 529 q 546 592 544 575 l 545 592 q 527 547 538 575 q 500 490 515 519 l 281 41 q 235 0 261 0 l 154 0 q 127 41 128 0 l 106 679 z "},"Ŷ":{"ha":883,"x_min":151,"x_max":1019,"o":"m 359 1078 q 385 1112 353 1099 l 553 1183 q 599 1195 582 1195 l 646 1195 q 687 1183 663 1195 l 846 1100 q 855 1065 869 1087 l 836 1038 q 796 1029 822 1016 l 622 1118 l 621 1118 l 404 1029 q 368 1038 374 1016 l 359 1078 m 170 928 q 198 972 151 972 l 261 972 q 302 939 291 972 l 408 643 q 434 569 418 616 q 459 481 450 522 l 462 481 q 518 557 490 522 q 587 643 545 592 l 830 939 q 886 972 857 972 l 971 972 q 979 928 1019 972 l 517 400 l 434 37 q 391 0 425 0 l 329 0 q 304 37 295 0 l 387 400 l 170 928 z "},"ŷ":{"ha":765,"x_min":-20,"x_max":753,"o":"m 72 248 l 172 682 q 210 712 179 712 l 268 712 q 292 682 298 712 l 199 281 q 201 112 169 147 q 308 77 233 77 q 451 154 380 77 q 547 336 523 231 l 627 682 q 664 712 633 712 l 722 712 q 746 682 753 712 l 587 -6 q 480 -214 555 -145 q 227 -283 405 -283 q 66 -260 111 -283 q 0 -208 22 -238 q 1 -161 -20 -180 l 39 -126 q 73 -126 61 -106 q 132 -177 94 -159 q 248 -195 171 -195 q 388 -148 330 -195 q 471 7 446 -102 q 496 112 486 76 l 493 112 q 391 25 453 62 q 243 -12 330 -12 q 86 58 128 -12 q 72 248 44 127 z "},"Ÿ":{"ha":883,"x_min":151,"x_max":1019,"o":"m 409 1051 q 385 1082 378 1051 l 399 1144 q 437 1175 407 1175 l 500 1175 q 523 1144 530 1175 l 509 1082 q 471 1051 502 1051 l 409 1051 m 733 1051 q 709 1082 703 1051 l 724 1144 q 762 1175 731 1175 l 824 1175 q 847 1144 854 1175 l 833 1082 q 795 1051 826 1051 l 733 1051 m 170 928 q 198 972 151 972 l 261 972 q 302 939 291 972 l 408 643 q 434 569 418 616 q 459 481 450 522 l 462 481 q 518 557 490 522 q 587 643 545 592 l 830 939 q 886 972 857 972 l 971 972 q 979 928 1019 972 l 517 400 l 434 37 q 391 0 425 0 l 329 0 q 304 37 295 0 l 387 400 l 170 928 z "},"Ź":{"ha":825,"x_min":-37,"x_max":909,"o":"m 0 0 q -31 31 -37 0 l -23 63 q 12 123 -16 94 l 696 860 l 697 863 q 642 861 669 861 l 220 861 q 191 892 184 861 l 202 942 q 246 972 209 972 l 871 972 q 902 942 909 972 l 897 921 q 873 880 892 901 l 172 113 l 172 110 q 227 111 191 111 l 688 111 q 718 81 724 111 l 706 31 q 662 0 699 0 l 0 0 z "},"ź":{"ha":644,"x_min":-44,"x_max":673,"o":"m -14 0 q -39 24 -44 0 l -31 58 q 5 113 -25 81 l 505 623 l 505 624 q 465 623 485 623 l 146 623 q 121 646 116 623 l 131 688 q 167 712 136 712 l 643 712 q 668 688 673 712 l 661 656 q 623 604 656 637 l 121 90 l 121 88 q 162 90 142 90 l 515 90 q 541 66 546 90 l 531 24 q 495 0 526 0 l -14 0 z "},"Ż":{"ha":825,"x_min":-37,"x_max":909,"o":"m 538 1048 q 515 1078 508 1048 l 531 1147 q 568 1178 538 1178 l 637 1178 q 661 1147 668 1178 l 645 1078 q 608 1048 638 1048 l 538 1048 m 0 0 q -31 31 -37 0 l -23 63 q 12 123 -16 94 l 696 860 l 697 863 q 642 861 669 861 l 220 861 q 191 892 184 861 l 202 942 q 246 972 209 972 l 871 972 q 902 942 909 972 l 897 921 q 873 880 892 901 l 172 113 l 172 110 q 227 111 191 111 l 688 111 q 718 81 724 111 l 706 31 q 662 0 699 0 l 0 0 z "},"ż":{"ha":644,"x_min":-44,"x_max":673,"o":"m -14 0 q -39 24 -44 0 l -31 58 q 5 113 -25 81 l 505 623 l 505 624 q 465 623 485 623 l 146 623 q 121 646 116 623 l 131 688 q 167 712 136 712 l 643 712 q 668 688 673 712 l 661 656 q 623 604 656 637 l 121 90 l 121 88 q 162 90 142 90 l 515 90 q 541 66 546 90 l 531 24 q 495 0 526 0 l -14 0 z "},"Ž":{"ha":825,"x_min":-37,"x_max":909,"o":"m 357 1119 q 347 1154 333 1132 l 366 1181 q 406 1190 380 1203 l 581 1101 l 582 1101 l 798 1190 q 834 1181 829 1203 l 844 1141 q 818 1107 849 1120 l 650 1036 q 604 1024 621 1024 l 556 1024 q 515 1036 539 1024 l 357 1119 m 0 0 q -31 31 -37 0 l -23 63 q 12 123 -16 94 l 696 860 l 697 863 q 642 861 669 861 l 220 861 q 191 892 184 861 l 202 942 q 246 972 209 972 l 871 972 q 902 942 909 972 l 897 921 q 873 880 892 901 l 172 113 l 172 110 q 227 111 191 111 l 688 111 q 718 81 724 111 l 706 31 q 662 0 699 0 l 0 0 z "},"ž":{"ha":644,"x_min":-44,"x_max":673,"o":"m -14 0 q -39 24 -44 0 l -31 58 q 5 113 -25 81 l 505 623 l 505 624 q 465 623 485 623 l 146 623 q 121 646 116 623 l 131 688 q 167 712 136 712 l 643 712 q 668 688 673 712 l 661 656 q 623 604 656 637 l 121 90 l 121 88 q 162 90 142 90 l 515 90 q 541 66 546 90 l 531 24 q 495 0 526 0 l -14 0 z "},"ſ":{"ha":393,"x_min":-47,"x_max":589,"o":"m -17 -271 q -41 -241 -47 -271 l 203 813 q 300 969 229 926 q 443 1013 372 1013 q 514 1008 488 1013 q 576 987 540 1003 q 580 965 589 981 l 546 911 q 521 906 537 898 q 489 919 508 913 q 447 924 471 924 q 363 894 393 924 q 317 793 334 864 l 79 -241 q 41 -271 72 -271 l -17 -271 z "},"Ɔ":{"ha":944,"x_min":64,"x_max":932,"o":"m 79 138 q 95 193 64 174 l 148 224 q 183 205 166 235 q 257 127 203 168 q 402 85 311 85 q 682 210 572 85 q 793 595 793 334 q 728 803 793 718 q 507 887 663 887 q 350 839 414 887 q 251 741 286 790 q 198 718 222 702 l 137 757 q 142 811 115 771 q 287 941 196 889 q 525 993 378 993 q 831 876 730 993 q 932 579 932 759 q 789 145 932 311 q 391 -20 646 -20 q 189 23 266 -20 q 79 138 111 66 z "},"Ɖ":{"ha":981,"x_min":48,"x_max":966,"o":"m 85 444 q 55 474 48 444 l 66 524 q 111 555 73 555 l 189 555 l 277 935 q 319 972 286 972 l 536 972 q 872 854 779 972 q 966 575 966 735 q 823 172 966 345 q 379 0 681 0 l 95 0 q 70 37 61 0 l 163 444 l 85 444 m 217 111 l 399 111 q 725 255 624 111 q 827 583 827 399 q 771 781 827 700 q 505 863 716 863 l 391 863 l 319 555 l 537 555 q 567 524 574 555 l 555 474 q 511 444 549 444 l 294 444 l 217 111 z "},"Ə":{"ha":993,"x_min":59,"x_max":980,"o":"m 59 371 q 76 512 59 437 q 126 556 86 555 l 841 556 q 842 612 842 585 q 782 795 842 704 q 564 887 723 887 q 427 869 473 887 q 310 808 381 851 q 256 808 273 785 l 225 851 q 247 900 209 874 q 390 966 303 939 q 587 993 476 993 q 865 892 751 993 q 980 574 980 791 q 844 158 980 337 q 458 -20 708 -20 q 151 106 242 -20 q 59 371 59 233 m 197 359 q 257 177 197 269 q 471 85 317 85 q 692 171 596 85 q 832 445 789 256 l 207 445 q 197 359 197 401 z "},"Ɛ":{"ha":810,"x_min":58,"x_max":824,"o":"m 58 208 q 129 409 58 324 q 320 517 200 493 l 320 520 q 220 599 245 554 q 195 716 195 644 q 281 903 195 812 q 523 993 367 993 q 666 974 602 993 q 789 898 730 955 q 798 840 824 863 l 751 798 q 704 813 733 781 q 624 870 668 853 q 512 887 581 887 q 386 843 444 887 q 327 706 327 798 q 355 611 327 658 q 477 565 382 565 l 549 565 q 574 534 581 565 l 564 487 q 525 458 557 458 l 448 458 q 275 389 353 458 q 197 233 197 320 q 247 114 197 143 q 375 85 296 85 q 500 116 439 85 q 600 182 561 147 q 655 189 635 215 l 692 140 q 676 92 709 119 q 545 17 629 54 q 352 -20 461 -20 q 142 38 227 -20 q 58 208 58 96 z "},"Ƒ":{"ha":791,"x_min":-270,"x_max":882,"o":"m -244 -259 q -257 -217 -270 -248 l -237 -169 q -191 -157 -226 -141 q -119 -177 -150 -177 q -30 -138 -71 -177 q 40 26 12 -99 l 250 935 q 292 972 258 972 l 845 972 q 876 942 882 972 l 864 892 q 819 861 857 861 l 363 861 l 289 540 l 687 540 q 717 509 724 540 l 705 459 q 661 429 699 429 l 263 429 l 163 -6 q 55 -221 127 -160 q -132 -283 -18 -283 q -244 -259 -189 -283 z "},"ƒ":{"ha":442,"x_min":-175,"x_max":638,"o":"m -163 -269 q -170 -248 -175 -263 l -153 -193 q -134 -182 -148 -175 q -72 -195 -110 -195 q -3 -156 -32 -195 q 53 4 25 -117 l 196 623 l 123 623 q 98 646 93 623 l 108 688 q 144 712 113 712 l 216 712 l 240 813 q 337 969 266 926 q 487 1013 408 1013 q 561 1008 534 1013 q 625 987 589 1003 q 629 965 638 981 l 595 911 q 570 906 587 898 q 536 919 557 913 q 491 924 516 924 q 404 897 435 924 q 355 793 372 870 l 336 712 l 460 712 q 485 688 490 712 l 475 646 q 439 623 470 623 l 315 623 l 157 -63 q 65 -239 127 -195 q -71 -283 3 -283 q -163 -269 -138 -283 z "},"Ɣ":{"ha":869,"x_min":154,"x_max":1002,"o":"m 170 928 q 198 972 154 972 l 266 972 q 307 939 298 972 l 403 609 q 428 525 417 561 q 449 445 438 490 l 452 445 q 506 524 480 488 q 568 609 531 559 l 817 939 q 873 972 842 972 l 958 972 q 966 928 1002 972 l 507 363 q 567 250 550 296 q 583 178 583 205 q 524 37 583 94 q 366 -20 464 -20 q 241 12 290 -20 q 192 124 192 45 q 240 240 192 174 q 363 374 289 307 l 170 928 m 322 138 q 335 96 322 107 q 379 85 349 85 q 431 114 410 85 q 453 174 453 143 q 447 220 453 196 q 420 288 441 244 l 417 288 q 350 213 377 256 q 322 138 322 170 z "},"Ɩ":{"ha":553,"x_min":62,"x_max":463,"o":"m 94 263 l 250 935 q 292 972 258 972 l 355 972 q 380 935 389 972 l 214 210 q 216 119 201 153 q 279 85 230 85 q 328 94 303 85 q 387 117 353 102 q 434 108 422 134 l 452 70 q 440 33 463 47 q 359 -4 407 12 q 264 -20 312 -20 q 108 52 153 -20 q 94 263 62 125 z "},"Ɨ":{"ha":476,"x_min":54,"x_max":488,"o":"m 125 0 q 100 37 92 0 l 193 437 l 91 437 q 60 467 54 437 l 72 517 q 117 548 79 548 l 218 548 l 307 935 q 350 972 316 972 l 412 972 q 437 935 446 972 l 349 548 l 450 548 q 480 517 488 548 l 469 467 q 425 437 462 437 l 323 437 l 231 37 q 188 0 222 0 l 125 0 z "},"Ɵ":{"ha":1027,"x_min":75,"x_max":1014,"o":"m 75 393 q 220 829 75 665 q 595 993 365 993 q 908 883 802 993 q 1014 579 1014 772 q 869 144 1014 308 q 493 -20 724 -20 q 180 90 286 -20 q 75 393 75 200 m 214 377 q 286 162 214 238 q 500 85 358 85 q 745 191 650 85 q 865 450 841 297 l 216 450 q 214 377 214 415 m 231 562 l 874 562 q 875 595 875 578 q 803 811 875 734 q 588 887 730 887 q 348 787 439 887 q 231 562 258 687 z "},"Ʃ":{"ha":819,"x_min":-31,"x_max":895,"o":"m 6 0 q -24 31 -31 0 l -17 63 q 18 123 -10 94 l 367 498 q 378 547 390 523 l 203 881 q 199 922 194 899 l 204 942 q 248 972 212 972 l 857 972 q 888 942 895 972 l 876 892 q 831 861 869 861 l 406 861 q 352 863 378 861 l 351 860 l 526 522 q 515 477 537 500 l 172 113 l 172 110 q 227 111 190 111 l 677 111 q 707 81 714 111 l 696 31 q 652 0 689 0 l 6 0 z "},"Ʋ":{"ha":909,"x_min":71,"x_max":892,"o":"m 119 371 l 250 935 q 292 972 258 972 l 355 972 q 380 935 389 972 l 254 391 q 259 139 208 192 q 402 85 310 85 q 640 223 528 85 q 753 597 753 361 q 738 776 753 709 q 684 899 722 844 q 694 945 666 926 l 745 981 q 799 967 775 1002 q 865 829 839 908 q 892 646 892 749 q 760 175 892 371 q 384 -20 627 -20 q 156 71 241 -20 q 119 371 71 161 z "},"Ʒ":{"ha":852,"x_min":15,"x_max":885,"o":"m 42 111 q 39 163 15 144 l 87 201 q 142 187 113 222 q 224 115 176 145 q 371 85 273 85 q 562 155 494 85 q 629 313 629 224 q 587 417 629 378 q 433 455 545 455 l 356 455 q 326 484 319 455 l 336 532 q 366 586 345 566 l 669 860 l 669 863 q 614 861 642 861 l 235 861 q 205 892 198 861 l 216 942 q 260 972 223 972 l 848 972 q 878 942 885 972 l 871 911 q 848 870 865 886 l 509 568 l 509 565 q 694 498 621 565 q 767 323 767 431 q 663 87 767 194 q 357 -20 559 -20 q 149 21 216 -20 q 42 111 81 63 z "},"Ǎ":{"ha":922,"x_min":-66,"x_max":878,"o":"m 385 1119 q 376 1154 361 1132 l 395 1181 q 435 1190 409 1203 l 609 1101 l 610 1101 l 827 1190 q 863 1181 857 1203 l 872 1141 q 846 1107 878 1120 l 678 1036 q 632 1024 649 1024 l 585 1024 q 544 1036 568 1024 l 385 1119 m -32 0 q -40 45 -66 0 l 482 931 q 536 972 507 972 l 631 972 q 667 931 659 972 l 820 45 q 791 0 827 0 l 730 0 q 688 33 694 0 l 650 258 l 233 258 l 100 33 q 44 0 81 0 l -32 0 m 299 369 l 630 369 l 583 640 q 568 747 574 689 q 563 855 563 805 l 560 855 q 522 757 548 807 q 458 640 496 707 l 299 369 z "},"ǎ":{"ha":745,"x_min":45,"x_max":732,"o":"m 45 230 q 171 570 45 416 q 437 724 298 724 q 537 698 498 724 q 595 639 576 673 l 597 639 l 611 682 q 644 712 621 712 l 701 712 q 725 682 732 712 l 574 31 q 537 0 568 0 l 482 0 q 458 31 452 0 l 475 112 l 474 112 q 386 28 441 68 q 262 -12 330 -12 q 104 48 164 -12 q 45 230 45 107 m 171 225 q 195 129 171 180 q 294 77 219 77 q 429 157 355 77 q 523 326 503 238 l 568 522 q 529 609 568 583 q 433 635 490 635 q 254 514 338 635 q 171 225 171 392 z "},"Ǐ":{"ha":361,"x_min":34,"x_max":616,"o":"m 124 1119 q 115 1154 100 1132 l 134 1181 q 174 1190 148 1203 l 348 1101 l 349 1101 l 566 1190 q 602 1181 596 1203 l 611 1141 q 585 1107 616 1120 l 417 1036 q 371 1024 388 1024 l 323 1024 q 283 1036 307 1024 l 124 1119 m 68 0 q 43 37 34 0 l 250 935 q 292 972 258 972 l 355 972 q 380 935 389 972 l 173 37 q 130 0 164 0 l 68 0 z "},"ǐ":{"ha":312,"x_min":15,"x_max":498,"o":"m 45 0 q 22 31 15 0 l 172 682 q 210 712 179 712 l 268 712 q 292 682 298 712 l 141 31 q 104 0 134 0 l 45 0 z "},"Ǒ":{"ha":1027,"x_min":75,"x_max":1014,"o":"m 392 1119 q 382 1154 368 1132 l 401 1181 q 441 1190 416 1203 l 616 1101 l 617 1101 l 833 1190 q 869 1181 864 1203 l 879 1141 q 853 1107 884 1120 l 685 1036 q 639 1024 656 1024 l 591 1024 q 551 1036 574 1024 l 392 1119 m 75 393 q 220 829 75 665 q 595 993 365 993 q 908 883 802 993 q 1014 579 1014 772 q 869 144 1014 308 q 493 -20 724 -20 q 180 90 286 -20 q 75 393 75 200 m 214 377 q 286 162 214 238 q 500 85 358 85 q 762 210 650 85 q 875 595 875 334 q 803 811 875 734 q 588 887 730 887 q 326 763 439 887 q 214 377 214 638 z "},"ǒ":{"ha":779,"x_min":46,"x_max":732,"o":"m 46 273 q 157 588 46 452 q 448 724 268 724 q 669 632 606 724 q 732 439 732 541 q 622 124 732 260 q 331 -12 511 -12 q 109 80 172 -12 q 46 273 46 171 m 172 262 q 212 127 172 178 q 340 77 252 77 q 526 173 446 77 q 606 450 606 269 q 567 585 606 534 q 439 635 527 635 q 253 539 333 635 q 172 262 172 444 z "},"Ǔ":{"ha":951,"x_min":70,"x_max":979,"o":"m 419 1119 q 410 1154 395 1132 l 429 1181 q 469 1190 443 1203 l 643 1101 l 644 1101 l 861 1190 q 897 1181 891 1203 l 906 1141 q 880 1107 911 1120 l 712 1036 q 666 1024 683 1024 l 618 1024 q 578 1036 602 1024 l 419 1119 m 119 371 l 250 935 q 292 972 258 972 l 355 972 q 380 935 389 972 l 254 391 q 251 143 211 201 q 414 85 291 85 q 592 143 513 85 q 714 391 671 201 l 840 935 q 882 972 848 972 l 945 972 q 970 935 979 972 l 840 371 q 681 68 790 156 q 389 -20 572 -20 q 162 68 254 -20 q 119 371 70 156 z "},"ǔ":{"ha":760,"x_min":43,"x_max":746,"o":"m 71 248 l 171 682 q 208 712 178 712 l 267 712 q 290 682 297 712 l 198 281 q 200 112 168 147 q 304 77 233 77 q 460 156 404 77 q 540 336 516 235 l 620 682 q 657 712 627 712 l 715 712 q 739 682 746 712 l 589 31 q 551 0 582 0 l 494 0 q 471 31 464 0 l 490 112 l 487 112 q 382 25 447 62 q 239 -12 317 -12 q 87 58 131 -12 q 71 248 43 127 z "},"ǝ":{"ha":731,"x_min":56,"x_max":686,"o":"m 56 184 q 152 332 56 285 q 389 408 248 380 l 556 441 q 560 469 560 467 q 524 585 560 536 q 395 635 487 635 q 270 606 317 635 q 205 555 222 578 q 163 541 182 523 l 123 575 q 127 613 110 587 q 211 681 142 637 q 412 724 279 724 q 621 640 556 724 q 686 444 686 556 q 580 114 686 240 q 290 -12 474 -12 q 120 48 185 -12 q 56 184 56 109 m 175 179 q 217 105 175 133 q 313 77 258 77 q 459 139 395 77 q 553 347 523 201 l 414 320 q 247 270 319 302 q 175 179 175 237 z "},"Ǣ":{"ha":1327,"x_min":-71,"x_max":1389,"o":"m -31 0 q -40 45 -71 0 l 587 937 q 640 972 612 972 l 1352 972 q 1382 942 1389 972 l 1371 892 q 1326 861 1364 861 l 856 861 l 787 560 l 1216 560 q 1246 530 1253 560 l 1234 479 q 1190 449 1227 449 l 761 449 l 683 111 l 1173 111 q 1203 81 1210 111 l 1192 31 q 1147 0 1185 0 l 561 0 q 536 37 527 0 l 587 258 l 265 258 l 108 33 q 55 0 85 0 l -31 0 m 343 369 l 612 369 l 726 861 l 677 861 q 632 783 656 821 q 585 714 607 745 l 343 369 z "},"ǣ":{"ha":1152,"x_min":24,"x_max":1097,"o":"m 24 149 q 136 346 24 273 q 519 433 248 419 l 530 479 q 523 593 547 551 q 416 635 498 635 q 311 619 354 635 q 220 556 269 602 q 186 554 201 537 l 154 591 q 164 632 138 610 q 297 702 224 681 q 427 724 370 724 q 549 702 499 724 q 625 626 600 681 l 626 626 q 716 688 652 653 q 876 724 780 724 q 1039 661 981 724 q 1097 528 1097 598 q 1018 384 1097 431 q 772 302 938 336 l 621 271 q 616 243 616 245 q 654 125 616 174 q 771 77 691 77 q 885 108 838 77 q 947 157 932 138 q 990 172 972 188 l 1028 137 q 1024 99 1044 123 q 942 31 1003 73 q 755 -12 881 -12 q 615 21 675 -12 q 526 123 555 54 l 524 123 q 386 25 460 61 q 246 -12 311 -12 q 72 32 119 -12 q 24 149 24 75 m 147 164 q 172 101 147 122 q 256 80 197 80 q 386 108 324 80 q 498 189 448 136 q 501 344 481 256 q 214 279 281 330 q 147 164 147 229 m 624 365 l 748 390 q 931 446 884 417 q 978 533 978 475 q 948 607 978 579 q 854 635 918 635 q 718 573 781 635 q 624 365 654 511 z "},"Ǧ":{"ha":997,"x_min":75,"x_max":967,"o":"m 418 1119 q 408 1154 394 1132 l 427 1181 q 467 1190 441 1203 l 642 1101 l 643 1101 l 859 1190 q 895 1181 890 1203 l 905 1141 q 879 1107 910 1120 l 711 1036 q 665 1024 682 1024 l 617 1024 q 576 1036 600 1024 l 418 1119 m 75 393 q 217 827 75 661 q 621 993 360 993 q 830 948 753 993 q 937 846 907 903 q 924 791 955 812 l 873 758 q 837 774 854 745 q 763 845 820 804 q 610 887 706 887 q 325 763 435 887 q 214 378 214 639 q 279 170 214 254 q 500 85 344 85 q 663 113 588 85 q 772 178 737 140 l 811 346 l 610 346 q 579 376 572 346 l 591 427 q 635 457 598 457 l 930 457 q 960 427 967 457 l 886 106 q 703 7 789 35 q 481 -20 616 -20 q 176 97 277 -20 q 75 393 75 214 z "},"ǧ":{"ha":759,"x_min":-25,"x_max":745,"o":"m 47 257 q 157 577 47 430 q 414 724 266 724 q 531 701 489 724 q 608 632 573 678 l 609 632 l 625 682 q 658 712 634 712 l 715 712 q 739 682 745 712 l 580 -5 q 471 -214 548 -144 q 219 -283 395 -283 q 69 -261 127 -283 q -11 -202 11 -239 q -8 -161 -25 -178 l 26 -129 q 64 -134 43 -112 q 129 -178 90 -161 q 240 -195 168 -195 q 381 -149 324 -195 q 464 7 439 -103 l 478 71 q 489 112 482 89 l 488 112 q 395 23 458 58 q 277 -12 332 -12 q 98 67 149 -12 q 47 257 47 146 m 174 252 q 204 129 174 182 q 311 77 235 77 q 447 156 378 77 q 536 326 515 236 l 581 515 q 536 609 574 583 q 423 635 499 635 q 247 520 320 635 q 174 252 174 406 z "},"Ǩ":{"ha":901,"x_min":34,"x_max":1029,"o":"m 438 1119 q 429 1154 414 1132 l 448 1181 q 488 1190 462 1203 l 662 1101 l 663 1101 l 880 1190 q 916 1181 910 1203 l 925 1141 q 899 1107 930 1120 l 731 1036 q 685 1024 702 1024 l 637 1024 q 597 1036 621 1024 l 438 1119 m 68 0 q 43 37 34 0 l 250 935 q 292 972 258 972 l 355 972 q 380 935 389 972 l 292 552 q 277 498 288 537 l 280 498 l 822 946 q 876 972 854 972 l 972 972 q 975 928 1029 972 l 549 576 l 789 45 q 766 0 809 0 l 694 0 q 652 26 665 0 l 444 490 l 238 319 l 173 37 q 130 0 164 0 l 68 0 z "},"ǩ":{"ha":680,"x_min":15,"x_max":778,"o":"m 45 0 q 22 31 15 0 l 239 970 q 277 1001 245 1001 l 335 1001 q 358 970 365 1001 l 230 414 q 219 374 225 395 l 220 374 l 563 694 q 603 712 582 712 l 678 712 q 687 672 730 712 l 410 414 l 564 40 q 537 0 581 0 l 482 0 q 450 25 460 0 l 323 333 l 180 199 l 141 31 q 104 0 134 0 l 45 0 z "},"Ǯ":{"ha":852,"x_min":15,"x_max":885,"o":"m 373 1119 q 363 1154 349 1132 l 382 1181 q 422 1190 397 1203 l 597 1101 l 598 1101 l 814 1190 q 850 1181 845 1203 l 860 1141 q 834 1107 865 1120 l 666 1036 q 620 1024 637 1024 l 572 1024 q 532 1036 555 1024 l 373 1119 m 42 111 q 39 163 15 144 l 87 201 q 142 187 113 222 q 224 115 176 145 q 371 85 273 85 q 562 155 494 85 q 629 313 629 224 q 587 417 629 378 q 433 455 545 455 l 356 455 q 326 484 319 455 l 336 532 q 366 586 345 566 l 669 860 l 669 863 q 614 861 642 861 l 235 861 q 205 892 198 861 l 216 942 q 260 972 223 972 l 848 972 q 878 942 885 972 l 871 911 q 848 870 865 886 l 509 568 l 509 565 q 694 498 621 565 q 767 323 767 431 q 663 87 767 194 q 357 -20 559 -20 q 149 21 216 -20 q 42 111 81 63 z "},"ǯ":{"ha":666,"x_min":-77,"x_max":673,"o":"m -62 -180 q -60 -143 -77 -154 l -18 -115 q 24 -128 2 -102 q 74 -172 41 -149 q 178 -195 107 -195 q 347 -122 288 -195 q 407 66 407 -50 q 363 172 407 136 q 240 208 320 208 l 184 208 q 159 231 153 208 l 170 277 q 197 320 174 298 l 509 623 l 509 624 q 469 623 489 623 l 146 623 q 121 646 116 623 l 131 688 q 167 712 136 712 l 643 712 q 668 688 673 712 l 660 654 q 623 601 655 632 l 311 297 l 311 294 q 470 230 409 294 q 531 75 531 166 q 441 -179 531 -75 q 178 -283 351 -283 q 12 -247 66 -283 q -62 -180 -43 -212 z "},"ǰ":{"ha":316,"x_min":-208,"x_max":503,"o":"m -197 -269 q -203 -248 -208 -263 l -186 -193 q -167 -182 -181 -175 q -105 -195 -143 -195 q -37 -156 -65 -195 q 20 4 -8 -117 l 176 682 q 214 712 183 712 l 272 712 q 296 682 302 712 l 124 -63 q 32 -239 94 -195 q -104 -283 -30 -283 q -197 -269 -171 -283 z "},"Ǵ":{"ha":997,"x_min":75,"x_max":967,"o":"m 75 393 q 217 827 75 661 q 621 993 360 993 q 830 948 753 993 q 937 846 907 903 q 924 791 955 812 l 873 758 q 837 774 854 745 q 763 845 820 804 q 610 887 706 887 q 325 763 435 887 q 214 378 214 639 q 279 170 214 254 q 500 85 344 85 q 663 113 588 85 q 772 178 737 140 l 811 346 l 610 346 q 579 376 572 346 l 591 427 q 635 457 598 457 l 930 457 q 960 427 967 457 l 886 106 q 703 7 789 35 q 481 -20 616 -20 q 176 97 277 -20 q 75 393 75 214 z "},"ǵ":{"ha":759,"x_min":-25,"x_max":745,"o":"m 47 257 q 157 577 47 430 q 414 724 266 724 q 531 701 489 724 q 608 632 573 678 l 609 632 l 625 682 q 658 712 634 712 l 715 712 q 739 682 745 712 l 580 -5 q 471 -214 548 -144 q 219 -283 395 -283 q 69 -261 127 -283 q -11 -202 11 -239 q -8 -161 -25 -178 l 26 -129 q 64 -134 43 -112 q 129 -178 90 -161 q 240 -195 168 -195 q 381 -149 324 -195 q 464 7 439 -103 l 478 71 q 489 112 482 89 l 488 112 q 395 23 458 58 q 277 -12 332 -12 q 98 67 149 -12 q 47 257 47 146 m 174 252 q 204 129 174 182 q 311 77 235 77 q 447 156 378 77 q 536 326 515 236 l 581 515 q 536 609 574 583 q 423 635 499 635 q 247 520 320 635 q 174 252 174 406 z "},"Ǹ":{"ha":975,"x_min":34,"x_max":1003,"o":"m 68 0 q 43 37 34 0 l 250 935 q 292 972 258 972 l 374 972 q 435 939 422 972 l 698 220 l 701 220 q 712 274 707 251 l 864 935 q 907 972 873 972 l 969 972 q 994 935 1003 972 l 787 37 q 745 0 779 0 l 689 0 q 629 34 642 0 l 349 797 l 347 797 q 336 743 341 767 l 173 37 q 130 0 164 0 l 68 0 z "},"ǹ":{"ha":765,"x_min":15,"x_max":724,"o":"m 45 0 q 22 31 15 0 l 172 682 q 210 712 179 712 l 267 712 q 290 682 297 712 l 272 600 l 275 600 q 379 687 315 650 q 524 724 443 724 q 682 654 640 724 q 696 464 724 585 l 595 31 q 558 0 589 0 l 500 0 q 476 31 469 0 l 569 431 q 567 600 600 564 q 460 635 534 635 q 312 556 378 635 q 221 376 245 477 l 141 31 q 104 0 134 0 l 45 0 z "},"Ǽ":{"ha":1327,"x_min":-71,"x_max":1389,"o":"m -31 0 q -40 45 -71 0 l 587 937 q 640 972 612 972 l 1352 972 q 1382 942 1389 972 l 1371 892 q 1326 861 1364 861 l 856 861 l 787 560 l 1216 560 q 1246 530 1253 560 l 1234 479 q 1190 449 1227 449 l 761 449 l 683 111 l 1173 111 q 1203 81 1210 111 l 1192 31 q 1147 0 1185 0 l 561 0 q 536 37 527 0 l 587 258 l 265 258 l 108 33 q 55 0 85 0 l -31 0 m 343 369 l 612 369 l 726 861 l 677 861 q 632 783 656 821 q 585 714 607 745 l 343 369 z "},"ǽ":{"ha":1152,"x_min":24,"x_max":1097,"o":"m 24 149 q 136 346 24 273 q 519 433 248 419 l 530 479 q 523 593 547 551 q 416 635 498 635 q 311 619 354 635 q 220 556 269 602 q 186 554 201 537 l 154 591 q 164 632 138 610 q 297 702 224 681 q 427 724 370 724 q 549 702 499 724 q 625 626 600 681 l 626 626 q 716 688 652 653 q 876 724 780 724 q 1039 661 981 724 q 1097 528 1097 598 q 1018 384 1097 431 q 772 302 938 336 l 621 271 q 616 243 616 245 q 654 125 616 174 q 771 77 691 77 q 885 108 838 77 q 947 157 932 138 q 990 172 972 188 l 1028 137 q 1024 99 1044 123 q 942 31 1003 73 q 755 -12 881 -12 q 615 21 675 -12 q 526 123 555 54 l 524 123 q 386 25 460 61 q 246 -12 311 -12 q 72 32 119 -12 q 24 149 24 75 m 147 164 q 172 101 147 122 q 256 80 197 80 q 386 108 324 80 q 498 189 448 136 q 501 344 481 256 q 214 279 281 330 q 147 164 147 229 m 624 365 l 748 390 q 931 446 884 417 q 978 533 978 475 q 948 607 978 579 q 854 635 918 635 q 718 573 781 635 q 624 365 654 511 z "},"Ǿ":{"ha":1027,"x_min":-8,"x_max":1096,"o":"m 75 393 q 220 829 75 665 q 595 993 365 993 q 910 881 804 993 l 1000 961 q 1048 962 1028 985 l 1076 932 q 1068 884 1096 909 l 969 795 q 1014 579 1014 705 q 869 144 1014 308 q 493 -20 724 -20 q 178 92 284 -20 l 87 12 q 39 10 60 -13 l 12 41 q 20 89 -8 64 l 119 178 q 75 393 75 268 m 214 377 q 226 273 214 319 l 815 796 q 588 887 743 887 q 326 763 439 887 q 214 377 214 638 m 273 176 q 500 85 346 85 q 762 210 650 85 q 875 595 875 334 q 862 701 875 654 l 273 176 z "},"ǿ":{"ha":779,"x_min":-12,"x_max":791,"o":"m 46 273 q 157 588 46 452 q 448 724 268 724 q 659 646 594 724 l 709 690 q 749 691 732 709 l 775 661 q 768 623 791 644 l 705 569 q 732 439 732 507 q 622 124 732 260 q 331 -12 511 -12 q 120 66 184 -12 l 69 22 q 30 21 46 3 l 3 51 q 11 89 -12 68 l 74 143 q 46 273 46 205 m 172 262 q 174 229 172 245 l 574 574 q 439 635 534 635 q 253 539 333 635 q 172 262 172 444 m 204 138 q 340 77 245 77 q 526 173 446 77 q 606 450 606 269 q 605 483 606 467 l 204 138 z "},"Ȁ":{"ha":922,"x_min":-66,"x_max":827,"o":"m -32 0 q -40 45 -66 0 l 482 931 q 536 972 507 972 l 631 972 q 667 931 659 972 l 820 45 q 791 0 827 0 l 730 0 q 688 33 694 0 l 650 258 l 233 258 l 100 33 q 44 0 81 0 l -32 0 m 299 369 l 630 369 l 583 640 q 568 747 574 689 q 563 855 563 805 l 560 855 q 522 757 548 807 q 458 640 496 707 l 299 369 z "},"ȁ":{"ha":745,"x_min":45,"x_max":732,"o":"m 45 230 q 171 570 45 416 q 437 724 298 724 q 537 698 498 724 q 595 639 576 673 l 597 639 l 611 682 q 644 712 621 712 l 701 712 q 725 682 732 712 l 574 31 q 537 0 568 0 l 482 0 q 458 31 452 0 l 475 112 l 474 112 q 386 28 441 68 q 262 -12 330 -12 q 104 48 164 -12 q 45 230 45 107 m 171 225 q 195 129 171 180 q 294 77 219 77 q 429 157 355 77 q 523 326 503 238 l 568 522 q 529 609 568 583 q 433 635 490 635 q 254 514 338 635 q 171 225 171 392 z "},"Ȃ":{"ha":922,"x_min":-66,"x_max":863,"o":"m -32 0 q -40 45 -66 0 l 482 931 q 536 972 507 972 l 631 972 q 667 931 659 972 l 820 45 q 791 0 827 0 l 730 0 q 688 33 694 0 l 650 258 l 233 258 l 100 33 q 44 0 81 0 l -32 0 m 299 369 l 630 369 l 583 640 q 568 747 574 689 q 563 855 563 805 l 560 855 q 522 757 548 807 q 458 640 496 707 l 299 369 z "},"ȃ":{"ha":745,"x_min":45,"x_max":732,"o":"m 45 230 q 171 570 45 416 q 437 724 298 724 q 537 698 498 724 q 595 639 576 673 l 597 639 l 611 682 q 644 712 621 712 l 701 712 q 725 682 732 712 l 574 31 q 537 0 568 0 l 482 0 q 458 31 452 0 l 475 112 l 474 112 q 386 28 441 68 q 262 -12 330 -12 q 104 48 164 -12 q 45 230 45 107 m 171 225 q 195 129 171 180 q 294 77 219 77 q 429 157 355 77 q 523 326 503 238 l 568 522 q 529 609 568 583 q 433 635 490 635 q 254 514 338 635 q 171 225 171 392 z "},"Ȅ":{"ha":861,"x_min":34,"x_max":923,"o":"m 68 0 q 43 37 34 0 l 250 935 q 292 972 258 972 l 886 972 q 916 942 923 972 l 905 892 q 860 861 897 861 l 363 861 l 294 560 l 750 560 q 780 530 787 560 l 768 479 q 724 449 762 449 l 268 449 l 190 111 l 707 111 q 737 81 745 111 l 726 31 q 682 0 719 0 l 68 0 z "},"ȅ":{"ha":731,"x_min":46,"x_max":677,"o":"m 46 269 q 152 598 46 472 q 442 724 258 724 q 612 664 547 724 q 677 528 677 604 q 581 380 677 427 q 343 304 485 332 l 176 271 q 172 243 172 245 q 209 127 172 176 q 337 77 245 77 q 463 106 415 77 q 527 157 510 134 q 570 172 551 189 l 610 137 q 606 99 623 125 q 522 32 590 75 q 321 -12 453 -12 q 111 72 176 -12 q 46 269 46 156 m 180 365 l 319 392 q 486 443 414 410 q 557 533 557 475 q 516 607 557 579 q 420 635 474 635 q 274 573 338 635 q 180 365 210 511 z "},"Ȇ":{"ha":861,"x_min":34,"x_max":923,"o":"m 68 0 q 43 37 34 0 l 250 935 q 292 972 258 972 l 886 972 q 916 942 923 972 l 905 892 q 860 861 897 861 l 363 861 l 294 560 l 750 560 q 780 530 787 560 l 768 479 q 724 449 762 449 l 268 449 l 190 111 l 707 111 q 737 81 745 111 l 726 31 q 682 0 719 0 l 68 0 z "},"ȇ":{"ha":731,"x_min":46,"x_max":686,"o":"m 46 269 q 152 598 46 472 q 442 724 258 724 q 612 664 547 724 q 677 528 677 604 q 581 380 677 427 q 343 304 485 332 l 176 271 q 172 243 172 245 q 209 127 172 176 q 337 77 245 77 q 463 106 415 77 q 527 157 510 134 q 570 172 551 189 l 610 137 q 606 99 623 125 q 522 32 590 75 q 321 -12 453 -12 q 111 72 176 -12 q 46 269 46 156 m 180 365 l 319 392 q 486 443 414 410 q 557 533 557 475 q 516 607 557 579 q 420 635 474 635 q 274 573 338 635 q 180 365 210 511 z "},"Ȉ":{"ha":361,"x_min":-28,"x_max":492,"o":"m 68 0 q 43 37 34 0 l 250 935 q 292 972 258 972 l 355 972 q 380 935 389 972 l 173 37 q 130 0 164 0 l 68 0 z "},"ȉ":{"ha":312,"x_min":-21,"x_max":393,"o":"m 45 0 q 22 31 15 0 l 172 682 q 210 712 179 712 l 268 712 q 292 682 298 712 l 141 31 q 104 0 134 0 l 45 0 z "},"Ȋ":{"ha":361,"x_min":34,"x_max":602,"o":"m 68 0 q 43 37 34 0 l 250 935 q 292 972 258 972 l 355 972 q 380 935 389 972 l 173 37 q 130 0 164 0 l 68 0 z "},"ȋ":{"ha":312,"x_min":15,"x_max":485,"o":"m 45 0 q 22 31 15 0 l 172 682 q 210 712 179 712 l 268 712 q 292 682 298 712 l 141 31 q 104 0 134 0 l 45 0 z "},"Ȍ":{"ha":1027,"x_min":75,"x_max":1014,"o":"m 75 393 q 220 829 75 665 q 595 993 365 993 q 908 883 802 993 q 1014 579 1014 772 q 869 144 1014 308 q 493 -20 724 -20 q 180 90 286 -20 q 75 393 75 200 m 214 377 q 286 162 214 238 q 500 85 358 85 q 762 210 650 85 q 875 595 875 334 q 803 811 875 734 q 588 887 730 887 q 326 763 439 887 q 214 377 214 638 m 276 1175 q 290 1211 241 1211 l 363 1211 q 422 1185 408 1211 l 486 1080 q 472 1044 507 1044 l 436 1044 q 387 1064 407 1044 l 276 1175 m 527 1175 q 541 1211 492 1211 l 614 1211 q 665 1185 648 1211 l 736 1080 q 723 1044 761 1044 l 687 1044 q 638 1064 658 1044 l 527 1175 z "},"ȍ":{"ha":779,"x_min":46,"x_max":732,"o":"m 46 273 q 157 588 46 452 q 448 724 268 724 q 669 632 606 724 q 732 439 732 541 q 622 124 732 260 q 331 -12 511 -12 q 109 80 172 -12 q 46 273 46 171 m 172 262 q 212 127 172 178 q 340 77 252 77 q 526 173 446 77 q 606 450 606 269 q 567 585 606 534 q 439 635 527 635 q 253 539 333 635 q 172 262 172 444 m 208 938 q 223 973 185 973 l 282 973 q 333 948 323 973 l 382 816 q 369 780 395 780 l 347 780 q 298 800 311 780 l 208 938 m 412 938 q 427 973 389 973 l 486 973 q 536 948 527 973 l 585 816 q 572 780 599 780 l 551 780 q 501 800 514 780 l 412 938 z "},"Ȏ":{"ha":1027,"x_min":75,"x_max":1014,"o":"m 75 393 q 220 829 75 665 q 595 993 365 993 q 908 883 802 993 q 1014 579 1014 772 q 869 144 1014 308 q 493 -20 724 -20 q 180 90 286 -20 q 75 393 75 200 m 214 377 q 286 162 214 238 q 500 85 358 85 q 762 210 650 85 q 875 595 875 334 q 803 811 875 734 q 588 887 730 887 q 326 763 439 887 q 214 377 214 638 z "},"ȏ":{"ha":779,"x_min":46,"x_max":732,"o":"m 46 273 q 157 588 46 452 q 448 724 268 724 q 669 632 606 724 q 732 439 732 541 q 622 124 732 260 q 331 -12 511 -12 q 109 80 172 -12 q 46 273 46 171 m 172 262 q 212 127 172 178 q 340 77 252 77 q 526 173 446 77 q 606 450 606 269 q 567 585 606 534 q 439 635 527 635 q 253 539 333 635 q 172 262 172 444 z "},"Ȑ":{"ha":939,"x_min":34,"x_max":917,"o":"m 68 0 q 43 37 34 0 l 250 935 q 292 972 258 972 l 600 972 q 844 899 770 972 q 917 716 917 826 q 824 530 917 604 q 597 446 730 456 l 597 444 q 671 364 654 393 q 702 294 687 335 l 791 45 q 768 0 807 0 l 705 0 q 664 26 673 0 l 585 269 q 520 370 569 319 q 379 421 472 421 l 261 421 l 173 37 q 130 0 164 0 l 68 0 m 287 532 l 496 532 q 702 574 618 532 q 785 704 785 616 q 724 831 785 802 q 564 861 663 861 l 363 861 l 287 532 z "},"ȑ":{"ha":490,"x_min":15,"x_max":558,"o":"m 45 0 q 22 31 15 0 l 172 682 q 210 712 179 712 l 267 712 q 290 682 297 712 l 265 573 l 268 573 q 368 687 317 650 q 489 724 419 724 q 545 716 529 724 q 552 696 558 711 l 530 640 q 510 631 525 628 q 463 635 487 635 q 313 539 389 635 q 214 342 237 444 l 141 31 q 104 0 134 0 l 45 0 z "},"Ȓ":{"ha":939,"x_min":34,"x_max":917,"o":"m 68 0 q 43 37 34 0 l 250 935 q 292 972 258 972 l 600 972 q 844 899 770 972 q 917 716 917 826 q 824 530 917 604 q 597 446 730 456 l 597 444 q 671 364 654 393 q 702 294 687 335 l 791 45 q 768 0 807 0 l 705 0 q 664 26 673 0 l 585 269 q 520 370 569 319 q 379 421 472 421 l 261 421 l 173 37 q 130 0 164 0 l 68 0 m 287 532 l 496 532 q 702 574 618 532 q 785 704 785 616 q 724 831 785 802 q 564 861 663 861 l 363 861 l 287 532 z "},"ȓ":{"ha":490,"x_min":15,"x_max":621,"o":"m 45 0 q 22 31 15 0 l 172 682 q 210 712 179 712 l 267 712 q 290 682 297 712 l 265 573 l 268 573 q 368 687 317 650 q 489 724 419 724 q 545 716 529 724 q 552 696 558 711 l 530 640 q 510 631 525 628 q 463 635 487 635 q 313 539 389 635 q 214 342 237 444 l 141 31 q 104 0 134 0 l 45 0 z "},"Ȕ":{"ha":951,"x_min":70,"x_max":979,"o":"m 119 371 l 250 935 q 292 972 258 972 l 355 972 q 380 935 389 972 l 254 391 q 251 143 211 201 q 414 85 291 85 q 592 143 513 85 q 714 391 671 201 l 840 935 q 882 972 848 972 l 945 972 q 970 935 979 972 l 840 371 q 681 68 790 156 q 389 -20 572 -20 q 162 68 254 -20 q 119 371 70 156 z "},"ȕ":{"ha":760,"x_min":43,"x_max":746,"o":"m 71 248 l 171 682 q 208 712 178 712 l 267 712 q 290 682 297 712 l 198 281 q 200 112 168 147 q 304 77 233 77 q 460 156 404 77 q 540 336 516 235 l 620 682 q 657 712 627 712 l 715 712 q 739 682 746 712 l 589 31 q 551 0 582 0 l 494 0 q 471 31 464 0 l 490 112 l 487 112 q 382 25 447 62 q 239 -12 317 -12 q 87 58 131 -12 q 71 248 43 127 z "},"Ȗ":{"ha":951,"x_min":70,"x_max":979,"o":"m 119 371 l 250 935 q 292 972 258 972 l 355 972 q 380 935 389 972 l 254 391 q 251 143 211 201 q 414 85 291 85 q 592 143 513 85 q 714 391 671 201 l 840 935 q 882 972 848 972 l 945 972 q 970 935 979 972 l 840 371 q 681 68 790 156 q 389 -20 572 -20 q 162 68 254 -20 q 119 371 70 156 z "},"ȗ":{"ha":760,"x_min":43,"x_max":746,"o":"m 71 248 l 171 682 q 208 712 178 712 l 267 712 q 290 682 297 712 l 198 281 q 200 112 168 147 q 304 77 233 77 q 460 156 404 77 q 540 336 516 235 l 620 682 q 657 712 627 712 l 715 712 q 739 682 746 712 l 589 31 q 551 0 582 0 l 494 0 q 471 31 464 0 l 490 112 l 487 112 q 382 25 447 62 q 239 -12 317 -12 q 87 58 131 -12 q 71 248 43 127 z "},"Ȟ":{"ha":964,"x_min":34,"x_max":992,"o":"m 426 1119 q 416 1154 402 1132 l 435 1181 q 475 1190 450 1203 l 650 1101 l 651 1101 l 867 1190 q 903 1181 898 1203 l 913 1141 q 887 1107 918 1120 l 719 1036 q 673 1024 690 1024 l 625 1024 q 585 1036 608 1024 l 426 1119 m 68 0 q 43 37 34 0 l 250 935 q 292 972 258 972 l 355 972 q 380 935 389 972 l 294 562 l 767 562 l 853 935 q 896 972 862 972 l 958 972 q 983 935 992 972 l 777 37 q 734 0 768 0 l 671 0 q 646 37 637 0 l 741 450 l 268 450 l 173 37 q 130 0 164 0 l 68 0 z "},"ȟ":{"ha":765,"x_min":15,"x_max":789,"o":"m 45 0 q 22 31 15 0 l 239 970 q 277 1001 245 1001 l 335 1001 q 358 970 365 1001 l 282 641 q 272 600 278 622 l 275 600 q 379 687 315 650 q 524 724 443 724 q 682 654 640 724 q 696 464 724 585 l 595 31 q 558 0 589 0 l 500 0 q 476 31 469 0 l 569 431 q 567 600 600 564 q 460 635 534 635 q 312 556 378 635 q 221 376 245 477 l 141 31 q 104 0 134 0 l 45 0 z "},"Ȧ":{"ha":922,"x_min":-66,"x_max":827,"o":"m 567 1048 q 543 1078 536 1048 l 559 1147 q 597 1178 566 1178 l 666 1178 q 690 1147 696 1178 l 673 1078 q 636 1048 667 1048 l 567 1048 m -32 0 q -40 45 -66 0 l 482 931 q 536 972 507 972 l 631 972 q 667 931 659 972 l 820 45 q 791 0 827 0 l 730 0 q 688 33 694 0 l 650 258 l 233 258 l 100 33 q 44 0 81 0 l -32 0 m 299 369 l 630 369 l 583 640 q 568 747 574 689 q 563 855 563 805 l 560 855 q 522 757 548 807 q 458 640 496 707 l 299 369 z "},"ȧ":{"ha":745,"x_min":45,"x_max":732,"o":"m 45 230 q 171 570 45 416 q 437 724 298 724 q 537 698 498 724 q 595 639 576 673 l 597 639 l 611 682 q 644 712 621 712 l 701 712 q 725 682 732 712 l 574 31 q 537 0 568 0 l 482 0 q 458 31 452 0 l 475 112 l 474 112 q 386 28 441 68 q 262 -12 330 -12 q 104 48 164 -12 q 45 230 45 107 m 171 225 q 195 129 171 180 q 294 77 219 77 q 429 157 355 77 q 523 326 503 238 l 568 522 q 529 609 568 583 q 433 635 490 635 q 254 514 338 635 q 171 225 171 392 z "},"Ȯ":{"ha":1027,"x_min":75,"x_max":1014,"o":"m 574 1048 q 550 1078 543 1048 l 566 1147 q 604 1178 573 1178 l 673 1178 q 696 1147 703 1178 l 680 1078 q 643 1048 673 1048 l 574 1048 m 75 393 q 220 829 75 665 q 595 993 365 993 q 908 883 802 993 q 1014 579 1014 772 q 869 144 1014 308 q 493 -20 724 -20 q 180 90 286 -20 q 75 393 75 200 m 214 377 q 286 162 214 238 q 500 85 358 85 q 762 210 650 85 q 875 595 875 334 q 803 811 875 734 q 588 887 730 887 q 326 763 439 887 q 214 377 214 638 z "},"ȯ":{"ha":779,"x_min":46,"x_max":732,"o":"m 46 273 q 157 588 46 452 q 448 724 268 724 q 669 632 606 724 q 732 439 732 541 q 622 124 732 260 q 331 -12 511 -12 q 109 80 172 -12 q 46 273 46 171 m 172 262 q 212 127 172 178 q 340 77 252 77 q 526 173 446 77 q 606 450 606 269 q 567 585 606 534 q 439 635 527 635 q 253 539 333 635 q 172 262 172 444 z "},"Ȳ":{"ha":883,"x_min":151,"x_max":1019,"o":"m 170 928 q 198 972 151 972 l 261 972 q 302 939 291 972 l 408 643 q 434 569 418 616 q 459 481 450 522 l 462 481 q 518 557 490 522 q 587 643 545 592 l 830 939 q 886 972 857 972 l 971 972 q 979 928 1019 972 l 517 400 l 434 37 q 391 0 425 0 l 329 0 q 304 37 295 0 l 387 400 l 170 928 z "},"ȳ":{"ha":765,"x_min":-20,"x_max":753,"o":"m 72 248 l 172 682 q 210 712 179 712 l 268 712 q 292 682 298 712 l 199 281 q 201 112 169 147 q 308 77 233 77 q 451 154 380 77 q 547 336 523 231 l 627 682 q 664 712 633 712 l 722 712 q 746 682 753 712 l 587 -6 q 480 -214 555 -145 q 227 -283 405 -283 q 66 -260 111 -283 q 0 -208 22 -238 q 1 -161 -20 -180 l 39 -126 q 73 -126 61 -106 q 132 -177 94 -159 q 248 -195 171 -195 q 388 -148 330 -195 q 471 7 446 -102 q 496 112 486 76 l 493 112 q 391 25 453 62 q 243 -12 330 -12 q 86 58 128 -12 q 72 248 44 127 z "},"ȷ":{"ha":316,"x_min":-208,"x_max":302,"o":"m -197 -269 q -203 -248 -208 -263 l -186 -193 q -167 -182 -181 -175 q -105 -195 -143 -195 q -37 -156 -65 -195 q 20 4 -8 -117 l 176 682 q 214 712 183 712 l 272 712 q 296 682 302 712 l 124 -63 q 32 -239 94 -195 q -104 -283 -30 -283 q -197 -269 -171 -283 z "},"Ʉ":{"ha":1066,"x_min":54,"x_max":1078,"o":"m 91 437 q 60 467 54 437 l 72 517 q 117 548 79 548 l 218 548 l 307 935 q 350 972 316 972 l 412 972 q 437 935 446 972 l 348 548 l 808 548 l 897 935 q 940 972 906 972 l 1002 972 q 1027 935 1036 972 l 938 548 l 939 548 l 1040 548 q 1070 517 1078 548 l 1059 467 q 1015 437 1052 437 l 913 437 l 912 437 l 897 371 q 739 68 848 156 q 447 -20 629 -20 q 220 68 312 -20 q 177 371 127 156 l 192 437 l 91 437 m 312 391 q 309 143 269 201 q 471 85 349 85 q 649 143 570 85 q 772 391 728 201 l 782 437 l 322 437 l 312 391 z "},"Ʌ":{"ha":907,"x_min":-67,"x_max":811,"o":"m -32 0 q -40 45 -67 0 l 495 931 q 549 972 520 972 l 644 972 q 680 931 673 972 l 805 45 q 777 0 811 0 l 715 0 q 674 33 678 0 l 594 640 q 584 747 589 680 q 579 855 579 813 l 576 855 q 521 744 559 812 q 463 640 484 675 l 102 33 q 45 0 82 0 l -32 0 z "},"ɔ":{"ha":696,"x_min":14,"x_max":651,"o":"m 25 111 q 35 146 14 136 l 79 170 q 115 153 102 182 q 159 104 125 132 q 258 77 193 77 q 445 172 364 77 q 525 450 525 267 q 485 584 525 532 q 357 635 446 635 q 243 599 288 635 q 179 534 198 563 q 143 525 163 511 l 100 556 q 97 593 81 570 q 183 672 117 621 q 366 724 250 724 q 588 633 525 724 q 651 439 651 543 q 540 124 651 260 q 250 -12 429 -12 q 93 27 140 -12 q 25 111 46 65 z "},"ɖ":{"ha":764,"x_min":47,"x_max":812,"o":"m 47 257 q 157 577 47 430 q 414 724 266 724 q 531 701 489 724 q 608 632 573 678 l 609 632 q 617 673 610 646 l 686 970 q 723 1001 692 1001 l 781 1001 q 805 970 812 1001 l 582 4 q 565 -155 554 -116 q 614 -195 576 -195 q 669 -185 639 -195 q 688 -195 686 -179 l 697 -250 q 680 -272 700 -267 q 583 -283 635 -283 q 465 -224 503 -283 q 452 -48 427 -165 l 470 31 q 489 112 479 71 l 488 112 q 395 23 458 58 q 277 -12 332 -12 q 98 67 149 -12 q 47 257 47 146 m 174 252 q 204 129 174 182 q 311 77 235 77 q 447 156 378 77 q 536 326 515 236 l 581 515 q 536 609 574 583 q 423 635 499 635 q 247 520 320 635 q 174 252 174 406 z "},"ə":{"ha":731,"x_min":56,"x_max":686,"o":"m 56 184 q 152 332 56 285 q 389 408 248 380 l 556 441 q 560 469 560 467 q 524 585 560 536 q 395 635 487 635 q 270 606 317 635 q 205 555 222 578 q 163 541 182 523 l 123 575 q 127 613 110 587 q 211 681 142 637 q 412 724 279 724 q 621 640 556 724 q 686 444 686 556 q 580 114 686 240 q 290 -12 474 -12 q 120 48 185 -12 q 56 184 56 109 m 175 179 q 217 105 175 133 q 313 77 258 77 q 459 139 395 77 q 553 347 523 201 l 414 320 q 247 270 319 302 q 175 179 175 237 z "},"ɛ":{"ha":623,"x_min":31,"x_max":621,"o":"m 31 167 q 76 293 31 232 q 216 375 121 354 l 216 377 q 160 418 183 389 q 137 482 137 448 q 214 655 137 587 q 395 724 292 724 q 511 706 465 724 q 594 654 556 689 q 599 612 621 630 l 559 581 q 519 593 546 570 q 457 627 490 618 q 389 635 425 635 q 296 592 335 635 q 256 487 256 548 q 277 438 256 461 q 353 416 298 416 l 410 416 q 431 392 436 416 l 422 351 q 389 328 416 328 l 334 328 q 212 284 266 328 q 157 182 157 241 q 192 99 157 122 q 289 77 227 77 q 379 102 334 77 q 445 144 425 127 q 489 149 473 167 l 522 110 q 515 73 537 91 q 421 19 487 50 q 275 -12 355 -12 q 98 30 164 -12 q 31 167 31 72 z "},"ɜ":{"ha":623,"x_min":120,"x_max":762,"o":"m 133 73 q 145 110 120 91 l 197 149 q 238 144 221 167 q 283 102 250 127 q 361 77 317 77 q 470 99 424 77 q 545 182 515 122 q 541 284 574 241 q 439 328 507 328 l 384 328 q 363 351 357 328 l 374 392 q 406 416 380 416 l 463 416 q 550 438 517 416 q 594 487 582 461 q 606 592 624 548 q 534 635 588 635 q 462 627 498 635 q 382 593 425 618 q 336 581 345 570 l 313 612 q 338 654 300 630 q 447 706 393 689 q 571 724 500 724 q 718 655 674 724 q 711 482 762 587 q 657 418 694 448 q 581 377 620 389 l 581 375 q 680 293 665 354 q 663 167 695 232 q 530 30 617 72 q 333 -12 444 -12 q 201 19 252 -12 q 133 73 151 50 z "},"ɣ":{"ha":685,"x_min":42,"x_max":752,"o":"m 106 679 q 132 712 99 712 l 199 712 q 223 686 218 712 l 295 283 q 302 245 299 262 q 304 211 304 229 l 307 211 q 322 246 314 229 q 344 283 331 262 l 602 686 q 638 712 618 712 l 719 712 q 730 679 752 712 l 362 134 q 407 13 391 64 q 424 -79 424 -38 q 367 -228 424 -174 q 201 -282 310 -282 q 84 -252 126 -282 q 42 -155 42 -221 q 83 -26 42 -96 q 220 144 125 45 l 106 679 m 161 -146 q 170 -176 161 -159 q 212 -194 178 -194 q 278 -164 252 -194 q 304 -98 304 -135 q 299 -42 304 -74 q 274 54 294 -10 l 273 54 q 193 -61 224 -10 q 161 -146 161 -113 z "},"ɥ":{"ha":760,"x_min":43,"x_max":746,"o":"m 71 248 l 171 682 q 208 712 178 712 l 267 712 q 290 682 297 712 l 198 281 q 200 112 168 147 q 304 77 233 77 q 460 156 404 77 q 540 336 516 235 l 620 682 q 657 712 627 712 l 715 712 q 739 682 746 712 l 526 -241 q 489 -271 519 -271 l 431 -271 q 407 -241 400 -271 l 479 71 q 490 112 485 96 l 487 112 q 382 25 447 62 q 239 -12 317 -12 q 87 58 131 -12 q 71 248 43 127 z "},"ɨ":{"ha":434,"x_min":28,"x_max":417,"o":"m 58 327 q 33 351 28 327 l 43 393 q 79 416 49 416 l 172 416 l 233 682 q 271 712 240 712 l 329 712 q 353 682 359 712 l 292 416 l 385 416 q 410 393 415 416 l 399 351 q 363 327 394 327 l 271 327 l 202 31 q 165 0 195 0 l 106 0 q 83 31 76 0 l 151 327 l 58 327 m 300 841 q 277 871 270 841 l 291 930 q 328 960 298 960 l 387 960 q 410 930 417 960 l 397 871 q 359 841 389 841 l 300 841 z "},"ɩ":{"ha":448,"x_min":38,"x_max":353,"o":"m 59 192 l 172 682 q 210 712 179 712 l 268 712 q 292 682 298 712 l 174 172 q 173 95 161 113 q 218 77 186 77 q 266 88 237 77 q 309 109 294 99 q 331 100 323 118 l 348 59 q 334 34 353 45 q 255 1 299 14 q 164 -12 210 -12 q 64 45 91 -12 q 59 192 38 101 z "},"ɪ":{"ha":396,"x_min":-14,"x_max":411,"o":"m 17 0 q -8 24 -14 0 l 1 64 q 37 88 7 88 l 77 88 l 201 624 l 161 624 q 136 648 130 624 l 145 688 q 181 712 151 712 l 380 712 q 406 688 411 712 l 396 648 q 360 624 391 624 l 320 624 l 197 88 l 237 88 q 262 64 267 88 l 252 24 q 216 0 247 0 l 17 0 z "},"ɯ":{"ha":1138,"x_min":43,"x_max":1124,"o":"m 71 248 l 171 682 q 208 712 178 712 l 267 712 q 290 682 297 712 l 199 288 q 190 116 168 155 q 286 77 212 77 q 415 158 347 77 q 505 336 482 240 l 585 682 q 622 712 591 712 l 680 712 q 704 682 711 712 l 612 288 q 604 116 582 155 q 700 77 625 77 q 828 156 761 77 q 918 336 895 235 l 998 682 q 1036 712 1005 712 l 1094 712 q 1118 682 1124 712 l 967 31 q 930 0 960 0 l 873 0 q 849 31 842 0 l 867 112 l 865 112 q 764 26 825 63 q 642 -12 703 -12 q 525 36 568 -12 q 483 147 483 83 l 480 147 q 372 40 437 92 q 229 -12 307 -12 q 88 58 134 -12 q 71 248 43 127 z "},"ɱ":{"ha":1138,"x_min":15,"x_max":1097,"o":"m 45 0 q 22 31 15 0 l 172 682 q 210 712 179 712 l 267 712 q 290 682 297 712 l 272 600 l 275 600 q 375 686 315 649 q 497 724 436 724 q 614 676 572 724 q 656 565 656 629 l 659 565 q 767 672 702 621 q 911 724 833 724 q 1051 654 1006 724 q 1069 464 1097 585 l 947 -63 q 855 -239 917 -195 q 720 -283 793 -283 q 627 -269 652 -283 q 620 -248 615 -263 l 637 -193 q 656 -182 642 -175 q 718 -195 680 -195 q 787 -156 758 -195 q 843 4 815 -117 l 941 425 q 949 596 971 557 q 853 635 928 635 q 725 554 792 635 q 635 376 657 472 l 555 31 q 517 0 548 0 l 459 0 q 435 31 429 0 l 527 425 q 536 596 557 557 q 439 635 514 635 q 312 556 378 635 q 221 376 245 477 l 141 31 q 104 0 134 0 l 45 0 z "},"ɵ":{"ha":779,"x_min":46,"x_max":732,"o":"z "},"ɹ":{"ha":490,"x_min":-67,"x_max":476,"o":"m -61 16 l -39 72 q -19 81 -34 84 q 28 77 4 77 q 178 173 102 77 q 277 370 254 269 l 350 682 q 387 712 357 712 l 446 712 q 469 682 476 712 l 319 31 q 281 0 312 0 l 224 0 q 201 31 194 0 l 226 139 l 223 139 q 123 25 174 62 q 2 -12 72 -12 q -54 -4 -38 -12 q -61 16 -67 1 z "},"ʃ":{"ha":397,"x_min":-208,"x_max":593,"o":"m -197 -269 q -203 -248 -208 -263 l -186 -193 q -167 -182 -181 -175 q -105 -195 -143 -195 q -37 -156 -65 -195 q 20 4 -8 -117 l 207 813 q 304 969 233 926 q 447 1013 376 1013 q 518 1008 492 1013 q 580 987 544 1003 q 584 965 593 981 l 550 911 q 525 906 541 898 q 493 919 512 913 q 451 924 475 924 q 368 894 397 924 q 321 793 338 864 l 124 -63 q 32 -239 94 -195 q -104 -283 -30 -283 q -197 -269 -171 -283 z "},"ʇ":{"ha":513,"x_min":-3,"x_max":435,"o":"m 2 24 l 12 66 q 47 90 17 90 l 192 90 l 292 522 q 291 614 308 593 q 251 635 275 635 q 186 624 220 635 q 142 604 153 612 q 122 608 127 595 l 104 657 q 112 677 100 669 q 193 709 140 694 q 307 724 246 724 q 400 673 366 724 q 413 529 435 622 l 311 90 l 391 90 q 416 66 422 90 l 407 24 q 371 0 401 0 l 291 0 l 277 -61 q 264 -87 273 -74 l 197 -173 q 170 -197 178 -197 l 146 -197 q 132 -173 126 -197 l 172 0 l 27 0 q 2 24 -3 0 z "},"ʉ":{"ha":883,"x_min":28,"x_max":864,"o":"m 58 327 q 33 351 28 327 l 43 393 q 79 416 49 416 l 172 416 l 233 682 q 271 712 240 712 l 329 712 q 353 682 359 712 l 292 416 l 621 416 l 682 682 q 720 712 689 712 l 778 712 q 802 682 808 712 l 741 416 l 833 416 q 859 393 864 416 l 848 351 q 812 327 843 327 l 720 327 l 651 31 q 614 0 644 0 l 557 0 q 533 31 526 0 l 552 112 l 549 112 q 445 25 509 62 q 302 -12 380 -12 q 149 58 193 -12 q 133 248 105 127 l 151 327 l 58 327 m 260 281 q 262 112 230 147 q 366 77 295 77 q 521 154 466 77 q 600 327 576 231 l 271 327 l 260 281 z "},"ʋ":{"ha":694,"x_min":43,"x_max":652,"o":"m 76 264 l 172 682 q 210 712 179 712 l 268 712 q 292 682 298 712 l 192 250 q 194 109 167 141 q 294 77 220 77 q 450 182 375 77 q 526 434 526 288 q 518 549 526 497 q 488 655 511 601 q 491 691 475 688 l 555 720 q 595 705 580 732 q 640 587 627 650 q 652 476 652 524 q 544 131 652 273 q 272 -12 436 -12 q 100 54 157 -12 q 76 264 43 120 z "},"ʌ":{"ha":669,"x_min":-62,"x_max":568,"o":"m -33 0 q -43 33 -62 0 l 326 671 q 372 712 350 712 l 462 712 q 489 671 484 712 l 564 33 q 538 0 568 0 l 471 0 q 447 26 450 0 l 406 474 q 401 536 404 501 q 399 601 399 570 l 397 601 q 373 550 385 570 q 332 474 362 529 l 85 26 q 48 0 70 0 l -33 0 z "},"ʒ":{"ha":666,"x_min":-77,"x_max":673,"o":"m -62 -180 q -60 -143 -77 -154 l -18 -115 q 24 -128 2 -102 q 74 -172 41 -149 q 178 -195 107 -195 q 347 -122 288 -195 q 407 66 407 -50 q 363 172 407 136 q 240 208 320 208 l 184 208 q 159 231 153 208 l 170 277 q 197 320 174 298 l 509 623 l 509 624 q 469 623 489 623 l 146 623 q 121 646 116 623 l 131 688 q 167 712 136 712 l 643 712 q 668 688 673 712 l 660 654 q 623 601 655 632 l 311 297 l 311 294 q 470 230 409 294 q 531 75 531 166 q 441 -179 531 -75 q 178 -283 351 -283 q 12 -247 66 -283 q -62 -180 -43 -212 z "},"ʹ":{"ha":312,"x_min":167,"x_max":391,"o":"m 190 606 q 174 637 167 606 l 258 1014 q 292 1051 267 1051 l 363 1051 q 378 1014 391 1051 l 252 637 q 221 606 242 606 l 190 606 z "},"ʺ":{"ha":568,"x_min":167,"x_max":646,"o":"z "},"ˆ":{"ha":416,"x_min":100,"x_max":534,"o":"m 111 807 q 128 844 100 825 l 287 955 q 329 972 312 972 l 363 972 q 397 955 380 972 l 515 833 q 514 796 534 814 l 497 781 q 458 782 477 762 l 342 903 l 340 903 l 167 782 q 128 781 140 763 l 111 807 z "},"ˇ":{"ha":416,"x_min":123,"x_max":557,"o":"m 142 911 q 142 948 123 930 l 159 964 q 198 962 179 982 l 315 841 l 316 841 l 490 962 q 528 964 517 981 l 545 937 q 528 900 557 920 l 370 789 q 328 772 345 772 l 294 772 q 260 789 277 772 l 142 911 z "},"ˊ":{"ha":416,"x_min":193,"x_max":517,"o":"m 227 780 q 224 816 193 780 l 336 948 q 395 973 358 973 l 477 973 q 481 938 517 973 l 342 800 q 284 780 321 780 l 227 780 z "},"ˋ":{"ha":416,"x_min":224,"x_max":481,"o":"m 250 938 q 265 973 224 973 l 334 973 q 385 948 370 973 l 460 816 q 448 780 481 780 l 404 780 q 352 800 366 780 l 250 938 z "},"ˎ":{"ha":416,"x_min":-45,"x_max":211,"o":"m -20 -230 q -5 -195 -45 -195 l 64 -195 q 115 -220 100 -195 l 191 -352 q 178 -388 211 -388 l 134 -388 q 82 -368 96 -388 l -20 -230 z "},"ˏ":{"ha":416,"x_min":-77,"x_max":248,"o":"m -43 -388 q -46 -352 -77 -388 l 66 -220 q 125 -195 88 -195 l 208 -195 q 212 -230 248 -195 l 72 -368 q 14 -388 52 -388 l -43 -388 z "},"˘":{"ha":416,"x_min":117,"x_max":564,"o":"m 127 929 q 140 965 117 957 l 172 977 q 202 962 193 985 q 244 891 220 917 q 320 865 268 865 q 418 894 381 865 q 481 964 455 923 q 513 975 494 985 l 543 956 q 549 919 564 944 q 440 810 505 843 q 307 777 374 777 q 196 812 235 777 q 127 929 157 848 z "},"˙":{"ha":416,"x_min":261,"x_max":408,"o":"m 292 841 q 269 871 261 841 l 282 930 q 319 960 289 960 l 378 960 q 401 930 408 960 l 388 871 q 350 841 380 841 l 292 841 z "},"˚":{"ha":416,"x_min":210,"x_max":454,"o":"m 210 890 q 246 977 210 941 q 332 1013 281 1013 q 419 977 383 1013 q 454 890 454 941 q 419 804 454 840 q 332 768 383 768 q 246 804 281 768 q 210 890 210 840 m 262 890 q 282 840 262 861 q 332 820 302 820 q 382 840 362 820 q 403 890 403 861 q 382 941 403 920 q 332 961 362 961 q 282 941 302 961 q 262 890 262 920 z "},"˛":{"ha":416,"x_min":-43,"x_max":245,"o":"m -43 -193 q -32 -129 -43 -157 q 12 -75 -20 -101 q 111 -4 43 -49 q 130 31 124 5 l 245 31 q 227 0 241 10 q 114 -87 163 -47 q 65 -158 65 -126 q 75 -185 65 -176 q 110 -195 85 -195 q 159 -191 139 -195 q 178 -205 176 -187 l 182 -258 q 170 -277 183 -274 q 90 -283 130 -283 q -11 -257 22 -283 q -43 -193 -43 -232 z "},"˜":{"ha":416,"x_min":102,"x_max":548,"o":"m 117 797 q 109 827 102 804 q 157 905 123 875 q 245 936 191 936 q 339 899 292 936 q 413 861 387 861 q 456 876 442 861 q 481 917 471 891 q 507 930 490 937 l 533 919 q 541 889 548 912 q 493 810 527 841 q 404 780 458 780 q 311 817 358 780 q 237 854 263 854 q 193 840 208 854 q 168 799 179 825 q 143 785 159 779 l 117 797 z "},"˝":{"ha":416,"x_min":101,"x_max":581,"o":"m 331 780 q 328 816 304 780 l 413 948 q 472 973 429 973 l 545 973 q 549 938 581 973 l 421 800 q 366 780 403 780 l 331 780 m 127 780 q 124 816 101 780 l 210 948 q 269 973 226 973 l 341 973 q 345 938 378 973 l 218 800 q 163 780 199 780 l 127 780 z "},"ˮ":{"ha":515,"x_min":153,"x_max":589,"o":"z "},"̀":{"ha":0,"x_min":-192,"x_max":64,"o":"m -166 938 q -151 973 -192 973 l -83 973 q -32 948 -46 973 l 44 816 q 31 780 64 780 l -12 780 q -64 800 -50 780 l -166 938 z "},"́":{"ha":0,"x_min":-223,"x_max":101,"o":"m -189 780 q -193 816 -223 780 l -80 948 q -21 973 -58 973 l 61 973 q 65 938 101 973 l -75 800 q -132 780 -95 780 l -189 780 z "},"̂":{"ha":0,"x_min":-317,"x_max":117,"o":"m -305 807 q -288 844 -317 825 l -130 955 q -87 972 -104 972 l -54 972 q -20 955 -37 972 l 98 833 q 98 796 117 814 l 81 781 q 42 782 61 762 l -75 903 l -76 903 l -250 782 q -288 781 -277 763 l -305 807 z "},"̃":{"ha":0,"x_min":-315,"x_max":132,"o":"m -300 797 q -308 827 -315 804 q -259 905 -294 875 q -171 936 -225 936 q -77 899 -125 936 q -3 861 -30 861 q 40 876 26 861 q 65 917 54 891 q 90 930 74 937 l 117 919 q 125 889 132 912 q 76 810 111 841 q -12 780 42 780 q -106 817 -58 780 q -180 854 -153 854 q -223 840 -209 854 q -248 799 -237 825 q -273 785 -257 779 l -300 797 z "},"̄":{"ha":0,"x_min":-305,"x_max":132,"o":"m -275 841 q -300 865 -305 841 l -293 892 q -257 916 -288 916 l 101 916 q 126 892 132 916 l 119 865 q 83 841 114 841 l -275 841 z "},"̅":{"ha":0,"x_min":-642,"x_max":136,"o":"m -612 827 q -642 851 -642 827 l -642 892 q -612 916 -642 916 l 106 916 q 136 892 136 916 l 136 851 q 106 827 136 827 l -612 827 z "},"̆":{"ha":0,"x_min":-299,"x_max":148,"o":"m -289 929 q -277 965 -299 957 l -244 977 q -214 962 -223 985 q -172 891 -196 917 q -96 865 -149 865 q 2 894 -35 865 q 65 964 39 923 q 96 975 78 985 l 127 956 q 132 919 148 944 q 23 810 89 843 q -109 777 -42 777 q -220 812 -181 777 q -289 929 -260 848 z "},"̇":{"ha":0,"x_min":-155,"x_max":-8,"o":"m -125 841 q -148 871 -155 841 l -134 930 q -97 960 -127 960 l -39 960 q -15 930 -8 960 l -28 871 q -66 841 -36 841 l -125 841 z "},"̈":{"ha":0,"x_min":-293,"x_max":130,"o":"m -262 841 q -286 871 -293 841 l -272 930 q -235 960 -265 960 l -176 960 q -153 930 -146 960 l -166 871 q -204 841 -174 841 l -262 841 m 13 841 q -10 871 -18 841 l 3 930 q 41 960 10 960 l 99 960 q 123 930 130 960 l 109 871 q 71 841 102 841 l 13 841 z "},"̊":{"ha":0,"x_min":-206,"x_max":38,"o":"m -206 890 q -171 977 -206 941 q -84 1013 -135 1013 q 2 977 -33 1013 q 38 890 38 941 q 2 804 38 840 q -84 768 -33 768 q -171 804 -135 768 q -206 890 -206 840 m -155 890 q -134 840 -155 861 q -84 820 -114 820 q -34 840 -54 820 q -14 890 -14 861 q -34 941 -14 920 q -84 961 -54 961 q -134 941 -114 961 q -155 890 -155 920 z "},"̋":{"ha":0,"x_min":-315,"x_max":165,"o":"m -85 780 q -89 816 -112 780 l -3 948 q 56 973 13 973 l 128 973 q 132 938 165 973 l 5 800 q -50 780 -14 780 l -85 780 m -289 780 q -292 816 -315 780 l -207 948 q -148 973 -191 973 l -75 973 q -71 938 -39 973 l -199 800 q -254 780 -217 780 l -289 780 z "},"̌":{"ha":0,"x_min":-294,"x_max":140,"o":"m -275 911 q -274 948 -294 930 l -257 964 q -218 962 -237 982 l -102 841 l -100 841 l 73 962 q 112 964 100 981 l 129 937 q 112 900 140 920 l -47 789 q -89 772 -72 772 l -123 772 q -157 789 -140 772 l -275 911 z "},"̏":{"ha":0,"x_min":-317,"x_max":97,"o":"m -294 938 q -279 973 -317 973 l -220 973 q -169 948 -178 973 l -120 816 q -133 780 -106 780 l -155 780 q -204 800 -191 780 l -294 938 m -90 938 q -75 973 -113 973 l -16 973 q 35 948 25 973 l 83 816 q 71 780 97 780 l 49 780 q -1 800 12 780 l -90 938 z "},"̑":{"ha":0,"x_min":-302,"x_max":146,"o":"m 136 827 q 123 791 146 800 l 91 779 q 61 794 70 772 q 19 865 43 840 q -57 891 -5 891 q -155 862 -118 891 q -218 792 -192 833 q -250 782 -231 771 l -280 800 q -286 838 -301 812 q -177 946 -242 913 q -44 979 -111 979 q 67 944 28 979 q 136 827 106 909 z "},"̕":{"ha":0,"x_min":54,"x_max":265,"o":"z "},"̖":{"ha":0,"x_min":-462,"x_max":-205,"o":"m -436 -230 q -421 -195 -462 -195 l -353 -195 q -302 -220 -316 -195 l -226 -352 q -239 -388 -205 -388 l -282 -388 q -334 -368 -320 -388 l -436 -230 z "},"̗":{"ha":0,"x_min":-493,"x_max":-169,"o":"m -459 -388 q -463 -352 -493 -388 l -350 -220 q -291 -195 -328 -195 l -209 -195 q -205 -230 -169 -195 l -345 -368 q -402 -388 -365 -388 l -459 -388 z "},"̣":{"ha":0,"x_min":-399,"x_max":-252,"o":"m -369 -216 q -392 -185 -399 -216 l -378 -127 q -341 -96 -372 -96 l -283 -96 q -259 -127 -252 -96 l -273 -185 q -311 -216 -280 -216 l -369 -216 z "},"̤":{"ha":0,"x_min":-537,"x_max":-115,"o":"m -507 -216 q -530 -185 -537 -216 l -516 -127 q -479 -96 -509 -96 l -420 -96 q -397 -127 -390 -96 l -410 -185 q -448 -216 -418 -216 l -507 -216 m -231 -216 q -254 -185 -262 -216 l -241 -127 q -203 -96 -234 -96 l -145 -96 q -121 -127 -115 -96 l -135 -185 q -173 -216 -142 -216 l -231 -216 z "},"̥":{"ha":0,"x_min":-463,"x_max":-219,"o":"m -463 -223 q -428 -137 -463 -172 q -341 -101 -392 -101 q -255 -137 -290 -101 q -219 -223 -219 -172 q -255 -310 -219 -274 q -341 -345 -290 -345 q -428 -310 -392 -345 q -463 -223 -463 -274 m -412 -223 q -391 -273 -412 -253 q -341 -294 -371 -294 q -291 -273 -311 -294 q -271 -223 -271 -253 q -291 -173 -271 -193 q -341 -153 -311 -153 q -391 -173 -371 -153 q -412 -223 -412 -193 z "},"̧":{"ha":0,"x_min":-481,"x_max":-220,"o":"m -467 -268 q -474 -243 -481 -262 l -465 -218 q -438 -206 -458 -196 q -380 -214 -422 -214 q -326 -201 -347 -214 q -305 -166 -305 -189 q -322 -139 -305 -149 q -372 -128 -338 -128 l -391 -128 q -403 -111 -406 -128 q -391 -74 -398 -83 l -330 0 q -300 15 -318 15 l -253 15 q -243 0 -231 15 l -296 -65 l -297 -67 q -236 -96 -252 -76 q -220 -157 -220 -117 q -268 -247 -220 -212 q -382 -282 -315 -282 q -467 -268 -429 -282 z "},"̨":{"ha":0,"x_min":-460,"x_max":-171,"o":"m -460 -193 q -448 -129 -460 -157 q -405 -75 -436 -101 q -305 -4 -374 -49 q -287 31 -292 5 l -171 31 q -189 0 -176 10 q -302 -87 -253 -47 q -351 -158 -351 -126 q -341 -185 -351 -176 q -307 -195 -331 -195 q -257 -191 -277 -195 q -239 -205 -240 -187 l -235 -258 q -247 -277 -233 -274 q -327 -283 -286 -283 q -427 -257 -395 -283 q -460 -193 -460 -232 z "},"̬":{"ha":0,"x_min":-541,"x_max":-106,"o":"m -522 -159 q -521 -121 -541 -139 l -504 -106 q -465 -107 -484 -87 l -349 -229 l -347 -229 l -174 -107 q -135 -106 -146 -88 l -118 -132 q -135 -170 -106 -150 l -294 -280 q -336 -298 -319 -298 l -370 -298 q -404 -280 -387 -298 l -522 -159 z "},"̭":{"ha":0,"x_min":-564,"x_max":-130,"o":"m -552 -262 q -535 -225 -564 -245 l -376 -115 q -334 -97 -351 -97 l -300 -97 q -267 -115 -283 -97 l -149 -236 q -149 -273 -130 -256 l -166 -289 q -205 -288 -186 -307 l -321 -166 l -323 -166 l -496 -288 q -535 -289 -524 -307 l -552 -262 z "},"̮":{"ha":0,"x_min":-548,"x_max":-101,"o":"m -538 -148 q -526 -112 -548 -120 l -493 -100 q -463 -115 -472 -92 q -421 -186 -445 -160 q -345 -212 -397 -212 q -247 -183 -284 -212 q -184 -113 -210 -154 q -153 -102 -171 -92 l -122 -121 q -117 -158 -101 -133 q -225 -267 -160 -234 q -358 -300 -291 -300 q -469 -264 -430 -300 q -538 -148 -509 -229 z "},"̯":{"ha":0,"x_min":-573,"x_max":-125,"o":"m -136 -347 q -148 -383 -125 -375 l -180 -395 q -210 -380 -201 -403 q -252 -309 -229 -335 q -328 -283 -276 -283 q -426 -312 -389 -283 q -490 -383 -463 -341 q -521 -393 -503 -404 l -551 -374 q -557 -337 -572 -362 q -448 -228 -513 -261 q -315 -195 -382 -195 q -204 -231 -243 -195 q -136 -347 -165 -266 z "},"̰":{"ha":0,"x_min":-574,"x_max":-127,"o":"m -559 -326 q -567 -296 -574 -319 q -518 -218 -553 -248 q -430 -187 -484 -187 q -336 -224 -384 -187 q -262 -262 -289 -262 q -219 -247 -233 -262 q -194 -206 -205 -232 q -169 -193 -185 -186 l -142 -204 q -134 -234 -127 -211 q -183 -313 -149 -282 q -271 -343 -217 -343 q -365 -306 -317 -343 q -439 -269 -412 -269 q -482 -283 -468 -269 q -507 -324 -496 -298 q -532 -338 -516 -345 l -559 -326 z "},"̱":{"ha":0,"x_min":-559,"x_max":-122,"o":"m -528 -258 q -553 -234 -559 -258 l -547 -207 q -511 -183 -541 -183 l -153 -183 q -127 -207 -122 -183 l -134 -234 q -170 -258 -140 -258 l -528 -258 z "},"̲":{"ha":0,"x_min":-895,"x_max":-116,"o":"m -864 -264 q -895 -241 -895 -264 l -895 -200 q -864 -176 -895 -176 l -146 -176 q -116 -200 -116 -176 l -116 -241 q -146 -264 -116 -264 l -864 -264 z "},"̴":{"ha":0,"x_min":-422,"x_max":24,"o":"m -408 329 q -416 359 -422 336 q -367 437 -401 407 q -279 468 -333 468 q -185 431 -233 468 q -111 393 -138 393 q -68 408 -82 393 q -43 449 -54 423 q -18 463 -34 469 l 9 451 q 17 421 24 444 q -32 342 3 373 q -120 312 -66 312 q -214 349 -166 312 q -288 387 -261 387 q -331 372 -317 387 q -356 331 -345 357 q -381 317 -365 311 l -408 329 z "},"̸":{"ha":0,"x_min":-718,"x_max":152,"o":"m -697 -263 q -700 -225 -718 -253 l 62 976 q 101 995 81 1005 l 133 979 q 134 941 152 969 l -628 -260 q -665 -279 -646 -289 l -697 -263 z "},"Δ":{"ha":951,"x_min":-44,"x_max":846,"o":"m -10 0 q -35 37 -44 0 l -33 51 q -13 90 -30 62 l 517 931 q 571 972 543 972 l 666 972 q 701 931 694 972 l 842 90 q 844 51 846 62 l 841 37 q 798 0 832 0 l -10 0 m 149 110 q 204 111 168 111 l 652 111 q 705 110 688 111 l 706 113 l 618 640 q 605 757 608 698 q 601 855 601 817 l 598 855 q 550 757 581 817 q 482 640 519 698 l 150 113 l 149 110 z "},"Σ":{"ha":819,"x_min":-31,"x_max":895,"o":"m 6 0 q -24 31 -31 0 l -17 63 q 18 123 -10 94 l 367 498 q 378 547 390 523 l 203 881 q 199 922 194 899 l 204 942 q 248 972 212 972 l 857 972 q 888 942 895 972 l 876 892 q 831 861 869 861 l 406 861 q 352 863 378 861 l 351 860 l 526 522 q 515 477 537 500 l 172 113 l 172 110 q 227 111 190 111 l 677 111 q 707 81 714 111 l 696 31 q 652 0 689 0 l 6 0 z "},"Ω":{"ha":1047,"x_min":-41,"x_max":1032,"o":"m -3 0 q -34 31 -41 0 l -22 81 q 22 111 -16 111 l 163 111 q 216 110 190 111 l 217 113 q 118 271 145 186 q 92 417 92 356 q 232 831 92 669 q 613 993 372 993 q 928 886 824 993 q 1032 596 1032 780 q 938 319 1032 458 q 741 113 844 180 l 741 110 q 795 111 768 111 l 913 111 q 943 81 950 111 l 932 31 q 888 0 925 0 l 594 0 q 564 31 556 0 l 573 69 q 615 125 583 104 q 819 349 744 210 q 893 609 893 488 q 825 812 893 736 q 606 887 757 887 q 340 768 450 887 q 231 397 231 648 q 262 227 231 293 q 327 119 293 161 q 351 69 352 88 l 341 31 q 297 0 334 0 l -3 0 z "},"π":{"ha":911,"x_min":73,"x_max":958,"o":"m 79 650 q 101 680 73 669 q 192 704 145 696 q 305 712 239 712 l 928 712 q 953 688 958 712 l 943 646 q 907 623 938 623 l 801 623 l 698 177 q 694 95 684 114 q 731 77 705 77 q 773 83 753 77 q 794 73 792 88 l 800 17 q 785 -1 802 3 q 715 -12 751 -12 q 594 43 628 -12 q 582 192 560 97 l 682 623 l 379 623 l 242 31 q 205 0 235 0 l 146 0 q 123 31 116 0 l 260 623 q 190 615 224 623 q 124 595 155 608 q 94 602 100 584 l 79 650 z "},"Ѐ":{"ha":861,"x_min":34,"x_max":923,"o":"z "},"Ё":{"ha":861,"x_min":34,"x_max":923,"o":"m 426 1051 q 402 1082 395 1051 l 416 1144 q 454 1175 424 1175 l 517 1175 q 540 1144 547 1175 l 526 1082 q 488 1051 519 1051 l 426 1051 m 750 1051 q 726 1082 720 1051 l 741 1144 q 779 1175 748 1175 l 841 1175 q 864 1144 871 1175 l 850 1082 q 812 1051 843 1051 l 750 1051 m 68 0 q 43 37 34 0 l 250 935 q 292 972 258 972 l 886 972 q 916 942 923 972 l 905 892 q 860 861 897 861 l 363 861 l 294 560 l 750 560 q 780 530 787 560 l 768 479 q 724 449 762 449 l 268 449 l 190 111 l 707 111 q 737 81 745 111 l 726 31 q 682 0 719 0 l 68 0 z "},"Ђ":{"ha":1085,"x_min":142,"x_max":1010,"o":"m 180 861 q 149 892 142 861 l 161 942 q 205 972 168 972 l 923 972 q 953 942 960 972 l 941 892 q 897 861 935 861 l 583 861 l 517 577 q 503 523 510 545 l 506 523 q 616 568 560 547 q 744 589 671 589 q 945 516 879 589 q 1010 327 1010 444 q 925 69 1010 163 q 682 -24 840 -24 q 578 -12 623 -24 q 561 21 551 -5 l 579 76 q 616 87 585 92 q 674 82 646 82 q 828 148 785 82 q 871 304 871 214 q 840 440 871 397 q 720 484 808 484 q 611 471 680 484 q 484 432 541 457 l 393 37 q 350 0 384 0 l 288 0 q 262 37 254 0 l 453 861 l 180 861 z "},"Ѓ":{"ha":750,"x_min":34,"x_max":869,"o":"m 68 0 q 43 37 34 0 l 250 935 q 292 972 258 972 l 831 972 q 862 942 869 972 l 850 892 q 806 861 843 861 l 363 861 l 173 37 q 130 0 164 0 l 68 0 m 473 1044 q 471 1080 435 1044 l 576 1185 q 634 1211 601 1211 l 749 1211 q 753 1175 801 1211 l 604 1064 q 545 1044 576 1044 l 473 1044 z "},"Є":{"ha":937,"x_min":75,"x_max":941,"o":"m 75 393 q 213 827 75 661 q 616 993 352 993 q 812 957 741 993 q 922 852 884 922 q 911 798 941 819 l 861 762 q 824 777 844 749 q 748 850 800 813 q 604 887 696 887 q 346 788 435 887 q 231 565 258 688 l 694 565 q 724 534 731 565 l 713 484 q 669 454 706 454 l 216 454 q 214 378 214 417 q 274 170 214 254 q 500 85 334 85 q 654 130 592 85 q 756 219 717 174 q 811 238 788 256 l 869 194 q 859 140 889 178 q 713 23 798 67 q 481 -20 629 -20 q 172 97 269 -20 q 75 393 75 214 z "},"Ѕ":{"ha":825,"x_min":23,"x_max":816,"o":"m 57 76 q 43 134 23 109 l 82 182 q 140 173 103 208 q 236 109 184 132 q 368 85 288 85 q 482 105 435 85 q 565 161 529 124 q 602 253 602 198 q 593 313 602 282 q 558 368 585 345 q 498 405 531 392 q 419 434 461 420 q 326 473 377 448 q 251 528 282 495 q 201 608 220 562 q 183 706 183 654 q 244 876 183 802 q 380 971 305 950 q 520 993 456 993 q 671 970 610 993 q 783 909 732 948 q 794 855 816 884 l 755 804 q 708 810 739 784 q 628 854 684 830 q 512 878 572 878 q 429 865 473 878 q 349 812 384 852 q 313 715 313 772 q 321 658 313 686 q 352 610 330 631 q 399 578 374 590 q 480 545 438 559 q 555 518 522 532 q 655 462 610 496 q 720 375 700 427 q 739 275 739 322 q 688 115 739 179 q 561 15 636 50 q 357 -20 486 -20 q 173 7 245 -20 q 57 76 100 34 z "},"І":{"ha":361,"x_min":34,"x_max":389,"o":"m 68 0 q 43 37 34 0 l 250 935 q 292 972 258 972 l 355 972 q 380 935 389 972 l 173 37 q 130 0 164 0 l 68 0 z "},"Ї":{"ha":361,"x_min":34,"x_max":566,"o":"m 68 0 q 43 37 34 0 l 250 935 q 292 972 258 972 l 355 972 q 380 935 389 972 l 173 37 q 130 0 164 0 l 68 0 m 177 1051 q 153 1082 146 1051 l 168 1144 q 205 1175 175 1175 l 268 1175 q 291 1144 298 1175 l 277 1082 q 239 1051 270 1051 l 177 1051 m 444 1051 q 420 1082 414 1051 l 435 1144 q 473 1175 442 1175 l 535 1175 q 558 1144 566 1175 l 544 1082 q 507 1051 537 1051 l 444 1051 z "},"Ј":{"ha":559,"x_min":-49,"x_max":587,"o":"m -25 20 q -34 64 -49 34 l -9 112 q 42 121 8 147 q 132 85 90 85 q 235 130 197 85 q 291 256 272 174 l 448 935 q 490 972 456 972 l 553 972 q 578 935 587 972 l 425 272 q 336 66 398 153 q 119 -20 273 -20 q -25 20 40 -20 z "},"Љ":{"ha":1526,"x_min":-52,"x_max":1457,"o":"m -31 -12 q -45 20 -52 -4 l -28 76 q 10 92 -21 101 q 62 86 28 86 q 247 265 177 86 q 382 730 316 444 l 429 935 q 471 972 437 972 l 994 972 q 1019 935 1027 972 l 932 562 l 1114 562 q 1385 489 1312 562 q 1457 308 1457 417 q 1349 92 1457 183 q 1012 0 1240 0 l 707 0 q 682 37 673 0 l 871 861 l 524 861 l 486 692 q 301 123 388 267 q 54 -20 214 -20 q -31 -12 -6 -20 m 829 111 l 1016 111 q 1240 161 1162 111 q 1318 301 1318 212 q 1255 424 1318 397 q 1067 450 1192 450 l 907 450 l 829 111 z "},"Њ":{"ha":1491,"x_min":34,"x_max":1422,"o":"m 68 0 q 43 37 34 0 l 250 935 q 292 972 258 972 l 355 972 q 380 935 389 972 l 294 562 l 767 562 l 853 935 q 896 972 862 972 l 958 972 q 983 935 992 972 l 897 562 l 1079 562 q 1350 489 1277 562 q 1422 308 1422 417 q 1314 92 1422 183 q 977 0 1205 0 l 671 0 q 646 37 637 0 l 741 450 l 268 450 l 173 37 q 130 0 164 0 l 68 0 m 793 111 l 981 111 q 1205 161 1126 111 q 1283 301 1283 212 q 1220 424 1283 397 q 1031 450 1157 450 l 871 450 l 793 111 z "},"Ћ":{"ha":1105,"x_min":142,"x_max":1032,"o":"m 179 861 q 149 892 142 861 l 161 942 q 205 972 168 972 l 922 972 q 953 942 960 972 l 941 892 q 897 861 934 861 l 583 861 l 517 577 q 503 523 511 549 l 506 523 q 643 570 576 551 q 816 589 710 589 q 977 519 922 589 q 1010 354 1032 450 l 938 37 q 895 0 929 0 l 833 0 q 808 37 799 0 l 873 321 q 870 451 895 417 q 771 484 846 484 q 641 471 734 484 q 484 432 547 458 l 393 37 q 350 0 384 0 l 288 0 q 262 37 254 0 l 452 861 l 179 861 z "},"Ќ":{"ha":861,"x_min":34,"x_max":975,"o":"m 68 0 q 43 37 34 0 l 250 935 q 292 972 258 972 l 355 972 q 380 935 389 972 l 292 551 l 320 551 q 446 590 397 551 q 548 688 494 629 l 784 946 q 838 972 808 972 l 930 972 q 932 928 975 972 l 656 632 q 554 543 608 581 q 481 498 500 505 l 480 498 q 561 436 519 480 q 623 343 603 392 l 749 45 q 727 0 768 0 l 654 0 q 613 26 623 0 l 521 277 q 436 396 494 350 q 305 443 378 443 l 267 443 l 173 37 q 130 0 164 0 l 68 0 m 527 1044 q 524 1080 488 1044 l 629 1185 q 688 1211 654 1211 l 802 1211 q 807 1175 854 1211 l 657 1064 q 599 1044 630 1044 l 527 1044 z "},"Ѝ":{"ha":985,"x_min":34,"x_max":1013,"o":"m 68 0 q 43 37 34 0 l 250 935 q 292 972 258 972 l 355 972 q 380 935 389 972 l 222 251 q 208 197 215 220 l 211 197 l 817 939 q 892 972 844 972 l 979 972 q 1004 935 1013 972 l 797 37 q 754 0 788 0 l 692 0 q 667 37 658 0 l 825 722 q 838 776 831 752 l 836 776 l 231 34 q 155 0 203 0 l 68 0 z "},"Ў":{"ha":892,"x_min":41,"x_max":1018,"o":"m 178 928 q 206 972 165 972 l 264 972 q 306 939 296 972 l 425 506 q 447 413 437 465 q 463 319 457 361 l 466 319 q 520 424 489 372 q 578 517 552 476 l 844 939 q 901 972 865 972 l 981 972 q 989 928 1018 972 l 530 224 q 379 40 450 101 q 189 -20 308 -20 q 60 9 104 -20 q 52 44 41 22 l 80 100 q 119 109 92 125 q 198 86 157 86 q 290 109 253 86 q 352 169 328 132 l 380 212 l 178 928 m 395 1234 q 435 1266 398 1266 l 491 1266 q 517 1234 519 1266 l 515 1212 q 540 1158 511 1175 q 623 1142 568 1142 q 768 1182 712 1142 q 850 1258 823 1221 q 886 1269 867 1282 l 912 1251 q 911 1213 929 1239 q 781 1086 846 1123 q 602 1050 716 1050 q 440 1091 496 1050 q 391 1194 385 1133 l 395 1234 z "},"Џ":{"ha":956,"x_min":34,"x_max":984,"o":"m 68 0 q 43 37 34 0 l 250 935 q 292 972 258 972 l 355 972 q 380 935 389 972 l 190 111 l 655 111 l 845 935 q 888 972 854 972 l 950 972 q 975 935 984 972 l 768 37 q 726 0 760 0 l 453 0 l 403 -217 q 368 -251 395 -251 l 310 -251 q 290 -217 283 -251 l 340 0 l 68 0 z "},"А":{"ha":922,"x_min":-66,"x_max":827,"o":"m -32 0 q -40 45 -66 0 l 482 931 q 536 972 507 972 l 631 972 q 667 931 659 972 l 820 45 q 791 0 827 0 l 730 0 q 688 33 694 0 l 650 258 l 233 258 l 100 33 q 44 0 81 0 l -32 0 m 299 369 l 630 369 l 583 640 q 568 747 574 689 q 563 855 563 805 l 560 855 q 522 757 548 807 q 458 640 496 707 l 299 369 z "},"Б":{"ha":902,"x_min":34,"x_max":896,"o":"m 68 0 q 43 37 34 0 l 250 935 q 292 972 258 972 l 859 972 q 889 942 896 972 l 878 892 q 833 861 871 861 l 363 861 l 294 564 l 483 564 q 760 488 693 564 q 826 314 826 411 q 717 92 826 184 q 380 0 608 0 l 68 0 m 190 111 l 384 111 q 608 163 530 111 q 687 307 687 215 q 632 420 687 388 q 435 453 578 453 l 269 453 l 190 111 z "},"В":{"ha":907,"x_min":34,"x_max":872,"o":"m 68 0 q 43 37 34 0 l 250 935 q 292 972 258 972 l 543 972 q 800 904 728 972 q 872 735 872 836 q 807 585 872 641 q 646 509 743 529 l 646 507 q 771 438 716 492 q 825 292 825 385 q 723 90 825 179 q 387 0 621 0 l 68 0 m 190 111 l 391 111 q 610 159 533 111 q 686 298 686 208 q 617 415 686 380 q 428 450 547 450 l 268 450 l 190 111 m 291 548 l 475 548 q 655 600 571 548 q 740 730 740 651 q 690 830 740 800 q 519 861 641 861 l 363 861 l 291 548 z "},"Г":{"ha":750,"x_min":34,"x_max":869,"o":"m 68 0 q 43 37 34 0 l 250 935 q 292 972 258 972 l 831 972 q 862 942 869 972 l 850 892 q 806 861 843 861 l 363 861 l 173 37 q 130 0 164 0 l 68 0 z "},"Д":{"ha":1032,"x_min":-102,"x_max":1011,"o":"m -75 -251 q -95 -217 -102 -251 l -28 74 q 15 111 -19 111 l 71 111 q 275 419 218 250 q 370 751 332 588 l 412 935 q 455 972 421 972 l 977 972 q 1002 935 1011 972 l 812 111 l 899 111 q 924 74 933 111 l 857 -217 q 823 -251 850 -251 l 764 -251 q 745 -217 737 -251 l 795 0 l 68 0 l 18 -217 q -17 -251 10 -251 l -75 -251 m 213 111 l 682 111 l 855 861 l 508 861 l 474 713 q 334 278 404 408 q 213 111 263 149 z "},"Е":{"ha":861,"x_min":34,"x_max":923,"o":"m 68 0 q 43 37 34 0 l 250 935 q 292 972 258 972 l 886 972 q 916 942 923 972 l 905 892 q 860 861 897 861 l 363 861 l 294 560 l 750 560 q 780 530 787 560 l 768 479 q 724 449 762 449 l 268 449 l 190 111 l 707 111 q 737 81 745 111 l 726 31 q 682 0 719 0 l 68 0 z "},"Ж":{"ha":1308,"x_min":-69,"x_max":1420,"o":"m -28 0 q -31 45 -69 0 l 229 343 q 353 461 306 432 q 439 498 400 490 l 440 498 q 389 542 424 505 q 329 632 353 578 l 195 928 q 217 972 174 972 l 283 972 q 324 946 313 972 l 435 688 q 503 589 462 626 q 614 551 545 551 l 635 551 l 723 935 q 766 972 732 972 l 828 972 q 853 935 862 972 l 765 551 l 785 551 q 899 589 852 551 q 1000 688 946 627 l 1230 946 q 1284 972 1254 972 l 1377 972 q 1379 928 1420 972 l 1107 632 q 1005 541 1057 576 q 935 498 954 505 l 935 498 q 1005 461 971 490 q 1075 343 1039 432 l 1196 45 q 1173 0 1214 0 l 1101 0 q 1059 26 1069 0 l 972 277 q 889 398 946 353 q 770 443 833 443 l 740 443 l 646 37 q 604 0 637 0 l 541 0 q 516 37 507 0 l 610 443 l 579 443 q 454 397 521 443 q 327 277 387 351 l 125 26 q 71 0 104 0 l -28 0 z "},"З":{"ha":863,"x_min":3,"x_max":832,"o":"m 33 112 q 27 163 3 144 l 79 205 q 133 189 104 225 q 220 122 157 159 q 396 85 283 85 q 575 150 511 85 q 640 292 640 214 q 586 414 640 370 q 455 458 533 458 l 347 458 q 316 487 309 458 l 327 534 q 371 565 334 565 l 475 565 q 643 622 585 565 q 700 743 700 680 q 637 852 700 818 q 498 887 574 887 q 358 860 429 887 q 254 802 286 832 q 204 797 222 773 l 165 849 q 185 904 145 875 q 319 970 245 947 q 501 993 393 993 q 749 922 665 993 q 832 753 832 850 q 766 589 832 649 q 612 511 700 529 l 612 509 q 730 435 682 494 q 779 290 779 376 q 682 78 779 177 q 391 -20 586 -20 q 161 25 250 -20 q 33 112 71 71 z "},"И":{"ha":985,"x_min":34,"x_max":1013,"o":"m 68 0 q 43 37 34 0 l 250 935 q 292 972 258 972 l 355 972 q 380 935 389 972 l 222 251 q 208 197 215 220 l 211 197 l 817 939 q 892 972 844 972 l 979 972 q 1004 935 1013 972 l 797 37 q 754 0 788 0 l 692 0 q 667 37 658 0 l 825 722 q 838 776 831 752 l 836 776 l 231 34 q 155 0 203 0 l 68 0 z "}}}
